# MagicaVoxel @ Ephtracy

# group
o 

# material
mtllib yasiki_tile.mtl
usemtl palette

# normals
vn -1 0 0
vn 1 0 0
vn 0 0 1
vn 0 0 -1
vn 0 -1 0
vn 0 1 0

# texcoords
vt 0.365234 0.5
vt 0.369141 0.5
vt 0.373047 0.5

# verts
v -2 0 2
v -2 0 -2
v -2 0.1 -2.38419e-007
v -2 0.1 -0.1
v -2 0.1 -0.3
v -2 0.1 -0.4
v -2 0.1 -0.5
v -2 0.1 -0.8
v -2 0.1 -1
v -2 0.1 -1.1
v -2 0.1 -1.3
v -2 0.1 -1.6
v -2 0.2 2
v -2 0.2 -2.38419e-007
v -2 0.2 -0.1
v -2 0.2 -0.3
v -2 0.2 -0.4
v -2 0.2 -0.5
v -2 0.2 -0.8
v -2 0.2 -1
v -2 0.2 -1.1
v -2 0.2 -1.3
v -2 0.2 -1.6
v -2 0.2 -2
v 2.38419e-007 0.1 2
v 2.38419e-007 0.1 1.9
v 2.38419e-007 0.1 1.8
v 2.38419e-007 0.1 1.6
v 2.38419e-007 0.1 1.3
v 2.38419e-007 0.1 1.1
v 2.38419e-007 0.1 1
v 2.38419e-007 0.1 0.7
v 2.38419e-007 0.1 0.4
v 2.38419e-007 0.1 0.0999999
v 2.38419e-007 0.2 2
v 2.38419e-007 0.2 1.9
v 2.38419e-007 0.2 1.8
v 2.38419e-007 0.2 1.6
v 2.38419e-007 0.2 1.3
v 2.38419e-007 0.2 1.1
v 2.38419e-007 0.2 1
v 2.38419e-007 0.2 0.7
v 2.38419e-007 0.2 0.4
v 2.38419e-007 0.2 0.0999999
v 0.1 0.1 -2.38419e-007
v 0.1 0.1 -2
v 0.1 0.2 -2.38419e-007
v 0.1 0.2 -2
v -0.0999999 0.1 2
v -0.0999999 0.1 -2.38419e-007
v -0.0999999 0.2 2
v -0.0999999 0.2 -2.38419e-007
v 2.38419e-007 0.1 -0.1
v 2.38419e-007 0.1 -0.3
v 2.38419e-007 0.1 -0.4
v 2.38419e-007 0.1 -0.5
v 2.38419e-007 0.1 -0.8
v 2.38419e-007 0.1 -1
v 2.38419e-007 0.1 -1.1
v 2.38419e-007 0.1 -1.3
v 2.38419e-007 0.1 -1.6
v 2.38419e-007 0.1 -2
v 2.38419e-007 0.2 -0.1
v 2.38419e-007 0.2 -0.3
v 2.38419e-007 0.2 -0.4
v 2.38419e-007 0.2 -0.5
v 2.38419e-007 0.2 -0.8
v 2.38419e-007 0.2 -1
v 2.38419e-007 0.2 -1.1
v 2.38419e-007 0.2 -1.3
v 2.38419e-007 0.2 -1.6
v 2.38419e-007 0.2 -2
v 2 0 2
v 2 0 -2
v 2 0.1 1.9
v 2 0.1 1.8
v 2 0.1 1.6
v 2 0.1 1.3
v 2 0.1 1.1
v 2 0.1 1
v 2 0.1 0.7
v 2 0.1 0.4
v 2 0.1 0.0999999
v 2 0.1 -2.38419e-007
v 2 0.2 2
v 2 0.2 1.9
v 2 0.2 1.8
v 2 0.2 1.6
v 2 0.2 1.3
v 2 0.2 1.1
v 2 0.2 1
v 2 0.2 0.7
v 2 0.2 0.4
v 2 0.2 0.0999999
v 2 0.2 -2.38419e-007
v 2 0.2 -2
v -2 0 2
v -2 0.2 2
v -1.7 0.1 2
v -1.7 0.2 2
v -1.6 0.1 2
v -1.6 0.2 2
v -1.3 0.1 2
v -1.3 0.2 2
v -0.8 0.1 2
v -0.8 0.2 2
v -0.5 0.1 2
v -0.5 0.2 2
v -0.3 0.1 2
v -0.3 0.2 2
v -0.2 0.1 2
v -0.2 0.2 2
v -0.0999999 0.1 2
v -0.0999999 0.2 2
v 2.38419e-007 0.1 2
v 2.38419e-007 0.2 2
v 2 0 2
v 2 0.2 2
v 0.1 0.1 -2.38419e-007
v 0.1 0.2 -2.38419e-007
v 0.3 0.1 -2.38419e-007
v 0.3 0.2 -2.38419e-007
v 0.4 0.1 -2.38419e-007
v 0.4 0.2 -2.38419e-007
v 0.5 0.1 -2.38419e-007
v 0.5 0.2 -2.38419e-007
v 0.8 0.1 -2.38419e-007
v 0.8 0.2 -2.38419e-007
v 1.3 0.1 -2.38419e-007
v 1.3 0.2 -2.38419e-007
v 1.6 0.1 -2.38419e-007
v 1.6 0.2 -2.38419e-007
v 1.7 0.1 -2.38419e-007
v 1.7 0.2 -2.38419e-007
v 1.8 0.1 -2.38419e-007
v 1.8 0.2 -2.38419e-007
v 2 0.1 -2.38419e-007
v 2 0.2 -2.38419e-007
v -2 0.1 -0.1
v -2 0.2 -0.1
v 2.38419e-007 0.1 -0.1
v 2.38419e-007 0.2 -0.1
v 2.38419e-007 0.1 0.0999999
v 2.38419e-007 0.2 0.0999999
v 2 0.1 0.0999999
v 2 0.2 0.0999999
v -2 0.1 -2.38419e-007
v -2 0.2 -2.38419e-007
v -1.7 0.1 -2.38419e-007
v -1.7 0.2 -2.38419e-007
v -1.6 0.1 -2.38419e-007
v -1.6 0.2 -2.38419e-007
v -1.3 0.1 -2.38419e-007
v -1.3 0.2 -2.38419e-007
v -0.8 0.1 -2.38419e-007
v -0.8 0.2 -2.38419e-007
v -0.5 0.1 -2.38419e-007
v -0.5 0.2 -2.38419e-007
v -0.3 0.1 -2.38419e-007
v -0.3 0.2 -2.38419e-007
v -0.2 0.1 -2.38419e-007
v -0.2 0.2 -2.38419e-007
v -0.0999999 0.1 -2.38419e-007
v -0.0999999 0.2 -2.38419e-007
v -2 0 -2
v -2 0.2 -2
v 2.38419e-007 0.1 -2
v 2.38419e-007 0.2 -2
v 0.1 0.1 -2
v 0.1 0.2 -2
v 0.3 0 -2
v 0.3 0.2 -2
v 0.4 0 -2
v 0.4 0.2 -2
v 0.5 0.1 -2
v 0.5 0.2 -2
v 0.8 0.1 -2
v 0.8 0.2 -2
v 1.3 0.1 -2
v 1.3 0.2 -2
v 1.6 0.1 -2
v 1.6 0.2 -2
v 1.7 0.1 -2
v 1.7 0.2 -2
v 1.8 0.1 -2
v 1.8 0.2 -2
v 2 0 -2
v 2 0.2 -2
v -2 0 2
v 2 0 2
v 0.3 0 -2.38419e-007
v 0.4 0 -2.38419e-007
v -2 0 -2
v 0.3 0 -2
v 0.4 0 -2
v 2 0 -2
v -0.0999999 0.1 2
v 2.38419e-007 0.1 2
v 2.38419e-007 0.1 1.9
v 2.38419e-007 0.1 1.8
v 2.38419e-007 0.1 1.6
v 2.38419e-007 0.1 1.3
v 2.38419e-007 0.1 1.1
v 2.38419e-007 0.1 1
v 2.38419e-007 0.1 0.7
v 2.38419e-007 0.1 0.4
v 2.38419e-007 0.1 0.0999999
v 2 0.1 0.0999999
v -2 0.1 -2.38419e-007
v -1.7 0.1 -2.38419e-007
v -1.6 0.1 -2.38419e-007
v -1.3 0.1 -2.38419e-007
v -0.8 0.1 -2.38419e-007
v -0.5 0.1 -2.38419e-007
v -0.3 0.1 -2.38419e-007
v -0.2 0.1 -2.38419e-007
v -0.0999999 0.1 -2.38419e-007
v 0.1 0.1 -2.38419e-007
v 0.3 0.1 -2.38419e-007
v 0.4 0.1 -2.38419e-007
v 0.5 0.1 -2.38419e-007
v 0.8 0.1 -2.38419e-007
v 1.3 0.1 -2.38419e-007
v 1.6 0.1 -2.38419e-007
v 1.7 0.1 -2.38419e-007
v 1.8 0.1 -2.38419e-007
v 2 0.1 -2.38419e-007
v -2 0.1 -0.1
v 2.38419e-007 0.1 -0.1
v 2.38419e-007 0.1 -0.3
v 2.38419e-007 0.1 -0.4
v 2.38419e-007 0.1 -0.5
v 2.38419e-007 0.1 -0.8
v 2.38419e-007 0.1 -1
v 2.38419e-007 0.1 -1.1
v 2.38419e-007 0.1 -1.3
v 2.38419e-007 0.1 -1.6
v 2.38419e-007 0.1 -2
v 0.1 0.1 -2
v -2 0.2 2
v -1.7 0.2 2
v -1.6 0.2 2
v -1.3 0.2 2
v -0.8 0.2 2
v -0.5 0.2 2
v -0.3 0.2 2
v -0.2 0.2 2
v -0.0999999 0.2 2
v 2.38419e-007 0.2 2
v 2 0.2 2
v 2.38419e-007 0.2 1.9
v 2 0.2 1.9
v 2.38419e-007 0.2 1.8
v 2 0.2 1.8
v 2.38419e-007 0.2 1.6
v 2 0.2 1.6
v 2.38419e-007 0.2 1.3
v 2 0.2 1.3
v 2.38419e-007 0.2 1.1
v 2 0.2 1.1
v 2.38419e-007 0.2 1
v 2 0.2 1
v 2.38419e-007 0.2 0.7
v 2 0.2 0.7
v 2.38419e-007 0.2 0.4
v 2 0.2 0.4
v 2.38419e-007 0.2 0.0999999
v 2 0.2 0.0999999
v -2 0.2 -2.38419e-007
v -1.7 0.2 -2.38419e-007
v -1.6 0.2 -2.38419e-007
v -1.3 0.2 -2.38419e-007
v -0.8 0.2 -2.38419e-007
v -0.5 0.2 -2.38419e-007
v -0.3 0.2 -2.38419e-007
v -0.2 0.2 -2.38419e-007
v -0.0999999 0.2 -2.38419e-007
v 0.1 0.2 -2.38419e-007
v 0.3 0.2 -2.38419e-007
v 0.4 0.2 -2.38419e-007
v 0.5 0.2 -2.38419e-007
v 0.8 0.2 -2.38419e-007
v 1.3 0.2 -2.38419e-007
v 1.6 0.2 -2.38419e-007
v 1.7 0.2 -2.38419e-007
v 1.8 0.2 -2.38419e-007
v 2 0.2 -2.38419e-007
v -2 0.2 -0.1
v 2.38419e-007 0.2 -0.1
v -2 0.2 -0.3
v 2.38419e-007 0.2 -0.3
v -2 0.2 -0.4
v 2.38419e-007 0.2 -0.4
v -2 0.2 -0.5
v 2.38419e-007 0.2 -0.5
v -2 0.2 -0.8
v 2.38419e-007 0.2 -0.8
v -2 0.2 -1
v 2.38419e-007 0.2 -1
v -2 0.2 -1.1
v 2.38419e-007 0.2 -1.1
v -2 0.2 -1.3
v 2.38419e-007 0.2 -1.3
v -2 0.2 -1.6
v 2.38419e-007 0.2 -1.6
v -2 0.2 -2
v 2.38419e-007 0.2 -2
v 0.1 0.2 -2
v 0.3 0.2 -2
v 0.4 0.2 -2
v 0.5 0.2 -2
v 0.8 0.2 -2
v 1.3 0.2 -2
v 1.6 0.2 -2
v 1.7 0.2 -2
v 1.8 0.2 -2
v 2 0.2 -2

# faces
f 3/2/1 2/2/1 1/2/1
f 4/2/1 2/2/1 3/2/1
f 5/2/1 2/2/1 4/2/1
f 6/2/1 2/2/1 5/2/1
f 7/2/1 2/2/1 6/2/1
f 8/2/1 2/2/1 7/2/1
f 9/2/1 2/2/1 8/2/1
f 10/2/1 2/2/1 9/2/1
f 11/2/1 2/2/1 10/2/1
f 12/2/1 2/2/1 11/2/1
f 13/2/1 3/2/1 1/2/1
f 14/2/1 3/2/1 13/2/1
f 15/2/1 5/2/1 4/2/1
f 16/1/1 6/1/1 5/1/1
f 16/2/1 5/2/1 15/2/1
f 17/2/1 7/2/1 6/2/1
f 17/1/1 6/1/1 16/1/1
f 18/3/1 8/3/1 7/3/1
f 18/2/1 7/2/1 17/2/1
f 19/2/1 9/2/1 8/2/1
f 19/3/1 8/3/1 18/3/1
f 20/1/1 10/1/1 9/1/1
f 20/2/1 9/2/1 19/2/1
f 21/2/1 11/2/1 10/2/1
f 21/1/1 10/1/1 20/1/1
f 22/3/1 12/3/1 11/3/1
f 22/2/1 11/2/1 21/2/1
f 23/2/1 2/2/1 12/2/1
f 23/3/1 12/3/1 22/3/1
f 24/2/1 2/2/1 23/2/1
f 35/2/1 26/2/1 25/2/1
f 36/1/1 27/1/1 26/1/1
f 36/2/1 26/2/1 35/2/1
f 37/2/1 28/2/1 27/2/1
f 37/1/1 27/1/1 36/1/1
f 38/3/1 29/3/1 28/3/1
f 38/2/1 28/2/1 37/2/1
f 39/2/1 30/2/1 29/2/1
f 39/3/1 29/3/1 38/3/1
f 40/1/1 31/1/1 30/1/1
f 40/2/1 30/2/1 39/2/1
f 41/2/1 32/2/1 31/2/1
f 41/1/1 31/1/1 40/1/1
f 42/3/1 33/3/1 32/3/1
f 42/2/1 32/2/1 41/2/1
f 43/2/1 34/2/1 33/2/1
f 43/3/1 33/3/1 42/3/1
f 44/2/1 34/2/1 43/2/1
f 47/2/1 46/2/1 45/2/1
f 48/2/1 46/2/1 47/2/1
f 49/2/2 50/2/2 51/2/2
f 51/2/2 50/2/2 52/2/2
f 53/2/2 54/2/2 63/2/2
f 54/1/2 55/1/2 64/1/2
f 63/2/2 54/2/2 64/2/2
f 55/2/2 56/2/2 65/2/2
f 64/1/2 55/1/2 65/1/2
f 56/3/2 57/3/2 66/3/2
f 65/2/2 56/2/2 66/2/2
f 57/2/2 58/2/2 67/2/2
f 66/3/2 57/3/2 67/3/2
f 58/1/2 59/1/2 68/1/2
f 67/2/2 58/2/2 68/2/2
f 59/2/2 60/2/2 69/2/2
f 68/1/2 59/1/2 69/1/2
f 60/3/2 61/3/2 70/3/2
f 69/2/2 60/2/2 70/2/2
f 61/2/2 62/2/2 71/2/2
f 70/3/2 61/3/2 71/3/2
f 71/2/2 62/2/2 72/2/2
f 73/2/2 74/2/2 75/2/2
f 75/2/2 74/2/2 76/2/2
f 76/2/2 74/2/2 77/2/2
f 77/2/2 74/2/2 78/2/2
f 78/2/2 74/2/2 79/2/2
f 79/2/2 74/2/2 80/2/2
f 80/2/2 74/2/2 81/2/2
f 81/2/2 74/2/2 82/2/2
f 82/2/2 74/2/2 83/2/2
f 83/2/2 74/2/2 84/2/2
f 73/2/2 75/2/2 85/2/2
f 75/1/2 76/1/2 86/1/2
f 85/2/2 75/2/2 86/2/2
f 76/2/2 77/2/2 87/2/2
f 86/1/2 76/1/2 87/1/2
f 77/3/2 78/3/2 88/3/2
f 87/2/2 77/2/2 88/2/2
f 78/2/2 79/2/2 89/2/2
f 88/3/2 78/3/2 89/3/2
f 79/1/2 80/1/2 90/1/2
f 89/2/2 79/2/2 90/2/2
f 80/2/2 81/2/2 91/2/2
f 90/1/2 80/1/2 91/1/2
f 81/3/2 82/3/2 92/3/2
f 91/2/2 81/2/2 92/2/2
f 82/2/2 83/2/2 93/2/2
f 92/3/2 82/3/2 93/3/2
f 93/2/2 83/2/2 94/2/2
f 84/2/2 74/2/2 95/2/2
f 95/2/2 74/2/2 96/2/2
f 99/2/3 98/2/3 97/2/3
f 100/2/3 98/2/3 99/2/3
f 101/2/3 99/2/3 97/2/3
f 101/1/3 100/1/3 99/1/3
f 102/1/3 100/1/3 101/1/3
f 103/2/3 101/2/3 97/2/3
f 103/3/3 102/3/3 101/3/3
f 104/3/3 102/3/3 103/3/3
f 105/2/3 103/2/3 97/2/3
f 105/2/3 104/2/3 103/2/3
f 106/2/3 104/2/3 105/2/3
f 107/2/3 105/2/3 97/2/3
f 107/3/3 106/3/3 105/3/3
f 108/3/3 106/3/3 107/3/3
f 109/2/3 107/2/3 97/2/3
f 109/2/3 108/2/3 107/2/3
f 110/2/3 108/2/3 109/2/3
f 111/2/3 109/2/3 97/2/3
f 111/1/3 110/1/3 109/1/3
f 112/1/3 110/1/3 111/1/3
f 113/2/3 111/2/3 97/2/3
f 113/2/3 112/2/3 111/2/3
f 114/2/3 112/2/3 113/2/3
f 115/2/3 113/2/3 97/2/3
f 117/2/3 115/2/3 97/2/3
f 117/2/3 116/2/3 115/2/3
f 118/2/3 116/2/3 117/2/3
f 121/2/3 120/2/3 119/2/3
f 122/2/3 120/2/3 121/2/3
f 123/1/3 122/1/3 121/1/3
f 124/1/3 122/1/3 123/1/3
f 125/2/3 124/2/3 123/2/3
f 126/2/3 124/2/3 125/2/3
f 127/3/3 126/3/3 125/3/3
f 128/3/3 126/3/3 127/3/3
f 129/2/3 128/2/3 127/2/3
f 130/2/3 128/2/3 129/2/3
f 131/3/3 130/3/3 129/3/3
f 132/3/3 130/3/3 131/3/3
f 133/2/3 132/2/3 131/2/3
f 134/2/3 132/2/3 133/2/3
f 135/1/3 134/1/3 133/1/3
f 136/1/3 134/1/3 135/1/3
f 137/2/3 136/2/3 135/2/3
f 138/2/3 136/2/3 137/2/3
f 141/2/3 140/2/3 139/2/3
f 142/2/3 140/2/3 141/2/3
f 143/2/4 144/2/4 145/2/4
f 145/2/4 144/2/4 146/2/4
f 147/2/4 148/2/4 149/2/4
f 149/2/4 148/2/4 150/2/4
f 149/1/4 150/1/4 151/1/4
f 151/1/4 150/1/4 152/1/4
f 151/3/4 152/3/4 153/3/4
f 153/3/4 152/3/4 154/3/4
f 153/2/4 154/2/4 155/2/4
f 155/2/4 154/2/4 156/2/4
f 155/3/4 156/3/4 157/3/4
f 157/3/4 156/3/4 158/3/4
f 157/2/4 158/2/4 159/2/4
f 159/2/4 158/2/4 160/2/4
f 159/1/4 160/1/4 161/1/4
f 161/1/4 160/1/4 162/1/4
f 161/2/4 162/2/4 163/2/4
f 163/2/4 162/2/4 164/2/4
f 165/2/4 166/2/4 167/2/4
f 167/2/4 166/2/4 168/2/4
f 165/2/4 167/2/4 169/2/4
f 165/2/4 169/2/4 171/2/4
f 169/2/4 170/2/4 171/2/4
f 171/2/4 170/2/4 172/2/4
f 171/1/4 172/1/4 173/1/4
f 173/1/4 172/1/4 174/1/4
f 173/2/4 174/2/4 175/2/4
f 175/2/4 174/2/4 176/2/4
f 173/2/4 175/2/4 177/2/4
f 175/3/4 176/3/4 177/3/4
f 177/3/4 176/3/4 178/3/4
f 173/2/4 177/2/4 179/2/4
f 177/2/4 178/2/4 179/2/4
f 179/2/4 178/2/4 180/2/4
f 173/2/4 179/2/4 181/2/4
f 179/3/4 180/3/4 181/3/4
f 181/3/4 180/3/4 182/3/4
f 173/2/4 181/2/4 183/2/4
f 181/2/4 182/2/4 183/2/4
f 183/2/4 182/2/4 184/2/4
f 173/2/4 183/2/4 185/2/4
f 183/1/4 184/1/4 185/1/4
f 185/1/4 184/1/4 186/1/4
f 173/2/4 185/2/4 187/2/4
f 185/2/4 186/2/4 187/2/4
f 187/2/4 186/2/4 188/2/4
f 191/2/5 190/2/5 189/2/5
f 192/2/5 190/2/5 191/2/5
f 193/2/5 191/2/5 189/2/5
f 194/1/5 192/1/5 191/1/5
f 194/2/5 191/2/5 193/2/5
f 195/2/5 190/2/5 192/2/5
f 195/1/5 192/1/5 194/1/5
f 196/2/5 190/2/5 195/2/5
f 197/2/6 198/2/6 199/2/6
f 197/2/6 199/2/6 200/2/6
f 197/2/6 200/2/6 201/2/6
f 197/2/6 201/2/6 202/2/6
f 197/2/6 202/2/6 203/2/6
f 197/2/6 203/2/6 204/2/6
f 197/2/6 204/2/6 205/2/6
f 197/2/6 205/2/6 206/2/6
f 197/2/6 206/2/6 207/2/6
f 197/2/6 207/2/6 217/2/6
f 207/2/6 208/2/6 217/2/6
f 217/2/6 208/2/6 218/2/6
f 218/2/6 208/2/6 219/2/6
f 219/2/6 208/2/6 220/2/6
f 220/2/6 208/2/6 221/2/6
f 221/2/6 208/2/6 222/2/6
f 222/2/6 208/2/6 223/2/6
f 223/2/6 208/2/6 224/2/6
f 224/2/6 208/2/6 225/2/6
f 225/2/6 208/2/6 226/2/6
f 226/2/6 208/2/6 227/2/6
f 215/2/6 216/2/6 228/2/6
f 214/2/6 215/2/6 228/2/6
f 217/2/6 218/2/6 228/2/6
f 216/2/6 217/2/6 228/2/6
f 209/2/6 210/2/6 228/2/6
f 213/2/6 214/2/6 228/2/6
f 212/2/6 213/2/6 228/2/6
f 211/2/6 212/2/6 228/2/6
f 210/2/6 211/2/6 228/2/6
f 228/2/6 218/2/6 229/2/6
f 229/2/6 218/2/6 230/2/6
f 230/2/6 218/2/6 231/2/6
f 231/2/6 218/2/6 232/2/6
f 232/2/6 218/2/6 233/2/6
f 233/2/6 218/2/6 234/2/6
f 234/2/6 218/2/6 235/2/6
f 235/2/6 218/2/6 236/2/6
f 236/2/6 218/2/6 237/2/6
f 237/2/6 218/2/6 238/2/6
f 238/2/6 218/2/6 239/2/6
f 249/2/6 250/2/6 251/2/6
f 251/2/6 250/2/6 252/2/6
f 251/1/6 252/1/6 253/1/6
f 253/1/6 252/1/6 254/1/6
f 253/2/6 254/2/6 255/2/6
f 255/2/6 254/2/6 256/2/6
f 255/3/6 256/3/6 257/3/6
f 257/3/6 256/3/6 258/3/6
f 257/2/6 258/2/6 259/2/6
f 259/2/6 258/2/6 260/2/6
f 259/1/6 260/1/6 261/1/6
f 261/1/6 260/1/6 262/1/6
f 261/2/6 262/2/6 263/2/6
f 263/2/6 262/2/6 264/2/6
f 263/3/6 264/3/6 265/3/6
f 265/3/6 264/3/6 266/3/6
f 265/2/6 266/2/6 267/2/6
f 267/2/6 266/2/6 268/2/6
f 240/2/6 241/2/6 269/2/6
f 241/1/6 242/1/6 270/1/6
f 269/2/6 241/2/6 270/2/6
f 242/3/6 243/3/6 271/3/6
f 270/1/6 242/1/6 271/1/6
f 243/2/6 244/2/6 272/2/6
f 271/3/6 243/3/6 272/3/6
f 244/3/6 245/3/6 273/3/6
f 272/2/6 244/2/6 273/2/6
f 245/2/6 246/2/6 274/2/6
f 273/3/6 245/3/6 274/3/6
f 246/1/6 247/1/6 275/1/6
f 274/2/6 246/2/6 275/2/6
f 247/2/6 248/2/6 276/2/6
f 275/1/6 247/1/6 276/1/6
f 276/2/6 248/2/6 277/2/6
f 288/2/6 289/2/6 290/2/6
f 290/2/6 289/2/6 291/2/6
f 290/1/6 291/1/6 292/1/6
f 292/1/6 291/1/6 293/1/6
f 292/2/6 293/2/6 294/2/6
f 294/2/6 293/2/6 295/2/6
f 294/3/6 295/3/6 296/3/6
f 296/3/6 295/3/6 297/3/6
f 296/2/6 297/2/6 298/2/6
f 298/2/6 297/2/6 299/2/6
f 298/1/6 299/1/6 300/1/6
f 300/1/6 299/1/6 301/1/6
f 300/2/6 301/2/6 302/2/6
f 302/2/6 301/2/6 303/2/6
f 302/3/6 303/3/6 304/3/6
f 304/3/6 303/3/6 305/3/6
f 304/2/6 305/2/6 306/2/6
f 306/2/6 305/2/6 307/2/6
f 278/2/6 279/2/6 308/2/6
f 279/1/6 280/1/6 309/1/6
f 308/2/6 279/2/6 309/2/6
f 280/2/6 281/2/6 310/2/6
f 309/1/6 280/1/6 310/1/6
f 281/3/6 282/3/6 311/3/6
f 310/2/6 281/2/6 311/2/6
f 282/2/6 283/2/6 312/2/6
f 311/3/6 282/3/6 312/3/6
f 283/3/6 284/3/6 313/3/6
f 312/2/6 283/2/6 313/2/6
f 284/2/6 285/2/6 314/2/6
f 313/3/6 284/3/6 314/3/6
f 285/1/6 286/1/6 315/1/6
f 314/2/6 285/2/6 315/2/6
f 286/2/6 287/2/6 316/2/6
f 315/1/6 286/1/6 316/1/6
f 316/2/6 287/2/6 317/2/6
