# MagicaVoxel @ Ephtracy

# group
o 

# material
mtllib bullet1.mtl
usemtl palette

# normals
vn -1 0 0
vn 1 0 0
vn 0 0 1
vn 0 0 -1
vn 0 -1 0
vn 0 1 0

# texcoords
vt 0.0136719 0.5
vt 0.0449219 0.5

# verts
v -0.4 0.1 0.1
v -0.4 0.1 -0.1
v -0.4 0.2 0.1
v -0.4 0.2 -0.1
v -0.3 0 0.1
v -0.3 0 -0.1
v -0.3 0.1 0.1
v -0.3 0.1 -0.1
v -0.3 0.2 0.1
v -0.3 0.2 -0.1
v -0.3 0.3 0.1
v -0.3 0.3 -0.1
v -0.2 0.1 0.2
v -0.2 0.1 0.1
v -0.2 0.1 -0.1
v -0.2 0.1 -0.2
v -0.2 0.2 0.2
v -0.2 0.2 0.1
v -0.2 0.2 -0.1
v -0.2 0.2 -0.2
v 0.4 0 0.1
v 0.4 0 -0.1
v 0.4 0.1 0.2
v 0.4 0.1 0.1
v 0.4 0.1 -0.1
v 0.4 0.1 -0.2
v 0.4 0.2 0.2
v 0.4 0.2 0.1
v 0.4 0.2 -0.1
v 0.4 0.2 -0.2
v 0.4 0.3 0.1
v 0.4 0.3 -0.1
v -0.2 0.1 0.2
v -0.2 0.2 0.2
v -0.1 0.1 0.2
v -0.1 0.2 0.2
v 0.4 0.1 0.2
v 0.4 0.2 0.2
v -0.4 0.1 0.1
v -0.4 0.2 0.1
v -0.3 0 0.1
v -0.3 0.1 0.1
v -0.3 0.2 0.1
v -0.3 0.3 0.1
v -0.2 0.1 0.1
v -0.2 0.2 0.1
v -0.1 0 0.1
v -0.1 0.1 0.1
v -0.1 0.2 0.1
v -0.1 0.3 0.1
v 0.4 0 0.1
v 0.4 0.1 0.1
v 0.4 0.2 0.1
v 0.4 0.3 0.1
v -0.4 0.1 -0.1
v -0.4 0.2 -0.1
v -0.3 0 -0.1
v -0.3 0.1 -0.1
v -0.3 0.2 -0.1
v -0.3 0.3 -0.1
v -0.2 0.1 -0.1
v -0.2 0.2 -0.1
v -0.1 0 -0.1
v -0.1 0.1 -0.1
v -0.1 0.2 -0.1
v -0.1 0.3 -0.1
v 0.4 0 -0.1
v 0.4 0.1 -0.1
v 0.4 0.2 -0.1
v 0.4 0.3 -0.1
v -0.2 0.1 -0.2
v -0.2 0.2 -0.2
v -0.1 0.1 -0.2
v -0.1 0.2 -0.2
v 0.4 0.1 -0.2
v 0.4 0.2 -0.2
v -0.3 0 0.1
v -0.1 0 0.1
v 0.4 0 0.1
v -0.3 0 -0.1
v -0.1 0 -0.1
v 0.4 0 -0.1
v -0.2 0.1 0.2
v -0.1 0.1 0.2
v 0.4 0.1 0.2
v -0.4 0.1 0.1
v -0.3 0.1 0.1
v -0.2 0.1 0.1
v -0.1 0.1 0.1
v 0.4 0.1 0.1
v -0.4 0.1 -0.1
v -0.3 0.1 -0.1
v -0.2 0.1 -0.1
v -0.1 0.1 -0.1
v 0.4 0.1 -0.1
v -0.2 0.1 -0.2
v -0.1 0.1 -0.2
v 0.4 0.1 -0.2
v -0.2 0.2 0.2
v -0.1 0.2 0.2
v 0.4 0.2 0.2
v -0.4 0.2 0.1
v -0.3 0.2 0.1
v -0.2 0.2 0.1
v -0.1 0.2 0.1
v 0.4 0.2 0.1
v -0.4 0.2 -0.1
v -0.3 0.2 -0.1
v -0.2 0.2 -0.1
v -0.1 0.2 -0.1
v 0.4 0.2 -0.1
v -0.2 0.2 -0.2
v -0.1 0.2 -0.2
v 0.4 0.2 -0.2
v -0.3 0.3 0.1
v -0.1 0.3 0.1
v 0.4 0.3 0.1
v -0.3 0.3 -0.1
v -0.1 0.3 -0.1
v 0.4 0.3 -0.1

# faces
f 3/2/1 2/2/1 1/2/1
f 4/2/1 2/2/1 3/2/1
f 7/2/1 6/2/1 5/2/1
f 8/2/1 6/2/1 7/2/1
f 11/2/1 10/2/1 9/2/1
f 12/2/1 10/2/1 11/2/1
f 17/2/1 14/2/1 13/2/1
f 18/2/1 14/2/1 17/2/1
f 19/2/1 16/2/1 15/2/1
f 20/2/1 16/2/1 19/2/1
f 21/1/2 22/1/2 24/1/2
f 24/1/2 22/1/2 25/1/2
f 23/1/2 24/1/2 27/1/2
f 25/1/2 26/1/2 27/1/2
f 24/1/2 25/1/2 27/1/2
f 27/1/2 26/1/2 28/1/2
f 28/1/2 26/1/2 29/1/2
f 29/1/2 26/1/2 30/1/2
f 28/1/2 29/1/2 31/1/2
f 31/1/2 29/1/2 32/1/2
f 35/2/3 34/2/3 33/2/3
f 36/2/3 34/2/3 35/2/3
f 37/1/3 36/1/3 35/1/3
f 38/1/3 36/1/3 37/1/3
f 42/2/3 40/2/3 39/2/3
f 43/2/3 40/2/3 42/2/3
f 45/2/3 42/2/3 41/2/3
f 45/2/3 44/2/3 43/2/3
f 45/2/3 43/2/3 42/2/3
f 46/2/3 44/2/3 45/2/3
f 47/2/3 45/2/3 41/2/3
f 48/2/3 45/2/3 47/2/3
f 49/2/3 44/2/3 46/2/3
f 50/2/3 44/2/3 49/2/3
f 51/1/3 48/1/3 47/1/3
f 52/1/3 48/1/3 51/1/3
f 53/1/3 50/1/3 49/1/3
f 54/1/3 50/1/3 53/1/3
f 55/2/4 56/2/4 58/2/4
f 58/2/4 56/2/4 59/2/4
f 57/2/4 58/2/4 61/2/4
f 59/2/4 60/2/4 61/2/4
f 58/2/4 59/2/4 61/2/4
f 61/2/4 60/2/4 62/2/4
f 57/2/4 61/2/4 63/2/4
f 63/2/4 61/2/4 64/2/4
f 62/2/4 60/2/4 65/2/4
f 65/2/4 60/2/4 66/2/4
f 63/1/4 64/1/4 67/1/4
f 67/1/4 64/1/4 68/1/4
f 65/1/4 66/1/4 69/1/4
f 69/1/4 66/1/4 70/1/4
f 71/2/4 72/2/4 73/2/4
f 73/2/4 72/2/4 74/2/4
f 73/1/4 74/1/4 75/1/4
f 75/1/4 74/1/4 76/1/4
f 80/2/5 78/2/5 77/2/5
f 81/1/5 79/1/5 78/1/5
f 81/2/5 78/2/5 80/2/5
f 82/1/5 79/1/5 81/1/5
f 88/2/5 84/2/5 83/2/5
f 89/1/5 85/1/5 84/1/5
f 89/2/5 84/2/5 88/2/5
f 90/1/5 85/1/5 89/1/5
f 91/2/5 87/2/5 86/2/5
f 92/2/5 87/2/5 91/2/5
f 96/2/5 94/2/5 93/2/5
f 97/1/5 95/1/5 94/1/5
f 97/2/5 94/2/5 96/2/5
f 98/1/5 95/1/5 97/1/5
f 99/2/6 100/2/6 104/2/6
f 100/1/6 101/1/6 105/1/6
f 104/2/6 100/2/6 105/2/6
f 105/1/6 101/1/6 106/1/6
f 102/2/6 103/2/6 107/2/6
f 107/2/6 103/2/6 108/2/6
f 109/2/6 110/2/6 112/2/6
f 110/1/6 111/1/6 113/1/6
f 112/2/6 110/2/6 113/2/6
f 113/1/6 111/1/6 114/1/6
f 115/2/6 116/2/6 118/2/6
f 116/1/6 117/1/6 119/1/6
f 118/2/6 116/2/6 119/2/6
f 119/1/6 117/1/6 120/1/6
