# MagicaVoxel @ Ephtracy

# group
o 

# material
mtllib coin.mtl
usemtl palette

# normals
vn -1 0 0
vn 1 0 0
vn 0 0 1
vn 0 0 -1
vn 0 -1 0
vn 0 1 0

# texcoords
vt 0.0175781 0.5
vt 0.0214844 0.5

# verts
v -0.7 0.4 0.2
v -0.7 0.4 -0.1
v -0.7 1.2 0.2
v -0.7 1.2 -0.1
v -0.6 0.2 0.2
v -0.6 0.2 -0.1
v -0.6 0.4 0.2
v -0.6 0.4 -0.1
v -0.6 1.2 0.2
v -0.6 1.2 -0.1
v -0.6 1.4 0.2
v -0.6 1.4 -0.1
v -0.5 0.1 0.2
v -0.5 0.1 -0.1
v -0.5 0.2 0.2
v -0.5 0.2 -0.1
v -0.5 1.4 0.2
v -0.5 1.4 -0.1
v -0.5 1.5 0.2
v -0.5 1.5 -0.1
v -0.4 0.4 0.2
v -0.4 0.4 0.1
v -0.4 0.4 0
v -0.4 0.4 -0.1
v -0.4 1.2 0.2
v -0.4 1.2 0.1
v -0.4 1.2 0
v -0.4 1.2 -0.1
v -0.3 0 0.2
v -0.3 0 -0.1
v -0.3 0.1 0.2
v -0.3 0.1 -0.1
v -0.3 0.3 0.2
v -0.3 0.3 0.1
v -0.3 0.3 0
v -0.3 0.3 -0.1
v -0.3 0.4 0.2
v -0.3 0.4 0.1
v -0.3 0.4 0
v -0.3 0.4 -0.1
v -0.3 1.2 0.2
v -0.3 1.2 0.1
v -0.3 1.2 0
v -0.3 1.2 -0.1
v -0.3 1.3 0.2
v -0.3 1.3 0.1
v -0.3 1.3 0
v -0.3 1.3 -0.1
v -0.3 1.5 0.2
v -0.3 1.5 -0.1
v -0.3 1.6 0.2
v -0.3 1.6 -0.1
v -0.1 0.7 0.2
v -0.1 0.7 0.1
v -0.1 0.7 0
v -0.1 0.7 -0.1
v -0.1 0.9 0.2
v -0.1 0.9 0.1
v -0.1 0.9 0
v -0.1 0.9 -0.1
v 0.2 0.6 0.2
v 0.2 0.6 0.1
v 0.2 0.6 0
v 0.2 0.6 -0.1
v 0.2 1 0.2
v 0.2 1 0.1
v 0.2 1 0
v 0.2 1 -0.1
v 0.3 0.2 0.2
v 0.3 0.2 0.1
v 0.3 0.2 0
v 0.3 0.2 -0.1
v 0.3 0.3 0.2
v 0.3 0.3 0.1
v 0.3 0.3 0
v 0.3 0.3 -0.1
v 0.3 1.3 0.2
v 0.3 1.3 0.1
v 0.3 1.3 0
v 0.3 1.3 -0.1
v 0.3 1.4 0.2
v 0.3 1.4 0.1
v 0.3 1.4 0
v 0.3 1.4 -0.1
v 0.4 0.3 0.2
v 0.4 0.3 0.1
v 0.4 0.3 0
v 0.4 0.3 -0.1
v 0.4 0.4 0.2
v 0.4 0.4 0.1
v 0.4 0.4 0
v 0.4 0.4 -0.1
v 0.4 1.2 0.2
v 0.4 1.2 0.1
v 0.4 1.2 0
v 0.4 1.2 -0.1
v 0.4 1.3 0.2
v 0.4 1.3 0.1
v 0.4 1.3 0
v 0.4 1.3 -0.1
v 0.5 0.4 0.2
v 0.5 0.4 0.1
v 0.5 0.4 0
v 0.5 0.4 -0.1
v 0.5 1.2 0.2
v 0.5 1.2 0.1
v 0.5 1.2 0
v 0.5 1.2 -0.1
v -0.5 0.4 0.2
v -0.5 0.4 0.1
v -0.5 0.4 0
v -0.5 0.4 -0.1
v -0.5 1.2 0.2
v -0.5 1.2 0.1
v -0.5 1.2 0
v -0.5 1.2 -0.1
v -0.4 0.3 0.2
v -0.4 0.3 0.1
v -0.4 0.3 0
v -0.4 0.3 -0.1
v -0.4 0.4 0.2
v -0.4 0.4 0.1
v -0.4 0.4 0
v -0.4 0.4 -0.1
v -0.4 1.2 0.2
v -0.4 1.2 0.1
v -0.4 1.2 0
v -0.4 1.2 -0.1
v -0.4 1.3 0.2
v -0.4 1.3 0.1
v -0.4 1.3 0
v -0.4 1.3 -0.1
v -0.3 0.2 0.2
v -0.3 0.2 0.1
v -0.3 0.2 0
v -0.3 0.2 -0.1
v -0.3 0.3 0.2
v -0.3 0.3 0.1
v -0.3 0.3 0
v -0.3 0.3 -0.1
v -0.3 1.3 0.2
v -0.3 1.3 0.1
v -0.3 1.3 0
v -0.3 1.3 -0.1
v -0.3 1.4 0.2
v -0.3 1.4 0.1
v -0.3 1.4 0
v -0.3 1.4 -0.1
v -0.2 0.6 0.2
v -0.2 0.6 0.1
v -0.2 0.6 0
v -0.2 0.6 -0.1
v -0.2 1 0.2
v -0.2 1 0.1
v -0.2 1 0
v -0.2 1 -0.1
v 0.1 0.7 0.2
v 0.1 0.7 0.1
v 0.1 0.7 0
v 0.1 0.7 -0.1
v 0.1 0.9 0.2
v 0.1 0.9 0.1
v 0.1 0.9 0
v 0.1 0.9 -0.1
v 0.3 0 0.2
v 0.3 0 -0.1
v 0.3 0.1 0.2
v 0.3 0.1 -0.1
v 0.3 0.3 0.2
v 0.3 0.3 0.1
v 0.3 0.3 0
v 0.3 0.3 -0.1
v 0.3 0.4 0.2
v 0.3 0.4 0.1
v 0.3 0.4 0
v 0.3 0.4 -0.1
v 0.3 1.2 0.2
v 0.3 1.2 0.1
v 0.3 1.2 0
v 0.3 1.2 -0.1
v 0.3 1.3 0.2
v 0.3 1.3 0.1
v 0.3 1.3 0
v 0.3 1.3 -0.1
v 0.3 1.5 0.2
v 0.3 1.5 -0.1
v 0.3 1.6 0.2
v 0.3 1.6 -0.1
v 0.4 0.4 0.2
v 0.4 0.4 0.1
v 0.4 0.4 0
v 0.4 0.4 -0.1
v 0.4 1.2 0.2
v 0.4 1.2 0.1
v 0.4 1.2 0
v 0.4 1.2 -0.1
v 0.5 0.1 0.2
v 0.5 0.1 -0.1
v 0.5 0.2 0.2
v 0.5 0.2 -0.1
v 0.5 1.4 0.2
v 0.5 1.4 -0.1
v 0.5 1.5 0.2
v 0.5 1.5 -0.1
v 0.6 0.2 0.2
v 0.6 0.2 -0.1
v 0.6 0.4 0.2
v 0.6 0.4 -0.1
v 0.6 1.2 0.2
v 0.6 1.2 -0.1
v 0.6 1.4 0.2
v 0.6 1.4 -0.1
v 0.7 0.4 0.2
v 0.7 0.4 -0.1
v 0.7 1.2 0.2
v 0.7 1.2 -0.1
v -0.7 0.4 0.2
v -0.7 1.2 0.2
v -0.6 0.2 0.2
v -0.6 0.4 0.2
v -0.6 1.2 0.2
v -0.6 1.4 0.2
v -0.5 0.1 0.2
v -0.5 0.2 0.2
v -0.5 0.4 0.2
v -0.5 1.2 0.2
v -0.5 1.4 0.2
v -0.5 1.5 0.2
v -0.4 0.3 0.2
v -0.4 0.4 0.2
v -0.4 1.2 0.2
v -0.4 1.3 0.2
v -0.3 0 0.2
v -0.3 0.1 0.2
v -0.3 0.2 0.2
v -0.3 0.3 0.2
v -0.3 0.4 0.2
v -0.3 1.2 0.2
v -0.3 1.3 0.2
v -0.3 1.4 0.2
v -0.3 1.5 0.2
v -0.3 1.6 0.2
v -0.2 0.6 0.2
v -0.2 1 0.2
v -0.1 0.7 0.2
v -0.1 0.9 0.2
v 0.1 0.7 0.2
v 0.1 0.9 0.2
v 0.2 0.6 0.2
v 0.2 1 0.2
v 0.3 0 0.2
v 0.3 0.1 0.2
v 0.3 0.2 0.2
v 0.3 0.3 0.2
v 0.3 0.4 0.2
v 0.3 1.2 0.2
v 0.3 1.3 0.2
v 0.3 1.4 0.2
v 0.3 1.5 0.2
v 0.3 1.6 0.2
v 0.4 0.3 0.2
v 0.4 0.4 0.2
v 0.4 1.2 0.2
v 0.4 1.3 0.2
v 0.5 0.1 0.2
v 0.5 0.2 0.2
v 0.5 0.4 0.2
v 0.5 1.2 0.2
v 0.5 1.4 0.2
v 0.5 1.5 0.2
v 0.6 0.2 0.2
v 0.6 0.4 0.2
v 0.6 1.2 0.2
v 0.6 1.4 0.2
v 0.7 0.4 0.2
v 0.7 1.2 0.2
v -0.5 0.4 0.1
v -0.5 1.2 0.1
v -0.4 0.3 0.1
v -0.4 0.4 0.1
v -0.4 1.2 0.1
v -0.4 1.3 0.1
v -0.3 0.2 0.1
v -0.3 0.3 0.1
v -0.3 0.4 0.1
v -0.3 1.2 0.1
v -0.3 1.3 0.1
v -0.3 1.4 0.1
v -0.2 0.6 0.1
v -0.2 1 0.1
v -0.1 0.7 0.1
v -0.1 0.9 0.1
v 0.1 0.7 0.1
v 0.1 0.9 0.1
v 0.2 0.6 0.1
v 0.2 1 0.1
v 0.3 0.2 0.1
v 0.3 0.3 0.1
v 0.3 0.4 0.1
v 0.3 1.2 0.1
v 0.3 1.3 0.1
v 0.3 1.4 0.1
v 0.4 0.3 0.1
v 0.4 0.4 0.1
v 0.4 1.2 0.1
v 0.4 1.3 0.1
v 0.5 0.4 0.1
v 0.5 1.2 0.1
v -0.5 0.4 0
v -0.5 1.2 0
v -0.4 0.3 0
v -0.4 0.4 0
v -0.4 1.2 0
v -0.4 1.3 0
v -0.3 0.2 0
v -0.3 0.3 0
v -0.3 0.4 0
v -0.3 1.2 0
v -0.3 1.3 0
v -0.3 1.4 0
v -0.2 0.6 0
v -0.2 1 0
v -0.1 0.7 0
v -0.1 0.9 0
v 0.1 0.7 0
v 0.1 0.9 0
v 0.2 0.6 0
v 0.2 1 0
v 0.3 0.2 0
v 0.3 0.3 0
v 0.3 0.4 0
v 0.3 1.2 0
v 0.3 1.3 0
v 0.3 1.4 0
v 0.4 0.3 0
v 0.4 0.4 0
v 0.4 1.2 0
v 0.4 1.3 0
v 0.5 0.4 0
v 0.5 1.2 0
v -0.7 0.4 -0.1
v -0.7 1.2 -0.1
v -0.6 0.2 -0.1
v -0.6 0.4 -0.1
v -0.6 1.2 -0.1
v -0.6 1.4 -0.1
v -0.5 0.1 -0.1
v -0.5 0.2 -0.1
v -0.5 0.4 -0.1
v -0.5 1.2 -0.1
v -0.5 1.4 -0.1
v -0.5 1.5 -0.1
v -0.4 0.3 -0.1
v -0.4 0.4 -0.1
v -0.4 1.2 -0.1
v -0.4 1.3 -0.1
v -0.3 0 -0.1
v -0.3 0.1 -0.1
v -0.3 0.2 -0.1
v -0.3 0.3 -0.1
v -0.3 0.4 -0.1
v -0.3 1.2 -0.1
v -0.3 1.3 -0.1
v -0.3 1.4 -0.1
v -0.3 1.5 -0.1
v -0.3 1.6 -0.1
v -0.2 0.6 -0.1
v -0.2 1 -0.1
v -0.1 0.7 -0.1
v -0.1 0.9 -0.1
v 0.1 0.7 -0.1
v 0.1 0.9 -0.1
v 0.2 0.6 -0.1
v 0.2 1 -0.1
v 0.3 0 -0.1
v 0.3 0.1 -0.1
v 0.3 0.2 -0.1
v 0.3 0.3 -0.1
v 0.3 0.4 -0.1
v 0.3 1.2 -0.1
v 0.3 1.3 -0.1
v 0.3 1.4 -0.1
v 0.3 1.5 -0.1
v 0.3 1.6 -0.1
v 0.4 0.3 -0.1
v 0.4 0.4 -0.1
v 0.4 1.2 -0.1
v 0.4 1.3 -0.1
v 0.5 0.1 -0.1
v 0.5 0.2 -0.1
v 0.5 0.4 -0.1
v 0.5 1.2 -0.1
v 0.5 1.4 -0.1
v 0.5 1.5 -0.1
v 0.6 0.2 -0.1
v 0.6 0.4 -0.1
v 0.6 1.2 -0.1
v 0.6 1.4 -0.1
v 0.7 0.4 -0.1
v 0.7 1.2 -0.1
v -0.3 0 0.2
v 0.3 0 0.2
v -0.3 0 -0.1
v 0.3 0 -0.1
v -0.5 0.1 0.2
v -0.3 0.1 0.2
v 0.3 0.1 0.2
v 0.5 0.1 0.2
v -0.5 0.1 -0.1
v -0.3 0.1 -0.1
v 0.3 0.1 -0.1
v 0.5 0.1 -0.1
v -0.6 0.2 0.2
v -0.5 0.2 0.2
v 0.5 0.2 0.2
v 0.6 0.2 0.2
v -0.6 0.2 -0.1
v -0.5 0.2 -0.1
v 0.5 0.2 -0.1
v 0.6 0.2 -0.1
v -0.3 0.3 0.2
v 0.3 0.3 0.2
v -0.3 0.3 0.1
v 0.3 0.3 0.1
v -0.3 0.3 0
v 0.3 0.3 0
v -0.3 0.3 -0.1
v 0.3 0.3 -0.1
v -0.7 0.4 0.2
v -0.6 0.4 0.2
v -0.4 0.4 0.2
v -0.3 0.4 0.2
v 0.3 0.4 0.2
v 0.4 0.4 0.2
v 0.6 0.4 0.2
v 0.7 0.4 0.2
v -0.4 0.4 0.1
v -0.3 0.4 0.1
v 0.3 0.4 0.1
v 0.4 0.4 0.1
v -0.4 0.4 0
v -0.3 0.4 0
v 0.3 0.4 0
v 0.4 0.4 0
v -0.7 0.4 -0.1
v -0.6 0.4 -0.1
v -0.4 0.4 -0.1
v -0.3 0.4 -0.1
v 0.3 0.4 -0.1
v 0.4 0.4 -0.1
v 0.6 0.4 -0.1
v 0.7 0.4 -0.1
v -0.1 0.7 0.2
v 0.1 0.7 0.2
v -0.1 0.7 0.1
v 0.1 0.7 0.1
v -0.1 0.7 0
v 0.1 0.7 0
v -0.1 0.7 -0.1
v 0.1 0.7 -0.1
v -0.2 1 0.2
v 0.2 1 0.2
v -0.2 1 0.1
v 0.2 1 0.1
v -0.2 1 0
v 0.2 1 0
v -0.2 1 -0.1
v 0.2 1 -0.1
v -0.5 1.2 0.2
v -0.4 1.2 0.2
v 0.4 1.2 0.2
v 0.5 1.2 0.2
v -0.5 1.2 0.1
v -0.4 1.2 0.1
v 0.4 1.2 0.1
v 0.5 1.2 0.1
v -0.5 1.2 0
v -0.4 1.2 0
v 0.4 1.2 0
v 0.5 1.2 0
v -0.5 1.2 -0.1
v -0.4 1.2 -0.1
v 0.4 1.2 -0.1
v 0.5 1.2 -0.1
v -0.4 1.3 0.2
v -0.3 1.3 0.2
v 0.3 1.3 0.2
v 0.4 1.3 0.2
v -0.4 1.3 0.1
v -0.3 1.3 0.1
v 0.3 1.3 0.1
v 0.4 1.3 0.1
v -0.4 1.3 0
v -0.3 1.3 0
v 0.3 1.3 0
v 0.4 1.3 0
v -0.4 1.3 -0.1
v -0.3 1.3 -0.1
v 0.3 1.3 -0.1
v 0.4 1.3 -0.1
v -0.3 1.4 0.2
v 0.3 1.4 0.2
v -0.3 1.4 0.1
v 0.3 1.4 0.1
v -0.3 1.4 0
v 0.3 1.4 0
v -0.3 1.4 -0.1
v 0.3 1.4 -0.1
v -0.3 0.2 0.2
v 0.3 0.2 0.2
v -0.3 0.2 0.1
v 0.3 0.2 0.1
v -0.3 0.2 0
v 0.3 0.2 0
v -0.3 0.2 -0.1
v 0.3 0.2 -0.1
v -0.4 0.3 0.2
v -0.3 0.3 0.2
v 0.3 0.3 0.2
v 0.4 0.3 0.2
v -0.4 0.3 0.1
v -0.3 0.3 0.1
v 0.3 0.3 0.1
v 0.4 0.3 0.1
v -0.4 0.3 0
v -0.3 0.3 0
v 0.3 0.3 0
v 0.4 0.3 0
v -0.4 0.3 -0.1
v -0.3 0.3 -0.1
v 0.3 0.3 -0.1
v 0.4 0.3 -0.1
v -0.5 0.4 0.2
v -0.4 0.4 0.2
v 0.4 0.4 0.2
v 0.5 0.4 0.2
v -0.5 0.4 0.1
v -0.4 0.4 0.1
v 0.4 0.4 0.1
v 0.5 0.4 0.1
v -0.5 0.4 0
v -0.4 0.4 0
v 0.4 0.4 0
v 0.5 0.4 0
v -0.5 0.4 -0.1
v -0.4 0.4 -0.1
v 0.4 0.4 -0.1
v 0.5 0.4 -0.1
v -0.2 0.6 0.2
v 0.2 0.6 0.2
v -0.2 0.6 0.1
v 0.2 0.6 0.1
v -0.2 0.6 0
v 0.2 0.6 0
v -0.2 0.6 -0.1
v 0.2 0.6 -0.1
v -0.1 0.9 0.2
v 0.1 0.9 0.2
v -0.1 0.9 0.1
v 0.1 0.9 0.1
v -0.1 0.9 0
v 0.1 0.9 0
v -0.1 0.9 -0.1
v 0.1 0.9 -0.1
v -0.7 1.2 0.2
v -0.6 1.2 0.2
v -0.4 1.2 0.2
v -0.3 1.2 0.2
v 0.3 1.2 0.2
v 0.4 1.2 0.2
v 0.6 1.2 0.2
v 0.7 1.2 0.2
v -0.4 1.2 0.1
v -0.3 1.2 0.1
v 0.3 1.2 0.1
v 0.4 1.2 0.1
v -0.4 1.2 0
v -0.3 1.2 0
v 0.3 1.2 0
v 0.4 1.2 0
v -0.7 1.2 -0.1
v -0.6 1.2 -0.1
v -0.4 1.2 -0.1
v -0.3 1.2 -0.1
v 0.3 1.2 -0.1
v 0.4 1.2 -0.1
v 0.6 1.2 -0.1
v 0.7 1.2 -0.1
v -0.3 1.3 0.2
v 0.3 1.3 0.2
v -0.3 1.3 0.1
v 0.3 1.3 0.1
v -0.3 1.3 0
v 0.3 1.3 0
v -0.3 1.3 -0.1
v 0.3 1.3 -0.1
v -0.6 1.4 0.2
v -0.5 1.4 0.2
v 0.5 1.4 0.2
v 0.6 1.4 0.2
v -0.6 1.4 -0.1
v -0.5 1.4 -0.1
v 0.5 1.4 -0.1
v 0.6 1.4 -0.1
v -0.5 1.5 0.2
v -0.3 1.5 0.2
v 0.3 1.5 0.2
v 0.5 1.5 0.2
v -0.5 1.5 -0.1
v -0.3 1.5 -0.1
v 0.3 1.5 -0.1
v 0.5 1.5 -0.1
v -0.3 1.6 0.2
v 0.3 1.6 0.2
v -0.3 1.6 -0.1
v 0.3 1.6 -0.1

# faces
f 3/2/1 2/2/1 1/2/1
f 4/2/1 2/2/1 3/2/1
f 7/2/1 6/2/1 5/2/1
f 8/2/1 6/2/1 7/2/1
f 11/2/1 10/2/1 9/2/1
f 12/2/1 10/2/1 11/2/1
f 15/2/1 14/2/1 13/2/1
f 16/2/1 14/2/1 15/2/1
f 19/2/1 18/2/1 17/2/1
f 20/2/1 18/2/1 19/2/1
f 25/1/1 22/1/1 21/1/1
f 26/1/1 22/1/1 25/1/1
f 27/1/1 24/1/1 23/1/1
f 28/1/1 24/1/1 27/1/1
f 31/2/1 30/2/1 29/2/1
f 32/2/1 30/2/1 31/2/1
f 37/1/1 34/1/1 33/1/1
f 38/1/1 34/1/1 37/1/1
f 39/1/1 36/1/1 35/1/1
f 40/1/1 36/1/1 39/1/1
f 45/1/1 42/1/1 41/1/1
f 46/1/1 42/1/1 45/1/1
f 47/1/1 44/1/1 43/1/1
f 48/1/1 44/1/1 47/1/1
f 51/2/1 50/2/1 49/2/1
f 52/2/1 50/2/1 51/2/1
f 57/1/1 54/1/1 53/1/1
f 58/1/1 54/1/1 57/1/1
f 59/1/1 56/1/1 55/1/1
f 60/1/1 56/1/1 59/1/1
f 65/1/1 62/1/1 61/1/1
f 66/1/1 62/1/1 65/1/1
f 67/1/1 64/1/1 63/1/1
f 68/1/1 64/1/1 67/1/1
f 73/2/1 70/2/1 69/2/1
f 74/2/1 70/2/1 73/2/1
f 75/2/1 72/2/1 71/2/1
f 76/2/1 72/2/1 75/2/1
f 81/2/1 78/2/1 77/2/1
f 82/2/1 78/2/1 81/2/1
f 83/2/1 80/2/1 79/2/1
f 84/2/1 80/2/1 83/2/1
f 89/2/1 86/2/1 85/2/1
f 90/2/1 86/2/1 89/2/1
f 91/2/1 88/2/1 87/2/1
f 92/2/1 88/2/1 91/2/1
f 97/2/1 94/2/1 93/2/1
f 98/2/1 94/2/1 97/2/1
f 99/2/1 96/2/1 95/2/1
f 100/2/1 96/2/1 99/2/1
f 105/2/1 102/2/1 101/2/1
f 106/2/1 102/2/1 105/2/1
f 107/2/1 104/2/1 103/2/1
f 108/2/1 104/2/1 107/2/1
f 109/2/2 110/2/2 113/2/2
f 113/2/2 110/2/2 114/2/2
f 111/2/2 112/2/2 115/2/2
f 115/2/2 112/2/2 116/2/2
f 117/2/2 118/2/2 121/2/2
f 121/2/2 118/2/2 122/2/2
f 119/2/2 120/2/2 123/2/2
f 123/2/2 120/2/2 124/2/2
f 125/2/2 126/2/2 129/2/2
f 129/2/2 126/2/2 130/2/2
f 127/2/2 128/2/2 131/2/2
f 131/2/2 128/2/2 132/2/2
f 133/2/2 134/2/2 137/2/2
f 137/2/2 134/2/2 138/2/2
f 135/2/2 136/2/2 139/2/2
f 139/2/2 136/2/2 140/2/2
f 141/2/2 142/2/2 145/2/2
f 145/2/2 142/2/2 146/2/2
f 143/2/2 144/2/2 147/2/2
f 147/2/2 144/2/2 148/2/2
f 149/1/2 150/1/2 153/1/2
f 153/1/2 150/1/2 154/1/2
f 151/1/2 152/1/2 155/1/2
f 155/1/2 152/1/2 156/1/2
f 157/1/2 158/1/2 161/1/2
f 161/1/2 158/1/2 162/1/2
f 159/1/2 160/1/2 163/1/2
f 163/1/2 160/1/2 164/1/2
f 165/2/2 166/2/2 167/2/2
f 167/2/2 166/2/2 168/2/2
f 169/1/2 170/1/2 173/1/2
f 173/1/2 170/1/2 174/1/2
f 171/1/2 172/1/2 175/1/2
f 175/1/2 172/1/2 176/1/2
f 177/1/2 178/1/2 181/1/2
f 181/1/2 178/1/2 182/1/2
f 179/1/2 180/1/2 183/1/2
f 183/1/2 180/1/2 184/1/2
f 185/2/2 186/2/2 187/2/2
f 187/2/2 186/2/2 188/2/2
f 189/1/2 190/1/2 193/1/2
f 193/1/2 190/1/2 194/1/2
f 191/1/2 192/1/2 195/1/2
f 195/1/2 192/1/2 196/1/2
f 197/2/2 198/2/2 199/2/2
f 199/2/2 198/2/2 200/2/2
f 201/2/2 202/2/2 203/2/2
f 203/2/2 202/2/2 204/2/2
f 205/2/2 206/2/2 207/2/2
f 207/2/2 206/2/2 208/2/2
f 209/2/2 210/2/2 211/2/2
f 211/2/2 210/2/2 212/2/2
f 213/2/2 214/2/2 215/2/2
f 215/2/2 214/2/2 216/2/2
f 220/2/3 218/2/3 217/2/3
f 221/2/3 218/2/3 220/2/3
f 224/2/3 220/2/3 219/2/3
f 224/2/3 222/2/3 221/2/3
f 224/2/3 221/2/3 220/2/3
f 225/2/3 222/2/3 224/2/3
f 226/2/3 222/2/3 225/2/3
f 227/2/3 222/2/3 226/2/3
f 229/2/3 224/2/3 223/2/3
f 229/2/3 225/2/3 224/2/3
f 230/2/3 225/2/3 229/2/3
f 231/2/3 228/2/3 227/2/3
f 231/2/3 227/2/3 226/2/3
f 232/2/3 228/2/3 231/2/3
f 234/2/3 229/2/3 223/2/3
f 235/2/3 229/2/3 234/2/3
f 236/2/3 229/2/3 235/2/3
f 237/1/3 231/1/3 230/1/3
f 238/1/3 231/1/3 237/1/3
f 239/2/3 228/2/3 232/2/3
f 240/2/3 228/2/3 239/2/3
f 241/2/3 228/2/3 240/2/3
f 243/1/3 238/1/3 237/1/3
f 243/1/3 237/1/3 236/1/3
f 243/1/3 239/1/3 238/1/3
f 244/1/3 239/1/3 243/1/3
f 247/1/3 246/1/3 245/1/3
f 248/1/3 246/1/3 247/1/3
f 249/1/3 243/1/3 236/1/3
f 250/1/3 239/1/3 244/1/3
f 251/2/3 234/2/3 233/2/3
f 251/2/3 235/2/3 234/2/3
f 252/2/3 235/2/3 251/2/3
f 253/2/3 235/2/3 252/2/3
f 254/1/3 250/1/3 249/1/3
f 254/1/3 249/1/3 236/1/3
f 255/1/3 250/1/3 254/1/3
f 256/1/3 239/1/3 250/1/3
f 256/1/3 250/1/3 255/1/3
f 257/1/3 239/1/3 256/1/3
f 258/2/3 242/2/3 241/2/3
f 258/2/3 241/2/3 240/2/3
f 259/2/3 242/2/3 258/2/3
f 260/2/3 242/2/3 259/2/3
f 261/2/3 253/2/3 252/2/3
f 261/2/3 254/2/3 253/2/3
f 262/1/3 256/1/3 255/1/3
f 263/1/3 256/1/3 262/1/3
f 264/2/3 259/2/3 258/2/3
f 264/2/3 258/2/3 257/2/3
f 265/2/3 261/2/3 252/2/3
f 265/2/3 262/2/3 261/2/3
f 266/2/3 262/2/3 265/2/3
f 267/2/3 262/2/3 266/2/3
f 268/2/3 264/2/3 263/2/3
f 269/2/3 259/2/3 264/2/3
f 269/2/3 264/2/3 268/2/3
f 270/2/3 259/2/3 269/2/3
f 271/2/3 267/2/3 266/2/3
f 271/2/3 268/2/3 267/2/3
f 271/2/3 269/2/3 268/2/3
f 272/2/3 269/2/3 271/2/3
f 273/2/3 269/2/3 272/2/3
f 274/2/3 269/2/3 273/2/3
f 275/2/3 273/2/3 272/2/3
f 276/2/3 273/2/3 275/2/3
f 280/1/3 278/1/3 277/1/3
f 281/1/3 278/1/3 280/1/3
f 284/1/3 280/1/3 279/1/3
f 285/1/3 280/1/3 284/1/3
f 286/1/3 282/1/3 281/1/3
f 287/1/3 282/1/3 286/1/3
f 291/1/3 290/1/3 289/1/3
f 292/1/3 290/1/3 291/1/3
f 293/1/3 291/1/3 289/1/3
f 294/1/3 290/1/3 292/1/3
f 295/1/3 293/1/3 289/1/3
f 295/1/3 294/1/3 293/1/3
f 296/1/3 290/1/3 294/1/3
f 296/1/3 294/1/3 295/1/3
f 297/1/3 284/1/3 283/1/3
f 298/1/3 284/1/3 297/1/3
f 301/1/3 288/1/3 287/1/3
f 302/1/3 288/1/3 301/1/3
f 303/1/3 299/1/3 298/1/3
f 304/1/3 299/1/3 303/1/3
f 305/1/3 301/1/3 300/1/3
f 306/1/3 301/1/3 305/1/3
f 307/1/3 305/1/3 304/1/3
f 308/1/3 305/1/3 307/1/3
f 309/1/4 310/1/4 312/1/4
f 312/1/4 310/1/4 313/1/4
f 311/1/4 312/1/4 316/1/4
f 316/1/4 312/1/4 317/1/4
f 313/1/4 314/1/4 318/1/4
f 318/1/4 314/1/4 319/1/4
f 321/1/4 322/1/4 323/1/4
f 323/1/4 322/1/4 324/1/4
f 321/1/4 323/1/4 325/1/4
f 324/1/4 322/1/4 326/1/4
f 321/1/4 325/1/4 327/1/4
f 325/1/4 326/1/4 327/1/4
f 326/1/4 322/1/4 328/1/4
f 327/1/4 326/1/4 328/1/4
f 315/1/4 316/1/4 329/1/4
f 329/1/4 316/1/4 330/1/4
f 319/1/4 320/1/4 333/1/4
f 333/1/4 320/1/4 334/1/4
f 330/1/4 331/1/4 335/1/4
f 335/1/4 331/1/4 336/1/4
f 332/1/4 333/1/4 337/1/4
f 337/1/4 333/1/4 338/1/4
f 336/1/4 337/1/4 339/1/4
f 339/1/4 337/1/4 340/1/4
f 341/2/4 342/2/4 344/2/4
f 344/2/4 342/2/4 345/2/4
f 343/2/4 344/2/4 348/2/4
f 345/2/4 346/2/4 348/2/4
f 344/2/4 345/2/4 348/2/4
f 348/2/4 346/2/4 349/2/4
f 349/2/4 346/2/4 350/2/4
f 350/2/4 346/2/4 351/2/4
f 347/2/4 348/2/4 353/2/4
f 348/2/4 349/2/4 353/2/4
f 353/2/4 349/2/4 354/2/4
f 351/2/4 352/2/4 355/2/4
f 350/2/4 351/2/4 355/2/4
f 355/2/4 352/2/4 356/2/4
f 347/2/4 353/2/4 358/2/4
f 358/2/4 353/2/4 359/2/4
f 359/2/4 353/2/4 360/2/4
f 354/1/4 355/1/4 361/1/4
f 361/1/4 355/1/4 362/1/4
f 356/2/4 352/2/4 363/2/4
f 363/2/4 352/2/4 364/2/4
f 364/2/4 352/2/4 365/2/4
f 361/1/4 362/1/4 367/1/4
f 360/1/4 361/1/4 367/1/4
f 362/1/4 363/1/4 367/1/4
f 367/1/4 363/1/4 368/1/4
f 369/1/4 370/1/4 371/1/4
f 371/1/4 370/1/4 372/1/4
f 360/1/4 367/1/4 373/1/4
f 368/1/4 363/1/4 374/1/4
f 357/2/4 358/2/4 375/2/4
f 358/2/4 359/2/4 375/2/4
f 375/2/4 359/2/4 376/2/4
f 376/2/4 359/2/4 377/2/4
f 373/1/4 374/1/4 378/1/4
f 360/1/4 373/1/4 378/1/4
f 378/1/4 374/1/4 379/1/4
f 374/1/4 363/1/4 380/1/4
f 379/1/4 374/1/4 380/1/4
f 380/1/4 363/1/4 381/1/4
f 365/2/4 366/2/4 382/2/4
f 364/2/4 365/2/4 382/2/4
f 382/2/4 366/2/4 383/2/4
f 383/2/4 366/2/4 384/2/4
f 376/2/4 377/2/4 385/2/4
f 377/2/4 378/2/4 385/2/4
f 379/1/4 380/1/4 386/1/4
f 386/1/4 380/1/4 387/1/4
f 382/2/4 383/2/4 388/2/4
f 381/2/4 382/2/4 388/2/4
f 376/2/4 385/2/4 389/2/4
f 385/2/4 386/2/4 389/2/4
f 389/2/4 386/2/4 390/2/4
f 390/2/4 386/2/4 391/2/4
f 387/2/4 388/2/4 392/2/4
f 388/2/4 383/2/4 393/2/4
f 392/2/4 388/2/4 393/2/4
f 393/2/4 383/2/4 394/2/4
f 390/2/4 391/2/4 395/2/4
f 391/2/4 392/2/4 395/2/4
f 392/2/4 393/2/4 395/2/4
f 395/2/4 393/2/4 396/2/4
f 396/2/4 393/2/4 397/2/4
f 397/2/4 393/2/4 398/2/4
f 396/2/4 397/2/4 399/2/4
f 399/2/4 397/2/4 400/2/4
f 403/2/5 402/2/5 401/2/5
f 404/2/5 402/2/5 403/2/5
f 409/2/5 406/2/5 405/2/5
f 410/2/5 406/2/5 409/2/5
f 411/2/5 408/2/5 407/2/5
f 412/2/5 408/2/5 411/2/5
f 417/2/5 414/2/5 413/2/5
f 418/2/5 414/2/5 417/2/5
f 419/2/5 416/2/5 415/2/5
f 420/2/5 416/2/5 419/2/5
f 423/1/5 422/1/5 421/1/5
f 424/1/5 422/1/5 423/1/5
f 427/1/5 426/1/5 425/1/5
f 428/1/5 426/1/5 427/1/5
f 437/1/5 432/1/5 431/1/5
f 438/1/5 432/1/5 437/1/5
f 439/1/5 434/1/5 433/1/5
f 440/1/5 434/1/5 439/1/5
f 445/2/5 430/2/5 429/2/5
f 446/2/5 430/2/5 445/2/5
f 447/1/5 442/1/5 441/1/5
f 448/1/5 442/1/5 447/1/5
f 449/1/5 444/1/5 443/1/5
f 450/1/5 444/1/5 449/1/5
f 451/2/5 436/2/5 435/2/5
f 452/2/5 436/2/5 451/2/5
f 455/1/5 454/1/5 453/1/5
f 456/1/5 454/1/5 455/1/5
f 459/1/5 458/1/5 457/1/5
f 460/1/5 458/1/5 459/1/5
f 463/1/5 462/1/5 461/1/5
f 464/1/5 462/1/5 463/1/5
f 467/1/5 466/1/5 465/1/5
f 468/1/5 466/1/5 467/1/5
f 473/2/5 470/2/5 469/2/5
f 474/2/5 470/2/5 473/2/5
f 475/2/5 472/2/5 471/2/5
f 476/2/5 472/2/5 475/2/5
f 481/2/5 478/2/5 477/2/5
f 482/2/5 478/2/5 481/2/5
f 483/2/5 480/2/5 479/2/5
f 484/2/5 480/2/5 483/2/5
f 489/2/5 486/2/5 485/2/5
f 490/2/5 486/2/5 489/2/5
f 491/2/5 488/2/5 487/2/5
f 492/2/5 488/2/5 491/2/5
f 497/2/5 494/2/5 493/2/5
f 498/2/5 494/2/5 497/2/5
f 499/2/5 496/2/5 495/2/5
f 500/2/5 496/2/5 499/2/5
f 503/2/5 502/2/5 501/2/5
f 504/2/5 502/2/5 503/2/5
f 507/2/5 506/2/5 505/2/5
f 508/2/5 506/2/5 507/2/5
f 509/2/6 510/2/6 511/2/6
f 511/2/6 510/2/6 512/2/6
f 513/2/6 514/2/6 515/2/6
f 515/2/6 514/2/6 516/2/6
f 517/2/6 518/2/6 521/2/6
f 521/2/6 518/2/6 522/2/6
f 519/2/6 520/2/6 523/2/6
f 523/2/6 520/2/6 524/2/6
f 525/2/6 526/2/6 529/2/6
f 529/2/6 526/2/6 530/2/6
f 527/2/6 528/2/6 531/2/6
f 531/2/6 528/2/6 532/2/6
f 533/2/6 534/2/6 537/2/6
f 537/2/6 534/2/6 538/2/6
f 535/2/6 536/2/6 539/2/6
f 539/2/6 536/2/6 540/2/6
f 541/2/6 542/2/6 545/2/6
f 545/2/6 542/2/6 546/2/6
f 543/2/6 544/2/6 547/2/6
f 547/2/6 544/2/6 548/2/6
f 549/1/6 550/1/6 551/1/6
f 551/1/6 550/1/6 552/1/6
f 553/1/6 554/1/6 555/1/6
f 555/1/6 554/1/6 556/1/6
f 557/1/6 558/1/6 559/1/6
f 559/1/6 558/1/6 560/1/6
f 561/1/6 562/1/6 563/1/6
f 563/1/6 562/1/6 564/1/6
f 567/1/6 568/1/6 573/1/6
f 573/1/6 568/1/6 574/1/6
f 569/1/6 570/1/6 575/1/6
f 575/1/6 570/1/6 576/1/6
f 565/2/6 566/2/6 581/2/6
f 581/2/6 566/2/6 582/2/6
f 577/1/6 578/1/6 583/1/6
f 583/1/6 578/1/6 584/1/6
f 579/1/6 580/1/6 585/1/6
f 585/1/6 580/1/6 586/1/6
f 571/2/6 572/2/6 587/2/6
f 587/2/6 572/2/6 588/2/6
f 589/1/6 590/1/6 591/1/6
f 591/1/6 590/1/6 592/1/6
f 593/1/6 594/1/6 595/1/6
f 595/1/6 594/1/6 596/1/6
f 597/2/6 598/2/6 601/2/6
f 601/2/6 598/2/6 602/2/6
f 599/2/6 600/2/6 603/2/6
f 603/2/6 600/2/6 604/2/6
f 605/2/6 606/2/6 609/2/6
f 609/2/6 606/2/6 610/2/6
f 607/2/6 608/2/6 611/2/6
f 611/2/6 608/2/6 612/2/6
f 613/2/6 614/2/6 615/2/6
f 615/2/6 614/2/6 616/2/6
