# MagicaVoxel @ Ephtracy

# group
o 

# material
mtllib curekit.mtl
usemtl palette

# normals
vn -1 0 0
vn 1 0 0
vn 0 0 1
vn 0 0 -1
vn 0 -1 0
vn 0 1 0

# texcoords
vt 0.111328 0.5
vt 0.896484 0.5
vt 0.958984 0.5

# verts
v -1.2 0.8 0.9
v -1.2 0.8 -0.9
v -1.2 1.1 0.9
v -1.2 1.1 0.8
v -1.2 1.1 -0.8
v -1.2 1.1 -0.9
v -1.2 1.3 0.8
v -1.2 1.3 0.7
v -1.2 1.3 -0.7
v -1.2 1.3 -0.8
v -1.2 1.4 0.7
v -1.2 1.4 0.6
v -1.2 1.4 -0.6
v -1.2 1.4 -0.7
v -1.2 1.5 0.6
v -1.2 1.5 0.3
v -1.2 1.5 -0.3
v -1.2 1.5 -0.6
v -1.2 1.6 0.3
v -1.2 1.6 -0.3
v -1.1 0 0.8
v -1.1 0 -0.8
v -1.1 0.8 0.8
v -1.1 0.8 -0.8
v -0.5 1.6 0.0999999
v -0.5 1.6 -0.1
v -0.5 2 0.0999999
v -0.5 2 -0.1
v -0.4 2 0.0999999
v -0.4 2 -0.1
v -0.4 2.1 0.0999999
v -0.4 2.1 -0.1
v -0.3 2.1 0.0999999
v -0.3 2.1 -0.1
v -0.3 2.2 0.0999999
v -0.3 2.2 -0.1
v -0.2 2.2 0.0999999
v -0.2 2.2 -0.1
v -0.2 2.3 0.0999999
v -0.2 2.3 -0.1
v -0.0999999 0.6 1
v -0.0999999 0.6 0.8
v -0.0999999 0.8 0.9
v -0.0999999 0.8 0.8
v -0.0999999 1 1
v -0.0999999 1 0.9
v 0.2 2 0.0999999
v 0.2 2 -0.1
v 0.2 2.1 0.0999999
v 0.2 2.1 -0.1
v 0.3 1.6 0.0999999
v 0.3 1.6 -0.1
v 0.3 2 0.0999999
v 0.3 2 -0.1
v -0.3 1.6 0.0999999
v -0.3 1.6 -0.1
v -0.3 2 0.0999999
v -0.3 2 -0.1
v -0.2 2 0.0999999
v -0.2 2 -0.1
v -0.2 2.1 0.0999999
v -0.2 2.1 -0.1
v 0.1 0.6 1
v 0.1 0.6 0.8
v 0.1 0.8 0.9
v 0.1 0.8 0.8
v 0.1 1 1
v 0.1 1 0.9
v 0.2 2.2 0.0999999
v 0.2 2.2 -0.1
v 0.2 2.3 0.0999999
v 0.2 2.3 -0.1
v 0.3 2.1 0.0999999
v 0.3 2.1 -0.1
v 0.3 2.2 0.0999999
v 0.3 2.2 -0.1
v 0.4 2 0.0999999
v 0.4 2 -0.1
v 0.4 2.1 0.0999999
v 0.4 2.1 -0.1
v 0.5 1.6 0.0999999
v 0.5 1.6 -0.1
v 0.5 2 0.0999999
v 0.5 2 -0.1
v 1.1 0 0.8
v 1.1 0 -0.8
v 1.1 0.8 0.8
v 1.1 0.8 -0.8
v 1.2 0.8 0.9
v 1.2 0.8 -0.9
v 1.2 1.1 0.9
v 1.2 1.1 0.8
v 1.2 1.1 -0.8
v 1.2 1.1 -0.9
v 1.2 1.3 0.8
v 1.2 1.3 0.7
v 1.2 1.3 -0.7
v 1.2 1.3 -0.8
v 1.2 1.4 0.7
v 1.2 1.4 0.6
v 1.2 1.4 -0.6
v 1.2 1.4 -0.7
v 1.2 1.5 0.6
v 1.2 1.5 0.3
v 1.2 1.5 -0.3
v 1.2 1.5 -0.6
v 1.2 1.6 0.3
v 1.2 1.6 -0.3
v -0.0999999 0.6 1
v -0.0999999 1 1
v 0.1 0.6 1
v 0.1 1 1
v -1.2 0.8 0.9
v -1.2 1.1 0.9
v -0.0999999 0.8 0.9
v -0.0999999 1 0.9
v 0.1 0.8 0.9
v 0.1 1 0.9
v 1.2 0.8 0.9
v 1.2 1.1 0.9
v -1.2 1.1 0.8
v -1.2 1.3 0.8
v -1.1 0 0.8
v -1.1 0.8 0.8
v -0.2 1.2 0.8
v -0.2 1.3 0.8
v -0.0999999 0.6 0.8
v -0.0999999 0.8 0.8
v -0.0999999 1.1 0.8
v -0.0999999 1.2 0.8
v 0.1 0.6 0.8
v 0.1 0.8 0.8
v 0.1 1.1 0.8
v 0.1 1.2 0.8
v 0.2 1.2 0.8
v 0.2 1.3 0.8
v 1.1 0 0.8
v 1.1 0.8 0.8
v 1.2 1.1 0.8
v 1.2 1.3 0.8
v -1.2 1.3 0.7
v -1.2 1.4 0.7
v -0.4 1.3 0.7
v -0.4 1.4 0.7
v -0.2 1.3 0.7
v 0.2 1.3 0.7
v 0.4 1.3 0.7
v 0.4 1.4 0.7
v 1.2 1.3 0.7
v 1.2 1.4 0.7
v -1.2 1.4 0.6
v -1.2 1.5 0.6
v -0.4 1.4 0.6
v -0.3 1.4 0.6
v -0.3 1.5 0.6
v -0.0999999 1.4 0.6
v -0.0999999 1.5 0.6
v 0.1 1.4 0.6
v 0.1 1.5 0.6
v 0.3 1.4 0.6
v 0.3 1.5 0.6
v 0.4 1.4 0.6
v 1.2 1.4 0.6
v 1.2 1.5 0.6
v -1.2 1.5 0.3
v -1.2 1.6 0.3
v 1.2 1.5 0.3
v 1.2 1.6 0.3
v -0.5 1.6 0.0999999
v -0.5 2 0.0999999
v -0.4 2 0.0999999
v -0.4 2.1 0.0999999
v -0.3 1.6 0.0999999
v -0.3 2 0.0999999
v -0.3 2.1 0.0999999
v -0.3 2.2 0.0999999
v -0.2 2 0.0999999
v -0.2 2.1 0.0999999
v -0.2 2.2 0.0999999
v -0.2 2.3 0.0999999
v 0.2 2 0.0999999
v 0.2 2.1 0.0999999
v 0.2 2.2 0.0999999
v 0.2 2.3 0.0999999
v 0.3 1.6 0.0999999
v 0.3 2 0.0999999
v 0.3 2.1 0.0999999
v 0.3 2.2 0.0999999
v 0.4 2 0.0999999
v 0.4 2.1 0.0999999
v 0.5 1.6 0.0999999
v 0.5 2 0.0999999
v -0.5 1.6 -0.1
v -0.5 2 -0.1
v -0.4 2 -0.1
v -0.4 2.1 -0.1
v -0.3 1.6 -0.1
v -0.3 2 -0.1
v -0.3 2.1 -0.1
v -0.3 2.2 -0.1
v -0.2 2 -0.1
v -0.2 2.1 -0.1
v -0.2 2.2 -0.1
v -0.2 2.3 -0.1
v 0.2 2 -0.1
v 0.2 2.1 -0.1
v 0.2 2.2 -0.1
v 0.2 2.3 -0.1
v 0.3 1.6 -0.1
v 0.3 2 -0.1
v 0.3 2.1 -0.1
v 0.3 2.2 -0.1
v 0.4 2 -0.1
v 0.4 2.1 -0.1
v 0.5 1.6 -0.1
v 0.5 2 -0.1
v -1.2 1.5 -0.3
v -1.2 1.6 -0.3
v 1.2 1.5 -0.3
v 1.2 1.6 -0.3
v -1.2 1.4 -0.6
v -1.2 1.5 -0.6
v 1.2 1.4 -0.6
v 1.2 1.5 -0.6
v -1.2 1.3 -0.7
v -1.2 1.4 -0.7
v 1.2 1.3 -0.7
v 1.2 1.4 -0.7
v -1.2 1.1 -0.8
v -1.2 1.3 -0.8
v -1.1 0 -0.8
v -1.1 0.8 -0.8
v 1.1 0 -0.8
v 1.1 0.8 -0.8
v 1.2 1.1 -0.8
v 1.2 1.3 -0.8
v -1.2 0.8 -0.9
v -1.2 1.1 -0.9
v 1.2 0.8 -0.9
v 1.2 1.1 -0.9
v -1.1 0 0.8
v 1.1 0 0.8
v -1.1 0 -0.8
v 1.1 0 -0.8
v -0.0999999 0.6 1
v 0.1 0.6 1
v -0.0999999 0.6 0.8
v 0.1 0.6 0.8
v -1.2 0.8 0.9
v -0.0999999 0.8 0.9
v 0.1 0.8 0.9
v 1.2 0.8 0.9
v -1.1 0.8 0.8
v -0.0999999 0.8 0.8
v 0.1 0.8 0.8
v 1.1 0.8 0.8
v -1.1 0.8 -0.8
v 1.1 0.8 -0.8
v -1.2 0.8 -0.9
v 1.2 0.8 -0.9
v -0.3 2 0.0999999
v -0.2 2 0.0999999
v 0.2 2 0.0999999
v 0.3 2 0.0999999
v -0.3 2 -0.1
v -0.2 2 -0.1
v 0.2 2 -0.1
v 0.3 2 -0.1
v -0.2 2.1 0.0999999
v 0.2 2.1 0.0999999
v -0.2 2.1 -0.1
v 0.2 2.1 -0.1
v -0.0999999 1 1
v 0.1 1 1
v -0.0999999 1 0.9
v 0.1 1 0.9
v -1.2 1.1 0.9
v 1.2 1.1 0.9
v -1.2 1.1 0.8
v -0.0999999 1.1 0.8
v 0.1 1.1 0.8
v 1.2 1.1 0.8
v -1.2 1.1 -0.8
v 1.2 1.1 -0.8
v -1.2 1.1 -0.9
v 1.2 1.1 -0.9
v -1.2 1.3 0.8
v -0.2 1.3 0.8
v 0.2 1.3 0.8
v 1.2 1.3 0.8
v -1.2 1.3 0.7
v -0.4 1.3 0.7
v -0.2 1.3 0.7
v 0.2 1.3 0.7
v 0.4 1.3 0.7
v 1.2 1.3 0.7
v -1.2 1.3 -0.7
v 1.2 1.3 -0.7
v -1.2 1.3 -0.8
v 1.2 1.3 -0.8
v -1.2 1.4 0.7
v -0.4 1.4 0.7
v 0.4 1.4 0.7
v 1.2 1.4 0.7
v -1.2 1.4 0.6
v -0.4 1.4 0.6
v -0.3 1.4 0.6
v -0.0999999 1.4 0.6
v 0.1 1.4 0.6
v 0.3 1.4 0.6
v 0.4 1.4 0.6
v 1.2 1.4 0.6
v -1.2 1.4 -0.6
v 1.2 1.4 -0.6
v -1.2 1.4 -0.7
v 1.2 1.4 -0.7
v -1.2 1.5 0.6
v -0.3 1.5 0.6
v -0.0999999 1.5 0.6
v 0.1 1.5 0.6
v 0.3 1.5 0.6
v 1.2 1.5 0.6
v -0.3 1.5 0.5
v -0.0999999 1.5 0.5
v 0.1 1.5 0.5
v 0.3 1.5 0.5
v -1.2 1.5 0.3
v 1.2 1.5 0.3
v -1.2 1.5 -0.3
v 1.2 1.5 -0.3
v -1.2 1.5 -0.6
v 1.2 1.5 -0.6
v -1.2 1.6 0.3
v 1.2 1.6 0.3
v -0.5 1.6 0.0999999
v -0.3 1.6 0.0999999
v 0.3 1.6 0.0999999
v 0.5 1.6 0.0999999
v -0.5 1.6 -0.1
v -0.3 1.6 -0.1
v 0.3 1.6 -0.1
v 0.5 1.6 -0.1
v -1.2 1.6 -0.3
v 1.2 1.6 -0.3
v -0.5 2 0.0999999
v -0.4 2 0.0999999
v 0.4 2 0.0999999
v 0.5 2 0.0999999
v -0.5 2 -0.1
v -0.4 2 -0.1
v 0.4 2 -0.1
v 0.5 2 -0.1
v -0.4 2.1 0.0999999
v -0.3 2.1 0.0999999
v 0.3 2.1 0.0999999
v 0.4 2.1 0.0999999
v -0.4 2.1 -0.1
v -0.3 2.1 -0.1
v 0.3 2.1 -0.1
v 0.4 2.1 -0.1
v -0.3 2.2 0.0999999
v -0.2 2.2 0.0999999
v 0.2 2.2 0.0999999
v 0.3 2.2 0.0999999
v -0.3 2.2 -0.1
v -0.2 2.2 -0.1
v 0.2 2.2 -0.1
v 0.3 2.2 -0.1
v -0.2 2.3 0.0999999
v 0.2 2.3 0.0999999
v -0.2 2.3 -0.1
v 0.2 2.3 -0.1

# faces
f 3/3/1 2/3/1 1/3/1
f 4/3/1 2/3/1 3/3/1
f 5/3/1 2/3/1 4/3/1
f 6/3/1 2/3/1 5/3/1
f 7/3/1 5/3/1 4/3/1
f 8/3/1 5/3/1 7/3/1
f 9/3/1 5/3/1 8/3/1
f 10/3/1 5/3/1 9/3/1
f 11/3/1 9/3/1 8/3/1
f 12/3/1 9/3/1 11/3/1
f 13/3/1 9/3/1 12/3/1
f 14/3/1 9/3/1 13/3/1
f 15/3/1 13/3/1 12/3/1
f 16/3/1 13/3/1 15/3/1
f 17/3/1 13/3/1 16/3/1
f 18/3/1 13/3/1 17/3/1
f 19/3/1 17/3/1 16/3/1
f 20/3/1 17/3/1 19/3/1
f 23/3/1 22/3/1 21/3/1
f 24/3/1 22/3/1 23/3/1
f 27/2/1 26/2/1 25/2/1
f 28/2/1 26/2/1 27/2/1
f 31/2/1 30/2/1 29/2/1
f 32/2/1 30/2/1 31/2/1
f 35/2/1 34/2/1 33/2/1
f 36/2/1 34/2/1 35/2/1
f 39/2/1 38/2/1 37/2/1
f 40/2/1 38/2/1 39/2/1
f 43/2/1 42/2/1 41/2/1
f 44/2/1 42/2/1 43/2/1
f 45/2/1 43/2/1 41/2/1
f 46/2/1 43/2/1 45/2/1
f 49/2/1 48/2/1 47/2/1
f 50/2/1 48/2/1 49/2/1
f 53/2/1 52/2/1 51/2/1
f 54/2/1 52/2/1 53/2/1
f 55/2/2 56/2/2 57/2/2
f 57/2/2 56/2/2 58/2/2
f 59/2/2 60/2/2 61/2/2
f 61/2/2 60/2/2 62/2/2
f 63/2/2 64/2/2 65/2/2
f 65/2/2 64/2/2 66/2/2
f 63/2/2 65/2/2 67/2/2
f 67/2/2 65/2/2 68/2/2
f 69/2/2 70/2/2 71/2/2
f 71/2/2 70/2/2 72/2/2
f 73/2/2 74/2/2 75/2/2
f 75/2/2 74/2/2 76/2/2
f 77/2/2 78/2/2 79/2/2
f 79/2/2 78/2/2 80/2/2
f 81/2/2 82/2/2 83/2/2
f 83/2/2 82/2/2 84/2/2
f 85/3/2 86/3/2 87/3/2
f 87/3/2 86/3/2 88/3/2
f 89/3/2 90/3/2 91/3/2
f 91/3/2 90/3/2 92/3/2
f 92/3/2 90/3/2 93/3/2
f 93/3/2 90/3/2 94/3/2
f 92/3/2 93/3/2 95/3/2
f 95/3/2 93/3/2 96/3/2
f 96/3/2 93/3/2 97/3/2
f 97/3/2 93/3/2 98/3/2
f 96/3/2 97/3/2 99/3/2
f 99/3/2 97/3/2 100/3/2
f 100/3/2 97/3/2 101/3/2
f 101/3/2 97/3/2 102/3/2
f 100/3/2 101/3/2 103/3/2
f 103/3/2 101/3/2 104/3/2
f 104/3/2 101/3/2 105/3/2
f 105/3/2 101/3/2 106/3/2
f 104/3/2 105/3/2 107/3/2
f 107/3/2 105/3/2 108/3/2
f 111/2/3 110/2/3 109/2/3
f 112/2/3 110/2/3 111/2/3
f 115/3/3 114/3/3 113/3/3
f 116/3/3 114/3/3 115/3/3
f 118/3/3 114/3/3 116/3/3
f 119/3/3 118/3/3 117/3/3
f 120/3/3 114/3/3 118/3/3
f 120/3/3 118/3/3 119/3/3
f 125/3/3 122/3/3 121/3/3
f 126/3/3 122/3/3 125/3/3
f 127/3/3 124/3/3 123/3/3
f 128/3/3 124/3/3 127/3/3
f 129/3/3 125/3/3 121/3/3
f 130/1/3 126/1/3 125/1/3
f 130/3/3 125/3/3 129/3/3
f 131/3/3 127/3/3 123/3/3
f 133/1/3 130/1/3 129/1/3
f 134/1/3 126/1/3 130/1/3
f 134/1/3 130/1/3 133/1/3
f 135/3/3 134/3/3 133/3/3
f 135/1/3 126/1/3 134/1/3
f 136/1/3 126/1/3 135/1/3
f 137/3/3 132/3/3 131/3/3
f 137/3/3 131/3/3 123/3/3
f 138/3/3 132/3/3 137/3/3
f 139/3/3 136/3/3 135/3/3
f 139/3/3 135/3/3 133/3/3
f 140/3/3 136/3/3 139/3/3
f 143/3/3 142/3/3 141/3/3
f 144/3/3 142/3/3 143/3/3
f 145/1/3 144/1/3 143/1/3
f 146/1/3 144/1/3 145/1/3
f 147/1/3 144/1/3 146/1/3
f 148/1/3 144/1/3 147/1/3
f 149/3/3 148/3/3 147/3/3
f 150/3/3 148/3/3 149/3/3
f 153/3/3 152/3/3 151/3/3
f 154/3/3 152/3/3 153/3/3
f 155/3/3 152/3/3 154/3/3
f 156/1/3 155/1/3 154/1/3
f 157/1/3 155/1/3 156/1/3
f 158/3/3 157/3/3 156/3/3
f 159/3/3 157/3/3 158/3/3
f 160/1/3 159/1/3 158/1/3
f 161/1/3 159/1/3 160/1/3
f 162/3/3 161/3/3 160/3/3
f 163/3/3 161/3/3 162/3/3
f 164/3/3 161/3/3 163/3/3
f 167/3/3 166/3/3 165/3/3
f 168/3/3 166/3/3 167/3/3
f 171/2/3 170/2/3 169/2/3
f 173/2/3 171/2/3 169/2/3
f 173/2/3 172/2/3 171/2/3
f 174/2/3 172/2/3 173/2/3
f 175/2/3 172/2/3 174/2/3
f 177/2/3 176/2/3 175/2/3
f 177/2/3 175/2/3 174/2/3
f 178/2/3 176/2/3 177/2/3
f 179/2/3 176/2/3 178/2/3
f 182/2/3 180/2/3 179/2/3
f 182/2/3 179/2/3 178/2/3
f 183/2/3 180/2/3 182/2/3
f 184/2/3 180/2/3 183/2/3
f 186/2/3 182/2/3 181/2/3
f 186/2/3 183/2/3 182/2/3
f 187/2/3 183/2/3 186/2/3
f 188/2/3 183/2/3 187/2/3
f 189/2/3 186/2/3 185/2/3
f 189/2/3 187/2/3 186/2/3
f 190/2/3 187/2/3 189/2/3
f 191/2/3 189/2/3 185/2/3
f 192/2/3 189/2/3 191/2/3
f 193/2/4 194/2/4 195/2/4
f 193/2/4 195/2/4 197/2/4
f 195/2/4 196/2/4 197/2/4
f 197/2/4 196/2/4 198/2/4
f 198/2/4 196/2/4 199/2/4
f 199/2/4 200/2/4 201/2/4
f 198/2/4 199/2/4 201/2/4
f 201/2/4 200/2/4 202/2/4
f 202/2/4 200/2/4 203/2/4
f 203/2/4 204/2/4 206/2/4
f 202/2/4 203/2/4 206/2/4
f 206/2/4 204/2/4 207/2/4
f 207/2/4 204/2/4 208/2/4
f 205/2/4 206/2/4 210/2/4
f 206/2/4 207/2/4 210/2/4
f 210/2/4 207/2/4 211/2/4
f 211/2/4 207/2/4 212/2/4
f 209/2/4 210/2/4 213/2/4
f 210/2/4 211/2/4 213/2/4
f 213/2/4 211/2/4 214/2/4
f 209/2/4 213/2/4 215/2/4
f 215/2/4 213/2/4 216/2/4
f 217/3/4 218/3/4 219/3/4
f 219/3/4 218/3/4 220/3/4
f 221/3/4 222/3/4 223/3/4
f 223/3/4 222/3/4 224/3/4
f 225/3/4 226/3/4 227/3/4
f 227/3/4 226/3/4 228/3/4
f 231/3/4 232/3/4 233/3/4
f 233/3/4 232/3/4 234/3/4
f 229/3/4 230/3/4 235/3/4
f 235/3/4 230/3/4 236/3/4
f 237/3/4 238/3/4 239/3/4
f 239/3/4 238/3/4 240/3/4
f 243/3/5 242/3/5 241/3/5
f 244/3/5 242/3/5 243/3/5
f 247/2/5 246/2/5 245/2/5
f 248/2/5 246/2/5 247/2/5
f 253/3/5 250/3/5 249/3/5
f 254/3/5 250/3/5 253/3/5
f 255/3/5 252/3/5 251/3/5
f 256/3/5 252/3/5 255/3/5
f 257/3/5 253/3/5 249/3/5
f 258/3/5 252/3/5 256/3/5
f 259/3/5 257/3/5 249/3/5
f 259/3/5 258/3/5 257/3/5
f 260/3/5 252/3/5 258/3/5
f 260/3/5 258/3/5 259/3/5
f 265/2/5 262/2/5 261/2/5
f 266/2/5 262/2/5 265/2/5
f 267/2/5 264/2/5 263/2/5
f 268/2/5 264/2/5 267/2/5
f 271/2/5 270/2/5 269/2/5
f 272/2/5 270/2/5 271/2/5
f 273/2/6 274/2/6 275/2/6
f 275/2/6 274/2/6 276/2/6
f 277/3/6 278/3/6 279/3/6
f 279/3/6 278/3/6 280/3/6
f 280/3/6 278/3/6 281/3/6
f 281/3/6 278/3/6 282/3/6
f 283/3/6 284/3/6 285/3/6
f 285/3/6 284/3/6 286/3/6
f 287/3/6 288/3/6 291/3/6
f 291/3/6 288/3/6 292/3/6
f 288/1/6 289/1/6 293/1/6
f 292/3/6 288/3/6 293/3/6
f 289/3/6 290/3/6 294/3/6
f 293/1/6 289/1/6 294/1/6
f 294/3/6 290/3/6 295/3/6
f 295/3/6 290/3/6 296/3/6
f 297/3/6 298/3/6 299/3/6
f 299/3/6 298/3/6 300/3/6
f 301/3/6 302/3/6 305/3/6
f 302/1/6 303/1/6 306/1/6
f 305/3/6 302/3/6 306/3/6
f 306/1/6 303/1/6 307/1/6
f 307/1/6 303/1/6 308/1/6
f 308/1/6 303/1/6 309/1/6
f 309/1/6 303/1/6 310/1/6
f 303/3/6 304/3/6 311/3/6
f 310/1/6 303/1/6 311/1/6
f 311/3/6 304/3/6 312/3/6
f 313/3/6 314/3/6 315/3/6
f 315/3/6 314/3/6 316/3/6
f 317/3/6 318/3/6 323/3/6
f 318/1/6 319/1/6 323/1/6
f 319/3/6 320/3/6 324/3/6
f 323/1/6 319/1/6 324/1/6
f 320/1/6 321/1/6 325/1/6
f 324/3/6 320/3/6 325/3/6
f 321/3/6 322/3/6 326/3/6
f 325/1/6 321/1/6 326/1/6
f 324/3/6 325/3/6 327/3/6
f 323/3/6 324/3/6 327/3/6
f 325/3/6 326/3/6 327/3/6
f 317/3/6 323/3/6 327/3/6
f 326/3/6 322/3/6 328/3/6
f 327/3/6 326/3/6 328/3/6
f 329/3/6 330/3/6 331/3/6
f 331/3/6 330/3/6 332/3/6
f 333/3/6 334/3/6 335/3/6
f 335/3/6 334/3/6 336/3/6
f 336/3/6 334/3/6 337/3/6
f 337/3/6 334/3/6 338/3/6
f 333/3/6 335/3/6 339/3/6
f 336/3/6 337/3/6 340/3/6
f 340/3/6 337/3/6 341/3/6
f 338/3/6 334/3/6 342/3/6
f 340/3/6 341/3/6 343/3/6
f 341/3/6 342/3/6 343/3/6
f 333/3/6 339/3/6 343/3/6
f 339/3/6 340/3/6 343/3/6
f 342/3/6 334/3/6 344/3/6
f 343/3/6 342/3/6 344/3/6
f 345/2/6 346/2/6 349/2/6
f 349/2/6 346/2/6 350/2/6
f 347/2/6 348/2/6 351/2/6
f 351/2/6 348/2/6 352/2/6
f 353/2/6 354/2/6 357/2/6
f 357/2/6 354/2/6 358/2/6
f 355/2/6 356/2/6 359/2/6
f 359/2/6 356/2/6 360/2/6
f 361/2/6 362/2/6 365/2/6
f 365/2/6 362/2/6 366/2/6
f 363/2/6 364/2/6 367/2/6
f 367/2/6 364/2/6 368/2/6
f 369/2/6 370/2/6 371/2/6
f 371/2/6 370/2/6 372/2/6
