# MagicaVoxel @ Ephtracy

# group
o 

# material
mtllib singouki1.mtl
usemtl palette

# normals
vn -1 0 0
vn 1 0 0
vn 0 0 1
vn 0 0 -1
vn 0 -1 0
vn 0 1 0

# texcoords
vt 0.0175781 0.5
vt 0.708984 0.5
vt 0.841797 0.5
vt 0.958984 0.5

# verts
v -1.7 4.1 0.3
v -1.7 4.1 -0.2
v -1.7 4.9 0.3
v -1.7 4.9 -0.2
v -0.9 4.2 0.3
v -0.9 4.2 0.2
v -0.9 4.2 -0.1
v -0.9 4.2 -0.2
v -0.9 4.8 0.3
v -0.9 4.8 0.2
v -0.9 4.8 -0.1
v -0.9 4.8 -0.2
v -0.2 4.2 0.3
v -0.2 4.2 0.2
v -0.2 4.2 -0.1
v -0.2 4.2 -0.2
v -0.2 4.8 0.3
v -0.2 4.8 0.2
v -0.2 4.8 -0.1
v -0.2 4.8 -0.2
v 0.5 4.2 0.3
v 0.5 4.2 0.2
v 0.5 4.2 -0.1
v 0.5 4.2 -0.2
v 0.5 4.8 0.3
v 0.5 4.8 0.2
v 0.5 4.8 -0.1
v 0.5 4.8 -0.2
v 1 0 0.2
v 1 0 -0.1
v 1 4.4 0.2
v 1 4.4 -0.1
v -1.5 4.2 0.3
v -1.5 4.2 0.2
v -1.5 4.2 -0.1
v -1.5 4.2 -0.2
v -1.5 4.8 0.3
v -1.5 4.8 0.2
v -1.5 4.8 -0.1
v -1.5 4.8 -0.2
v -0.8 4.2 0.3
v -0.8 4.2 0.2
v -0.8 4.2 -0.1
v -0.8 4.2 -0.2
v -0.8 4.8 0.3
v -0.8 4.8 0.2
v -0.8 4.8 -0.1
v -0.8 4.8 -0.2
v -0.0999999 4.2 0.3
v -0.0999999 4.2 0.2
v -0.0999999 4.2 -0.1
v -0.0999999 4.2 -0.2
v -0.0999999 4.8 0.3
v -0.0999999 4.8 0.2
v -0.0999999 4.8 -0.1
v -0.0999999 4.8 -0.2
v 0.6 4.1 0.3
v 0.6 4.1 -0.2
v 0.6 4.4 0.2
v 0.6 4.4 -0.1
v 0.6 4.6 0.2
v 0.6 4.6 -0.1
v 0.6 4.9 0.3
v 0.6 4.9 -0.2
v 1.2 0 0.2
v 1.2 0 -0.1
v 1.2 4.6 0.2
v 1.2 4.6 -0.1
v -1.7 4.1 0.3
v -1.7 4.9 0.3
v -1.5 4.2 0.3
v -1.5 4.8 0.3
v -0.9 4.2 0.3
v -0.9 4.8 0.3
v -0.8 4.2 0.3
v -0.8 4.8 0.3
v -0.2 4.2 0.3
v -0.2 4.8 0.3
v -0.0999999 4.2 0.3
v -0.0999999 4.8 0.3
v 0.5 4.2 0.3
v 0.5 4.8 0.3
v 0.6 4.1 0.3
v 0.6 4.9 0.3
v -1.5 4.2 0.2
v -1.5 4.8 0.2
v -0.9 4.2 0.2
v -0.9 4.8 0.2
v -0.8 4.2 0.2
v -0.8 4.8 0.2
v -0.2 4.2 0.2
v -0.2 4.8 0.2
v -0.0999999 4.2 0.2
v -0.0999999 4.8 0.2
v 0.5 4.2 0.2
v 0.5 4.8 0.2
v 0.6 4.4 0.2
v 0.6 4.6 0.2
v 1 0 0.2
v 1 4.4 0.2
v 1.2 0 0.2
v 1.2 4.6 0.2
v -1.5 4.2 -0.1
v -1.5 4.8 -0.1
v -0.9 4.2 -0.1
v -0.9 4.8 -0.1
v -0.8 4.2 -0.1
v -0.8 4.8 -0.1
v -0.2 4.2 -0.1
v -0.2 4.8 -0.1
v -0.0999999 4.2 -0.1
v -0.0999999 4.8 -0.1
v 0.5 4.2 -0.1
v 0.5 4.8 -0.1
v 0.6 4.4 -0.1
v 0.6 4.6 -0.1
v 1 0 -0.1
v 1 4.4 -0.1
v 1.2 0 -0.1
v 1.2 4.6 -0.1
v -1.7 4.1 -0.2
v -1.7 4.9 -0.2
v -1.5 4.2 -0.2
v -1.5 4.8 -0.2
v -0.9 4.2 -0.2
v -0.9 4.8 -0.2
v -0.8 4.2 -0.2
v -0.8 4.8 -0.2
v -0.2 4.2 -0.2
v -0.2 4.8 -0.2
v -0.0999999 4.2 -0.2
v -0.0999999 4.8 -0.2
v 0.5 4.2 -0.2
v 0.5 4.8 -0.2
v 0.6 4.1 -0.2
v 0.6 4.9 -0.2
v 1 0 0.2
v 1.2 0 0.2
v 1 0 -0.1
v 1.2 0 -0.1
v -1.7 4.1 0.3
v 0.6 4.1 0.3
v -1.7 4.1 -0.2
v 0.6 4.1 -0.2
v 0.6 4.4 0.2
v 1 4.4 0.2
v 0.6 4.4 -0.1
v 1 4.4 -0.1
v -1.5 4.8 0.3
v -0.9 4.8 0.3
v -0.8 4.8 0.3
v -0.2 4.8 0.3
v -0.0999999 4.8 0.3
v 0.5 4.8 0.3
v -1.5 4.8 0.2
v -0.9 4.8 0.2
v -0.8 4.8 0.2
v -0.2 4.8 0.2
v -0.0999999 4.8 0.2
v 0.5 4.8 0.2
v -1.5 4.8 -0.1
v -0.9 4.8 -0.1
v -0.8 4.8 -0.1
v -0.2 4.8 -0.1
v -0.0999999 4.8 -0.1
v 0.5 4.8 -0.1
v -1.5 4.8 -0.2
v -0.9 4.8 -0.2
v -0.8 4.8 -0.2
v -0.2 4.8 -0.2
v -0.0999999 4.8 -0.2
v 0.5 4.8 -0.2
v -1.5 4.2 0.3
v -0.9 4.2 0.3
v -0.8 4.2 0.3
v -0.2 4.2 0.3
v -0.0999999 4.2 0.3
v 0.5 4.2 0.3
v -1.5 4.2 0.2
v -0.9 4.2 0.2
v -0.8 4.2 0.2
v -0.2 4.2 0.2
v -0.0999999 4.2 0.2
v 0.5 4.2 0.2
v -1.5 4.2 -0.1
v -0.9 4.2 -0.1
v -0.8 4.2 -0.1
v -0.2 4.2 -0.1
v -0.0999999 4.2 -0.1
v 0.5 4.2 -0.1
v -1.5 4.2 -0.2
v -0.9 4.2 -0.2
v -0.8 4.2 -0.2
v -0.2 4.2 -0.2
v -0.0999999 4.2 -0.2
v 0.5 4.2 -0.2
v 0.6 4.6 0.2
v 1.2 4.6 0.2
v 0.6 4.6 -0.1
v 1.2 4.6 -0.1
v -1.7 4.9 0.3
v 0.6 4.9 0.3
v -1.7 4.9 -0.2
v 0.6 4.9 -0.2

# faces
f 3/4/1 2/4/1 1/4/1
f 4/4/1 2/4/1 3/4/1
f 9/4/1 6/4/1 5/4/1
f 10/4/1 6/4/1 9/4/1
f 11/4/1 8/4/1 7/4/1
f 12/4/1 8/4/1 11/4/1
f 17/4/1 14/4/1 13/4/1
f 18/4/1 14/4/1 17/4/1
f 19/4/1 16/4/1 15/4/1
f 20/4/1 16/4/1 19/4/1
f 25/4/1 22/4/1 21/4/1
f 26/4/1 22/4/1 25/4/1
f 27/4/1 24/4/1 23/4/1
f 28/4/1 24/4/1 27/4/1
f 31/4/1 30/4/1 29/4/1
f 32/4/1 30/4/1 31/4/1
f 33/4/2 34/4/2 37/4/2
f 37/4/2 34/4/2 38/4/2
f 35/4/2 36/4/2 39/4/2
f 39/4/2 36/4/2 40/4/2
f 41/4/2 42/4/2 45/4/2
f 45/4/2 42/4/2 46/4/2
f 43/4/2 44/4/2 47/4/2
f 47/4/2 44/4/2 48/4/2
f 49/4/2 50/4/2 53/4/2
f 53/4/2 50/4/2 54/4/2
f 51/4/2 52/4/2 55/4/2
f 55/4/2 52/4/2 56/4/2
f 57/4/2 58/4/2 59/4/2
f 59/4/2 58/4/2 60/4/2
f 57/4/2 59/4/2 61/4/2
f 60/4/2 58/4/2 62/4/2
f 57/4/2 61/4/2 63/4/2
f 61/4/2 62/4/2 63/4/2
f 62/4/2 58/4/2 64/4/2
f 63/4/2 62/4/2 64/4/2
f 65/4/2 66/4/2 67/4/2
f 67/4/2 66/4/2 68/4/2
f 71/4/3 70/4/3 69/4/3
f 72/4/3 70/4/3 71/4/3
f 73/4/3 71/4/3 69/4/3
f 74/4/3 70/4/3 72/4/3
f 75/4/3 73/4/3 69/4/3
f 75/4/3 74/4/3 73/4/3
f 76/4/3 70/4/3 74/4/3
f 76/4/3 74/4/3 75/4/3
f 77/4/3 75/4/3 69/4/3
f 78/4/3 70/4/3 76/4/3
f 79/4/3 77/4/3 69/4/3
f 79/4/3 78/4/3 77/4/3
f 80/4/3 70/4/3 78/4/3
f 80/4/3 78/4/3 79/4/3
f 81/4/3 79/4/3 69/4/3
f 82/4/3 70/4/3 80/4/3
f 83/4/3 81/4/3 69/4/3
f 83/4/3 82/4/3 81/4/3
f 84/4/3 70/4/3 82/4/3
f 84/4/3 82/4/3 83/4/3
f 87/2/3 86/2/3 85/2/3
f 88/2/3 86/2/3 87/2/3
f 91/1/3 90/1/3 89/1/3
f 92/1/3 90/1/3 91/1/3
f 95/3/3 94/3/3 93/3/3
f 96/3/3 94/3/3 95/3/3
f 100/4/3 98/4/3 97/4/3
f 101/4/3 100/4/3 99/4/3
f 102/4/3 98/4/3 100/4/3
f 102/4/3 100/4/3 101/4/3
f 103/2/4 104/2/4 105/2/4
f 105/2/4 104/2/4 106/2/4
f 107/1/4 108/1/4 109/1/4
f 109/1/4 108/1/4 110/1/4
f 111/3/4 112/3/4 113/3/4
f 113/3/4 112/3/4 114/3/4
f 115/4/4 116/4/4 118/4/4
f 117/4/4 118/4/4 119/4/4
f 118/4/4 116/4/4 120/4/4
f 119/4/4 118/4/4 120/4/4
f 121/4/4 122/4/4 123/4/4
f 123/4/4 122/4/4 124/4/4
f 121/4/4 123/4/4 125/4/4
f 124/4/4 122/4/4 126/4/4
f 121/4/4 125/4/4 127/4/4
f 125/4/4 126/4/4 127/4/4
f 126/4/4 122/4/4 128/4/4
f 127/4/4 126/4/4 128/4/4
f 121/4/4 127/4/4 129/4/4
f 128/4/4 122/4/4 130/4/4
f 121/4/4 129/4/4 131/4/4
f 129/4/4 130/4/4 131/4/4
f 130/4/4 122/4/4 132/4/4
f 131/4/4 130/4/4 132/4/4
f 121/4/4 131/4/4 133/4/4
f 132/4/4 122/4/4 134/4/4
f 121/4/4 133/4/4 135/4/4
f 133/4/4 134/4/4 135/4/4
f 134/4/4 122/4/4 136/4/4
f 135/4/4 134/4/4 136/4/4
f 139/4/5 138/4/5 137/4/5
f 140/4/5 138/4/5 139/4/5
f 143/4/5 142/4/5 141/4/5
f 144/4/5 142/4/5 143/4/5
f 147/4/5 146/4/5 145/4/5
f 148/4/5 146/4/5 147/4/5
f 155/4/5 150/4/5 149/4/5
f 156/4/5 150/4/5 155/4/5
f 157/4/5 152/4/5 151/4/5
f 158/4/5 152/4/5 157/4/5
f 159/4/5 154/4/5 153/4/5
f 160/4/5 154/4/5 159/4/5
f 167/4/5 162/4/5 161/4/5
f 168/4/5 162/4/5 167/4/5
f 169/4/5 164/4/5 163/4/5
f 170/4/5 164/4/5 169/4/5
f 171/4/5 166/4/5 165/4/5
f 172/4/5 166/4/5 171/4/5
f 173/4/6 174/4/6 179/4/6
f 179/4/6 174/4/6 180/4/6
f 175/4/6 176/4/6 181/4/6
f 181/4/6 176/4/6 182/4/6
f 177/4/6 178/4/6 183/4/6
f 183/4/6 178/4/6 184/4/6
f 185/4/6 186/4/6 191/4/6
f 191/4/6 186/4/6 192/4/6
f 187/4/6 188/4/6 193/4/6
f 193/4/6 188/4/6 194/4/6
f 189/4/6 190/4/6 195/4/6
f 195/4/6 190/4/6 196/4/6
f 197/4/6 198/4/6 199/4/6
f 199/4/6 198/4/6 200/4/6
f 201/4/6 202/4/6 203/4/6
f 203/4/6 202/4/6 204/4/6
