# MagicaVoxel @ Ephtracy

# group
o 

# material
mtllib singouki2.mtl
usemtl palette

# normals
vn -1 0 0
vn 1 0 0
vn 0 0 1
vn 0 0 -1
vn 0 -1 0
vn 0 1 0

# texcoords
vt 0.708984 0.5
vt 0.841797 0.5
vt 0.958984 0.5

# verts
v 0.1 2.7 0.3
v 0.1 2.7 -0.2
v 0.1 4.1 0.3
v 0.1 4.1 -0.2
v 0.7 2.8 0.3
v 0.7 2.8 0.2
v 0.7 3.3 0.3
v 0.7 3.3 0.2
v 0.7 3.5 0.3
v 0.7 3.5 0.2
v 0.7 4 0.3
v 0.7 4 0.2
v 1 0 0.2
v 1 0 -0.1
v 1 2.8 0.2
v 1 2.8 -0.1
v 1 3 0.2
v 1 3 -0.1
v 1 3.8 0.2
v 1 3.8 -0.1
v 0.2 2.8 0.3
v 0.2 2.8 0.2
v 0.2 3.3 0.3
v 0.2 3.3 0.2
v 0.2 3.5 0.3
v 0.2 3.5 0.2
v 0.2 4 0.3
v 0.2 4 0.2
v 0.8 2.7 0.3
v 0.8 2.7 -0.2
v 0.8 2.8 0.2
v 0.8 2.8 -0.1
v 0.8 3 0.2
v 0.8 3 -0.1
v 0.8 3.8 0.2
v 0.8 3.8 -0.1
v 0.8 4 0.2
v 0.8 4 -0.1
v 0.8 4.1 0.3
v 0.8 4.1 -0.2
v 1.2 0 0.2
v 1.2 0 -0.1
v 1.2 4 0.2
v 1.2 4 -0.1
v 0.1 2.7 0.3
v 0.1 4.1 0.3
v 0.2 2.8 0.3
v 0.2 3.3 0.3
v 0.2 3.5 0.3
v 0.2 4 0.3
v 0.7 2.8 0.3
v 0.7 3.3 0.3
v 0.7 3.5 0.3
v 0.7 4 0.3
v 0.8 2.7 0.3
v 0.8 4.1 0.3
v 0.2 2.8 0.2
v 0.2 3.3 0.2
v 0.2 3.5 0.2
v 0.2 4 0.2
v 0.7 2.8 0.2
v 0.7 3.3 0.2
v 0.7 3.5 0.2
v 0.7 4 0.2
v 0.8 2.8 0.2
v 0.8 3 0.2
v 0.8 3.8 0.2
v 0.8 4 0.2
v 1 0 0.2
v 1 2.8 0.2
v 1 3 0.2
v 1 3.8 0.2
v 1.2 0 0.2
v 1.2 4 0.2
v 0.8 2.8 -0.1
v 0.8 3 -0.1
v 0.8 3.8 -0.1
v 0.8 4 -0.1
v 1 0 -0.1
v 1 2.8 -0.1
v 1 3 -0.1
v 1 3.8 -0.1
v 1.2 0 -0.1
v 1.2 4 -0.1
v 0.1 2.7 -0.2
v 0.1 4.1 -0.2
v 0.8 2.7 -0.2
v 0.8 4.1 -0.2
v 1 0 0.2
v 1.2 0 0.2
v 1 0 -0.1
v 1.2 0 -0.1
v 0.1 2.7 0.3
v 0.8 2.7 0.3
v 0.1 2.7 -0.2
v 0.8 2.7 -0.2
v 0.8 2.8 0.2
v 1 2.8 0.2
v 0.8 2.8 -0.1
v 1 2.8 -0.1
v 0.2 3.3 0.3
v 0.7 3.3 0.3
v 0.2 3.3 0.2
v 0.7 3.3 0.2
v 0.8 3.8 0.2
v 1 3.8 0.2
v 0.8 3.8 -0.1
v 1 3.8 -0.1
v 0.2 4 0.3
v 0.7 4 0.3
v 0.2 4 0.2
v 0.7 4 0.2
v 0.2 2.8 0.3
v 0.7 2.8 0.3
v 0.2 2.8 0.2
v 0.7 2.8 0.2
v 0.8 3 0.2
v 1 3 0.2
v 0.8 3 -0.1
v 1 3 -0.1
v 0.2 3.5 0.3
v 0.7 3.5 0.3
v 0.2 3.5 0.2
v 0.7 3.5 0.2
v 0.8 4 0.2
v 1.2 4 0.2
v 0.8 4 -0.1
v 1.2 4 -0.1
v 0.1 4.1 0.3
v 0.8 4.1 0.3
v 0.1 4.1 -0.2
v 0.8 4.1 -0.2

# faces
f 3/3/1 2/3/1 1/3/1
f 4/3/1 2/3/1 3/3/1
f 7/3/1 6/3/1 5/3/1
f 8/3/1 6/3/1 7/3/1
f 11/3/1 10/3/1 9/3/1
f 12/3/1 10/3/1 11/3/1
f 15/3/1 14/3/1 13/3/1
f 16/3/1 14/3/1 15/3/1
f 19/3/1 18/3/1 17/3/1
f 20/3/1 18/3/1 19/3/1
f 21/3/2 22/3/2 23/3/2
f 23/3/2 22/3/2 24/3/2
f 25/3/2 26/3/2 27/3/2
f 27/3/2 26/3/2 28/3/2
f 29/3/2 30/3/2 31/3/2
f 31/3/2 30/3/2 32/3/2
f 29/3/2 31/3/2 33/3/2
f 32/3/2 30/3/2 34/3/2
f 29/3/2 33/3/2 35/3/2
f 33/3/2 34/3/2 35/3/2
f 34/3/2 30/3/2 36/3/2
f 35/3/2 34/3/2 36/3/2
f 29/3/2 35/3/2 37/3/2
f 36/3/2 30/3/2 38/3/2
f 29/3/2 37/3/2 39/3/2
f 37/3/2 38/3/2 39/3/2
f 38/3/2 30/3/2 40/3/2
f 39/3/2 38/3/2 40/3/2
f 41/3/2 42/3/2 43/3/2
f 43/3/2 42/3/2 44/3/2
f 47/3/3 46/3/3 45/3/3
f 48/3/3 46/3/3 47/3/3
f 49/3/3 46/3/3 48/3/3
f 50/3/3 46/3/3 49/3/3
f 51/3/3 47/3/3 45/3/3
f 52/3/3 49/3/3 48/3/3
f 53/3/3 49/3/3 52/3/3
f 54/3/3 46/3/3 50/3/3
f 55/3/3 53/3/3 52/3/3
f 55/3/3 54/3/3 53/3/3
f 55/3/3 51/3/3 45/3/3
f 55/3/3 52/3/3 51/3/3
f 56/3/3 46/3/3 54/3/3
f 56/3/3 54/3/3 55/3/3
f 61/1/3 58/1/3 57/1/3
f 62/1/3 58/1/3 61/1/3
f 63/2/3 60/2/3 59/2/3
f 64/2/3 60/2/3 63/2/3
f 70/3/3 66/3/3 65/3/3
f 71/3/3 66/3/3 70/3/3
f 72/3/3 68/3/3 67/3/3
f 73/3/3 71/3/3 70/3/3
f 73/3/3 72/3/3 71/3/3
f 73/3/3 70/3/3 69/3/3
f 74/3/3 68/3/3 72/3/3
f 74/3/3 72/3/3 73/3/3
f 75/3/4 76/3/4 80/3/4
f 80/3/4 76/3/4 81/3/4
f 77/3/4 78/3/4 82/3/4
f 80/3/4 81/3/4 83/3/4
f 81/3/4 82/3/4 83/3/4
f 79/3/4 80/3/4 83/3/4
f 82/3/4 78/3/4 84/3/4
f 83/3/4 82/3/4 84/3/4
f 85/3/4 86/3/4 87/3/4
f 87/3/4 86/3/4 88/3/4
f 91/3/5 90/3/5 89/3/5
f 92/3/5 90/3/5 91/3/5
f 95/3/5 94/3/5 93/3/5
f 96/3/5 94/3/5 95/3/5
f 99/3/5 98/3/5 97/3/5
f 100/3/5 98/3/5 99/3/5
f 103/3/5 102/3/5 101/3/5
f 104/3/5 102/3/5 103/3/5
f 107/3/5 106/3/5 105/3/5
f 108/3/5 106/3/5 107/3/5
f 111/3/5 110/3/5 109/3/5
f 112/3/5 110/3/5 111/3/5
f 113/3/6 114/3/6 115/3/6
f 115/3/6 114/3/6 116/3/6
f 117/3/6 118/3/6 119/3/6
f 119/3/6 118/3/6 120/3/6
f 121/3/6 122/3/6 123/3/6
f 123/3/6 122/3/6 124/3/6
f 125/3/6 126/3/6 127/3/6
f 127/3/6 126/3/6 128/3/6
f 129/3/6 130/3/6 131/3/6
f 131/3/6 130/3/6 132/3/6
