# MagicaVoxel @ Ephtracy

# group
o 

# material
mtllib spray.mtl
usemtl palette

# normals
vn -1 0 0
vn 1 0 0
vn 0 0 1
vn 0 0 -1
vn 0 -1 0
vn 0 1 0

# texcoords
vt 0.966797 0.5
vt 0.970703 0.5
vt 0.974609 0.5
vt 0.982422 0.5

# verts
v -0.6 0 0.3
v -0.6 0 -0.3
v -0.6 2.4 0.3
v -0.6 2.4 0.1
v -0.6 2.4 -0.1
v -0.6 2.4 -0.3
v -0.6 2.5 0.1
v -0.6 2.5 -0.1
v -0.5 0 0.5
v -0.5 0 0.3
v -0.5 0 -0.3
v -0.5 0 -0.5
v -0.5 2.3 0.5
v -0.5 2.3 0.4
v -0.5 2.3 -0.4
v -0.5 2.3 -0.5
v -0.5 2.4 0.4
v -0.5 2.4 0.3
v -0.5 2.4 0.1
v -0.5 2.4 -0.1
v -0.5 2.4 -0.3
v -0.5 2.4 -0.4
v -0.5 2.5 0.3
v -0.5 2.5 0.1
v -0.5 2.5 -0.1
v -0.5 2.5 -0.3
v -0.4 2.3 0.5
v -0.4 2.3 0.4
v -0.4 2.3 -0.4
v -0.4 2.3 -0.5
v -0.4 2.4 0.5
v -0.4 2.4 0.4
v -0.4 2.4 0.3
v -0.4 2.4 -0.3
v -0.4 2.4 -0.4
v -0.4 2.4 -0.5
v -0.4 2.5 0.4
v -0.4 2.5 0.3
v -0.4 2.5 -0.3
v -0.4 2.5 -0.4
v -0.4 2.6 0.3
v -0.4 2.6 0.1
v -0.4 2.6 -0.1
v -0.4 2.6 -0.3
v -0.4 2.7 0.1
v -0.4 2.7 -0.1
v -0.3 0 0.6
v -0.3 0 0.5
v -0.3 0 -0.5
v -0.3 0 -0.6
v -0.3 2.4 0.6
v -0.3 2.4 0.5
v -0.3 2.4 0.4
v -0.3 2.4 -0.4
v -0.3 2.4 -0.5
v -0.3 2.4 -0.6
v -0.3 2.5 0.5
v -0.3 2.5 0.4
v -0.3 2.5 0.3
v -0.3 2.5 -0.3
v -0.3 2.5 -0.4
v -0.3 2.5 -0.5
v -0.3 2.6 0.4
v -0.3 2.6 0.3
v -0.3 2.6 0.1
v -0.3 2.6 -0.1
v -0.3 2.6 -0.3
v -0.3 2.6 -0.4
v -0.3 2.7 0.3
v -0.3 2.7 0.1
v -0.3 2.7 -0.1
v -0.3 2.7 -0.3
v -0.2 2.7 0.2
v -0.2 2.7 -0.2
v -0.2 2.8 0.2
v -0.2 2.8 0.1
v -0.2 2.8 -0.1
v -0.2 2.8 -0.2
v -0.2 2.9 0.1
v -0.2 2.9 -0.1
v -0.0999999 2.4 0.6
v -0.0999999 2.4 0.5
v -0.0999999 2.4 -0.5
v -0.0999999 2.4 -0.6
v -0.0999999 2.5 0.6
v -0.0999999 2.5 0.5
v -0.0999999 2.5 -0.5
v -0.0999999 2.5 -0.6
v -0.0999999 2.6 0.4
v -0.0999999 2.6 0.3
v -0.0999999 2.6 -0.3
v -0.0999999 2.6 -0.4
v -0.0999999 2.7 0.4
v -0.0999999 2.7 0.3
v -0.0999999 2.7 -0.3
v -0.0999999 2.7 -0.4
v -0.0999999 2.8 0.2
v -0.0999999 2.8 0.1
v -0.0999999 2.8 -0.1
v -0.0999999 2.8 -0.2
v -0.0999999 2.9 0.2
v -0.0999999 2.9 0.1
v -0.0999999 2.9 -0.1
v -0.0999999 2.9 -0.2
v -0.0999999 3.3 0.1
v -0.0999999 3.3 -0.1
v 0.1 2.4 0.6
v 0.1 2.4 0.5
v 0.1 2.4 -0.5
v 0.1 2.4 -0.6
v 0.1 2.5 0.6
v 0.1 2.5 0.5
v 0.1 2.5 -0.5
v 0.1 2.5 -0.6
v 0.1 2.6 0.4
v 0.1 2.6 0.3
v 0.1 2.6 -0.3
v 0.1 2.6 -0.4
v 0.1 2.7 0.4
v 0.1 2.7 0.3
v 0.1 2.7 -0.3
v 0.1 2.7 -0.4
v 0.1 2.8 0.2
v 0.1 2.8 0.1
v 0.1 2.8 -0.1
v 0.1 2.8 -0.2
v 0.1 2.9 0.2
v 0.1 2.9 0.1
v 0.1 2.9 -0.1
v 0.1 2.9 -0.2
v 0.1 3 0.1
v 0.1 3 -0.1
v 0.1 3.2 0.1
v 0.1 3.2 -0.1
v 0.1 3.3 0.1
v 0.1 3.3 -0.1
v 0.2 2.7 0.2
v 0.2 2.7 -0.2
v 0.2 2.8 0.2
v 0.2 2.8 0.1
v 0.2 2.8 -0.1
v 0.2 2.8 -0.2
v 0.2 2.9 0.1
v 0.2 2.9 -0.1
v 0.3 0 0.6
v 0.3 0 0.5
v 0.3 0 -0.5
v 0.3 0 -0.6
v 0.3 2.4 0.6
v 0.3 2.4 0.5
v 0.3 2.4 0.4
v 0.3 2.4 -0.4
v 0.3 2.4 -0.5
v 0.3 2.4 -0.6
v 0.3 2.5 0.5
v 0.3 2.5 0.4
v 0.3 2.5 0.3
v 0.3 2.5 -0.3
v 0.3 2.5 -0.4
v 0.3 2.5 -0.5
v 0.3 2.6 0.4
v 0.3 2.6 0.3
v 0.3 2.6 0.1
v 0.3 2.6 -0.1
v 0.3 2.6 -0.3
v 0.3 2.6 -0.4
v 0.3 2.7 0.3
v 0.3 2.7 0.1
v 0.3 2.7 -0.1
v 0.3 2.7 -0.3
v 0.4 2.3 0.5
v 0.4 2.3 0.4
v 0.4 2.3 -0.4
v 0.4 2.3 -0.5
v 0.4 2.4 0.5
v 0.4 2.4 0.4
v 0.4 2.4 0.3
v 0.4 2.4 -0.3
v 0.4 2.4 -0.4
v 0.4 2.4 -0.5
v 0.4 2.5 0.4
v 0.4 2.5 0.3
v 0.4 2.5 -0.3
v 0.4 2.5 -0.4
v 0.4 2.6 0.3
v 0.4 2.6 0.1
v 0.4 2.6 -0.1
v 0.4 2.6 -0.3
v 0.4 2.7 0.1
v 0.4 2.7 -0.1
v 0.5 0 0.5
v 0.5 0 0.3
v 0.5 0 -0.3
v 0.5 0 -0.5
v 0.5 2.3 0.5
v 0.5 2.3 0.4
v 0.5 2.3 -0.4
v 0.5 2.3 -0.5
v 0.5 2.4 0.4
v 0.5 2.4 0.3
v 0.5 2.4 0.1
v 0.5 2.4 -0.1
v 0.5 2.4 -0.3
v 0.5 2.4 -0.4
v 0.5 2.5 0.3
v 0.5 2.5 0.1
v 0.5 2.5 -0.1
v 0.5 2.5 -0.3
v 0.6 0 0.3
v 0.6 0 -0.3
v 0.6 2.4 0.3
v 0.6 2.4 0.1
v 0.6 2.4 -0.1
v 0.6 2.4 -0.3
v 0.6 2.5 0.1
v 0.6 2.5 -0.1
v 0.6 3 0.1
v 0.6 3 -0.1
v 0.6 3.2 0.1
v 0.6 3.2 -0.1
v -0.3 0 0.6
v -0.3 2.4 0.6
v -0.0999999 2.4 0.6
v -0.0999999 2.5 0.6
v 0.1 2.4 0.6
v 0.1 2.5 0.6
v 0.3 0 0.6
v 0.3 2.4 0.6
v -0.5 0 0.5
v -0.5 2.3 0.5
v -0.4 2.3 0.5
v -0.4 2.4 0.5
v -0.3 0 0.5
v -0.3 2.4 0.5
v -0.3 2.5 0.5
v -0.0999999 2.4 0.5
v -0.0999999 2.5 0.5
v 0.1 2.4 0.5
v 0.1 2.5 0.5
v 0.3 0 0.5
v 0.3 2.4 0.5
v 0.3 2.5 0.5
v 0.4 2.3 0.5
v 0.4 2.4 0.5
v 0.5 0 0.5
v 0.5 2.3 0.5
v -0.5 2.3 0.4
v -0.5 2.4 0.4
v -0.4 2.3 0.4
v -0.4 2.4 0.4
v -0.4 2.5 0.4
v -0.3 2.4 0.4
v -0.3 2.5 0.4
v -0.3 2.6 0.4
v -0.0999999 2.6 0.4
v -0.0999999 2.7 0.4
v 0.1 2.6 0.4
v 0.1 2.7 0.4
v 0.3 2.4 0.4
v 0.3 2.5 0.4
v 0.3 2.6 0.4
v 0.4 2.3 0.4
v 0.4 2.4 0.4
v 0.4 2.5 0.4
v 0.5 2.3 0.4
v 0.5 2.4 0.4
v -0.6 0 0.3
v -0.6 2.4 0.3
v -0.5 0 0.3
v -0.5 2.4 0.3
v -0.5 2.5 0.3
v -0.4 2.4 0.3
v -0.4 2.5 0.3
v -0.4 2.6 0.3
v -0.3 2.5 0.3
v -0.3 2.6 0.3
v -0.3 2.7 0.3
v -0.0999999 2.6 0.3
v -0.0999999 2.7 0.3
v 0.1 2.6 0.3
v 0.1 2.7 0.3
v 0.3 2.5 0.3
v 0.3 2.6 0.3
v 0.3 2.7 0.3
v 0.4 2.4 0.3
v 0.4 2.5 0.3
v 0.4 2.6 0.3
v 0.5 0 0.3
v 0.5 2.4 0.3
v 0.5 2.5 0.3
v 0.6 0 0.3
v 0.6 2.4 0.3
v -0.2 2.7 0.2
v -0.2 2.8 0.2
v -0.0999999 2.8 0.2
v -0.0999999 2.9 0.2
v 0.1 2.8 0.2
v 0.1 2.9 0.2
v 0.2 2.7 0.2
v 0.2 2.8 0.2
v -0.6 2.4 0.1
v -0.6 2.5 0.1
v -0.5 2.4 0.1
v -0.5 2.5 0.1
v -0.4 2.6 0.1
v -0.4 2.7 0.1
v -0.3 2.6 0.1
v -0.3 2.7 0.1
v -0.2 2.8 0.1
v -0.2 2.9 0.1
v -0.0999999 2.8 0.1
v -0.0999999 2.9 0.1
v -0.0999999 3.3 0.1
v 0.1 2.8 0.1
v 0.1 2.9 0.1
v 0.1 3 0.1
v 0.1 3.2 0.1
v 0.1 3.3 0.1
v 0.2 2.8 0.1
v 0.2 2.9 0.1
v 0.3 2.6 0.1
v 0.3 2.7 0.1
v 0.4 2.6 0.1
v 0.4 2.7 0.1
v 0.5 2.4 0.1
v 0.5 2.5 0.1
v 0.6 2.4 0.1
v 0.6 2.5 0.1
v 0.6 3 0.1
v 0.6 3.2 0.1
v -0.6 2.4 -0.1
v -0.6 2.5 -0.1
v -0.5 2.4 -0.1
v -0.5 2.5 -0.1
v -0.4 2.6 -0.1
v -0.4 2.7 -0.1
v -0.3 2.6 -0.1
v -0.3 2.7 -0.1
v -0.2 2.8 -0.1
v -0.2 2.9 -0.1
v -0.0999999 2.8 -0.1
v -0.0999999 2.9 -0.1
v -0.0999999 3.3 -0.1
v 0.1 2.8 -0.1
v 0.1 2.9 -0.1
v 0.1 3 -0.1
v 0.1 3.2 -0.1
v 0.1 3.3 -0.1
v 0.2 2.8 -0.1
v 0.2 2.9 -0.1
v 0.3 2.6 -0.1
v 0.3 2.7 -0.1
v 0.4 2.6 -0.1
v 0.4 2.7 -0.1
v 0.5 2.4 -0.1
v 0.5 2.5 -0.1
v 0.6 2.4 -0.1
v 0.6 2.5 -0.1
v 0.6 3 -0.1
v 0.6 3.2 -0.1
v -0.2 2.7 -0.2
v -0.2 2.8 -0.2
v -0.0999999 2.8 -0.2
v -0.0999999 2.9 -0.2
v 0.1 2.8 -0.2
v 0.1 2.9 -0.2
v 0.2 2.7 -0.2
v 0.2 2.8 -0.2
v -0.6 0 -0.3
v -0.6 2.4 -0.3
v -0.5 0 -0.3
v -0.5 2.4 -0.3
v -0.5 2.5 -0.3
v -0.4 2.4 -0.3
v -0.4 2.5 -0.3
v -0.4 2.6 -0.3
v -0.3 2.5 -0.3
v -0.3 2.6 -0.3
v -0.3 2.7 -0.3
v -0.0999999 2.6 -0.3
v -0.0999999 2.7 -0.3
v 0.1 2.6 -0.3
v 0.1 2.7 -0.3
v 0.3 2.5 -0.3
v 0.3 2.6 -0.3
v 0.3 2.7 -0.3
v 0.4 2.4 -0.3
v 0.4 2.5 -0.3
v 0.4 2.6 -0.3
v 0.5 0 -0.3
v 0.5 2.4 -0.3
v 0.5 2.5 -0.3
v 0.6 0 -0.3
v 0.6 2.4 -0.3
v -0.5 2.3 -0.4
v -0.5 2.4 -0.4
v -0.4 2.3 -0.4
v -0.4 2.4 -0.4
v -0.4 2.5 -0.4
v -0.3 2.4 -0.4
v -0.3 2.5 -0.4
v -0.3 2.6 -0.4
v -0.0999999 2.6 -0.4
v -0.0999999 2.7 -0.4
v 0.1 2.6 -0.4
v 0.1 2.7 -0.4
v 0.3 2.4 -0.4
v 0.3 2.5 -0.4
v 0.3 2.6 -0.4
v 0.4 2.3 -0.4
v 0.4 2.4 -0.4
v 0.4 2.5 -0.4
v 0.5 2.3 -0.4
v 0.5 2.4 -0.4
v -0.5 0 -0.5
v -0.5 2.3 -0.5
v -0.4 2.3 -0.5
v -0.4 2.4 -0.5
v -0.3 0 -0.5
v -0.3 2.4 -0.5
v -0.3 2.5 -0.5
v -0.0999999 2.4 -0.5
v -0.0999999 2.5 -0.5
v 0.1 2.4 -0.5
v 0.1 2.5 -0.5
v 0.3 0 -0.5
v 0.3 2.4 -0.5
v 0.3 2.5 -0.5
v 0.4 2.3 -0.5
v 0.4 2.4 -0.5
v 0.5 0 -0.5
v 0.5 2.3 -0.5
v -0.3 0 -0.6
v -0.3 2.4 -0.6
v -0.0999999 2.4 -0.6
v -0.0999999 2.5 -0.6
v 0.1 2.4 -0.6
v 0.1 2.5 -0.6
v 0.3 0 -0.6
v 0.3 2.4 -0.6
v -0.3 0 0.6
v 0.3 0 0.6
v -0.5 0 0.5
v -0.3 0 0.5
v 0.3 0 0.5
v 0.5 0 0.5
v -0.6 0 0.3
v -0.5 0 0.3
v 0.5 0 0.3
v 0.6 0 0.3
v -0.6 0 -0.3
v -0.5 0 -0.3
v 0.5 0 -0.3
v 0.6 0 -0.3
v -0.5 0 -0.5
v -0.3 0 -0.5
v 0.3 0 -0.5
v 0.5 0 -0.5
v -0.3 0 -0.6
v 0.3 0 -0.6
v 0.1 3 0.1
v 0.6 3 0.1
v 0.1 3 -0.1
v 0.6 3 -0.1
v -0.5 2.3 0.5
v -0.4 2.3 0.5
v 0.4 2.3 0.5
v 0.5 2.3 0.5
v -0.5 2.3 0.4
v -0.4 2.3 0.4
v 0.4 2.3 0.4
v 0.5 2.3 0.4
v -0.5 2.3 -0.4
v -0.4 2.3 -0.4
v 0.4 2.3 -0.4
v 0.5 2.3 -0.4
v -0.5 2.3 -0.5
v -0.4 2.3 -0.5
v 0.4 2.3 -0.5
v 0.5 2.3 -0.5
v -0.3 2.4 0.6
v -0.0999999 2.4 0.6
v 0.1 2.4 0.6
v 0.3 2.4 0.6
v -0.4 2.4 0.5
v -0.3 2.4 0.5
v -0.0999999 2.4 0.5
v 0.1 2.4 0.5
v 0.3 2.4 0.5
v 0.4 2.4 0.5
v -0.5 2.4 0.4
v -0.4 2.4 0.4
v -0.3 2.4 0.4
v 0.3 2.4 0.4
v 0.4 2.4 0.4
v 0.5 2.4 0.4
v -0.6 2.4 0.3
v -0.5 2.4 0.3
v -0.4 2.4 0.3
v 0.4 2.4 0.3
v 0.5 2.4 0.3
v 0.6 2.4 0.3
v -0.6 2.4 0.1
v -0.5 2.4 0.1
v 0.5 2.4 0.1
v 0.6 2.4 0.1
v -0.6 2.4 -0.1
v -0.5 2.4 -0.1
v 0.5 2.4 -0.1
v 0.6 2.4 -0.1
v -0.6 2.4 -0.3
v -0.5 2.4 -0.3
v -0.4 2.4 -0.3
v 0.4 2.4 -0.3
v 0.5 2.4 -0.3
v 0.6 2.4 -0.3
v -0.5 2.4 -0.4
v -0.4 2.4 -0.4
v -0.3 2.4 -0.4
v 0.3 2.4 -0.4
v 0.4 2.4 -0.4
v 0.5 2.4 -0.4
v -0.4 2.4 -0.5
v -0.3 2.4 -0.5
v -0.0999999 2.4 -0.5
v 0.1 2.4 -0.5
v 0.3 2.4 -0.5
v 0.4 2.4 -0.5
v -0.3 2.4 -0.6
v -0.0999999 2.4 -0.6
v 0.1 2.4 -0.6
v 0.3 2.4 -0.6
v -0.0999999 2.5 0.6
v 0.1 2.5 0.6
v -0.3 2.5 0.5
v -0.0999999 2.5 0.5
v 0.1 2.5 0.5
v 0.3 2.5 0.5
v -0.4 2.5 0.4
v -0.3 2.5 0.4
v 0.3 2.5 0.4
v 0.4 2.5 0.4
v -0.5 2.5 0.3
v -0.4 2.5 0.3
v -0.3 2.5 0.3
v 0.3 2.5 0.3
v 0.4 2.5 0.3
v 0.5 2.5 0.3
v -0.6 2.5 0.1
v -0.5 2.5 0.1
v 0.5 2.5 0.1
v 0.6 2.5 0.1
v -0.6 2.5 -0.1
v -0.5 2.5 -0.1
v 0.5 2.5 -0.1
v 0.6 2.5 -0.1
v -0.5 2.5 -0.3
v -0.4 2.5 -0.3
v -0.3 2.5 -0.3
v 0.3 2.5 -0.3
v 0.4 2.5 -0.3
v 0.5 2.5 -0.3
v -0.4 2.5 -0.4
v -0.3 2.5 -0.4
v 0.3 2.5 -0.4
v 0.4 2.5 -0.4
v -0.3 2.5 -0.5
v -0.0999999 2.5 -0.5
v 0.1 2.5 -0.5
v 0.3 2.5 -0.5
v -0.0999999 2.5 -0.6
v 0.1 2.5 -0.6
v -0.3 2.6 0.4
v -0.0999999 2.6 0.4
v 0.1 2.6 0.4
v 0.3 2.6 0.4
v -0.4 2.6 0.3
v -0.3 2.6 0.3
v -0.0999999 2.6 0.3
v 0.1 2.6 0.3
v 0.3 2.6 0.3
v 0.4 2.6 0.3
v -0.4 2.6 0.1
v -0.3 2.6 0.1
v 0.3 2.6 0.1
v 0.4 2.6 0.1
v -0.4 2.6 -0.1
v -0.3 2.6 -0.1
v 0.3 2.6 -0.1
v 0.4 2.6 -0.1
v -0.4 2.6 -0.3
v -0.3 2.6 -0.3
v -0.0999999 2.6 -0.3
v 0.1 2.6 -0.3
v 0.3 2.6 -0.3
v 0.4 2.6 -0.3
v -0.3 2.6 -0.4
v -0.0999999 2.6 -0.4
v 0.1 2.6 -0.4
v 0.3 2.6 -0.4
v -0.0999999 2.7 0.4
v 0.1 2.7 0.4
v -0.3 2.7 0.3
v -0.0999999 2.7 0.3
v 0.1 2.7 0.3
v 0.3 2.7 0.3
v -0.2 2.7 0.2
v 0.2 2.7 0.2
v -0.4 2.7 0.1
v -0.3 2.7 0.1
v 0.3 2.7 0.1
v 0.4 2.7 0.1
v -0.4 2.7 -0.1
v -0.3 2.7 -0.1
v 0.3 2.7 -0.1
v 0.4 2.7 -0.1
v -0.2 2.7 -0.2
v 0.2 2.7 -0.2
v -0.3 2.7 -0.3
v -0.0999999 2.7 -0.3
v 0.1 2.7 -0.3
v 0.3 2.7 -0.3
v -0.0999999 2.7 -0.4
v 0.1 2.7 -0.4
v -0.2 2.8 0.2
v -0.0999999 2.8 0.2
v 0.1 2.8 0.2
v 0.2 2.8 0.2
v -0.2 2.8 0.1
v -0.0999999 2.8 0.1
v 0.1 2.8 0.1
v 0.2 2.8 0.1
v -0.2 2.8 -0.1
v -0.0999999 2.8 -0.1
v 0.1 2.8 -0.1
v 0.2 2.8 -0.1
v -0.2 2.8 -0.2
v -0.0999999 2.8 -0.2
v 0.1 2.8 -0.2
v 0.2 2.8 -0.2
v -0.0999999 2.9 0.2
v 0.1 2.9 0.2
v -0.2 2.9 0.1
v -0.0999999 2.9 0.1
v 0.1 2.9 0.1
v 0.2 2.9 0.1
v -0.2 2.9 -0.1
v -0.0999999 2.9 -0.1
v 0.1 2.9 -0.1
v 0.2 2.9 -0.1
v -0.0999999 2.9 -0.2
v 0.1 2.9 -0.2
v 0.1 3.2 0.1
v 0.6 3.2 0.1
v 0.1 3.2 -0.1
v 0.6 3.2 -0.1
v -0.0999999 3.3 0.1
v 0.1 3.3 0.1
v -0.0999999 3.3 -0.1
v 0.1 3.3 -0.1

# faces
f 3/2/1 2/2/1 1/2/1
f 4/2/1 2/2/1 3/2/1
f 5/2/1 2/2/1 4/2/1
f 6/2/1 2/2/1 5/2/1
f 7/2/1 5/2/1 4/2/1
f 8/2/1 5/2/1 7/2/1
f 13/2/1 10/2/1 9/2/1
f 14/2/1 10/2/1 13/2/1
f 15/2/1 12/2/1 11/2/1
f 16/2/1 12/2/1 15/2/1
f 17/2/1 10/2/1 14/2/1
f 18/2/1 10/2/1 17/2/1
f 21/2/1 15/2/1 11/2/1
f 22/2/1 15/2/1 21/2/1
f 23/2/1 19/2/1 18/2/1
f 24/2/1 19/2/1 23/2/1
f 25/2/1 21/2/1 20/2/1
f 26/2/1 21/2/1 25/2/1
f 31/2/1 28/2/1 27/2/1
f 32/2/1 28/2/1 31/2/1
f 35/2/1 30/2/1 29/2/1
f 36/2/1 30/2/1 35/2/1
f 37/2/1 33/2/1 32/2/1
f 38/2/1 33/2/1 37/2/1
f 39/2/1 35/2/1 34/2/1
f 40/2/1 35/2/1 39/2/1
f 41/3/1 39/3/1 38/3/1
f 42/3/1 39/3/1 41/3/1
f 43/3/1 39/3/1 42/3/1
f 44/3/1 39/3/1 43/3/1
f 45/3/1 43/3/1 42/3/1
f 46/3/1 43/3/1 45/3/1
f 51/2/1 48/2/1 47/2/1
f 52/2/1 48/2/1 51/2/1
f 55/2/1 50/2/1 49/2/1
f 56/2/1 50/2/1 55/2/1
f 57/2/1 53/2/1 52/2/1
f 58/2/1 53/2/1 57/2/1
f 61/2/1 55/2/1 54/2/1
f 62/2/1 55/2/1 61/2/1
f 63/3/1 59/3/1 58/3/1
f 64/3/1 59/3/1 63/3/1
f 67/3/1 61/3/1 60/3/1
f 68/3/1 61/3/1 67/3/1
f 69/3/1 65/3/1 64/3/1
f 70/3/1 65/3/1 69/3/1
f 71/3/1 67/3/1 66/3/1
f 72/3/1 67/3/1 71/3/1
f 75/3/1 74/3/1 73/3/1
f 76/3/1 74/3/1 75/3/1
f 77/3/1 74/3/1 76/3/1
f 78/3/1 74/3/1 77/3/1
f 79/3/1 77/3/1 76/3/1
f 80/3/1 77/3/1 79/3/1
f 85/2/1 82/2/1 81/2/1
f 86/2/1 82/2/1 85/2/1
f 87/2/1 84/2/1 83/2/1
f 88/2/1 84/2/1 87/2/1
f 93/3/1 90/3/1 89/3/1
f 94/3/1 90/3/1 93/3/1
f 95/3/1 92/3/1 91/3/1
f 96/3/1 92/3/1 95/3/1
f 101/3/1 98/3/1 97/3/1
f 102/3/1 98/3/1 101/3/1
f 103/3/1 100/3/1 99/3/1
f 104/3/1 100/3/1 103/3/1
f 105/4/1 103/4/1 102/4/1
f 106/4/1 103/4/1 105/4/1
f 107/2/2 108/2/2 111/2/2
f 111/2/2 108/2/2 112/2/2
f 109/2/2 110/2/2 113/2/2
f 113/2/2 110/2/2 114/2/2
f 115/3/2 116/3/2 119/3/2
f 119/3/2 116/3/2 120/3/2
f 117/3/2 118/3/2 121/3/2
f 121/3/2 118/3/2 122/3/2
f 123/3/2 124/3/2 127/3/2
f 127/3/2 124/3/2 128/3/2
f 125/3/2 126/3/2 129/3/2
f 129/3/2 126/3/2 130/3/2
f 128/4/2 129/4/2 131/4/2
f 131/4/2 129/4/2 132/4/2
f 133/4/2 134/4/2 135/4/2
f 135/4/2 134/4/2 136/4/2
f 137/3/2 138/3/2 139/3/2
f 139/3/2 138/3/2 140/3/2
f 140/3/2 138/3/2 141/3/2
f 141/3/2 138/3/2 142/3/2
f 140/3/2 141/3/2 143/3/2
f 143/3/2 141/3/2 144/3/2
f 145/2/2 146/2/2 149/2/2
f 149/2/2 146/2/2 150/2/2
f 147/2/2 148/2/2 153/2/2
f 153/2/2 148/2/2 154/2/2
f 150/2/2 151/2/2 155/2/2
f 155/2/2 151/2/2 156/2/2
f 152/2/2 153/2/2 159/2/2
f 159/2/2 153/2/2 160/2/2
f 156/3/2 157/3/2 161/3/2
f 161/3/2 157/3/2 162/3/2
f 158/3/2 159/3/2 165/3/2
f 165/3/2 159/3/2 166/3/2
f 162/3/2 163/3/2 167/3/2
f 167/3/2 163/3/2 168/3/2
f 164/3/2 165/3/2 169/3/2
f 169/3/2 165/3/2 170/3/2
f 171/2/2 172/2/2 175/2/2
f 175/2/2 172/2/2 176/2/2
f 173/2/2 174/2/2 179/2/2
f 179/2/2 174/2/2 180/2/2
f 176/2/2 177/2/2 181/2/2
f 181/2/2 177/2/2 182/2/2
f 178/2/2 179/2/2 183/2/2
f 183/2/2 179/2/2 184/2/2
f 182/3/2 183/3/2 185/3/2
f 185/3/2 183/3/2 186/3/2
f 186/3/2 183/3/2 187/3/2
f 187/3/2 183/3/2 188/3/2
f 186/3/2 187/3/2 189/3/2
f 189/3/2 187/3/2 190/3/2
f 191/2/2 192/2/2 195/2/2
f 195/2/2 192/2/2 196/2/2
f 193/2/2 194/2/2 197/2/2
f 197/2/2 194/2/2 198/2/2
f 196/2/2 192/2/2 199/2/2
f 199/2/2 192/2/2 200/2/2
f 193/2/2 197/2/2 203/2/2
f 203/2/2 197/2/2 204/2/2
f 200/2/2 201/2/2 205/2/2
f 205/2/2 201/2/2 206/2/2
f 202/2/2 203/2/2 207/2/2
f 207/2/2 203/2/2 208/2/2
f 209/2/2 210/2/2 211/2/2
f 211/2/2 210/2/2 212/2/2
f 212/2/2 210/2/2 213/2/2
f 213/2/2 210/2/2 214/2/2
f 212/2/2 213/2/2 215/2/2
f 215/2/2 213/2/2 216/2/2
f 217/1/2 218/1/2 219/1/2
f 219/1/2 218/1/2 220/1/2
f 223/2/3 222/2/3 221/2/3
f 225/2/3 223/2/3 221/2/3
f 225/2/3 224/2/3 223/2/3
f 226/2/3 224/2/3 225/2/3
f 227/2/3 225/2/3 221/2/3
f 228/2/3 225/2/3 227/2/3
f 231/2/3 230/2/3 229/2/3
f 233/2/3 231/2/3 229/2/3
f 233/2/3 232/2/3 231/2/3
f 234/2/3 232/2/3 233/2/3
f 236/2/3 235/2/3 234/2/3
f 237/2/3 235/2/3 236/2/3
f 241/2/3 239/2/3 238/2/3
f 242/2/3 239/2/3 241/2/3
f 243/2/3 241/2/3 240/2/3
f 244/2/3 241/2/3 243/2/3
f 245/2/3 243/2/3 240/2/3
f 246/2/3 243/2/3 245/2/3
f 249/2/3 248/2/3 247/2/3
f 250/2/3 248/2/3 249/2/3
f 252/2/3 251/2/3 250/2/3
f 253/2/3 251/2/3 252/2/3
f 255/3/3 254/3/3 253/3/3
f 257/3/3 255/3/3 253/3/3
f 257/3/3 256/3/3 255/3/3
f 258/3/3 256/3/3 257/3/3
f 260/3/3 257/3/3 253/3/3
f 261/3/3 257/3/3 260/3/3
f 263/2/3 260/2/3 259/2/3
f 264/2/3 260/2/3 263/2/3
f 265/2/3 263/2/3 262/2/3
f 266/2/3 263/2/3 265/2/3
f 269/2/3 268/2/3 267/2/3
f 270/2/3 268/2/3 269/2/3
f 272/2/3 271/2/3 270/2/3
f 273/2/3 271/2/3 272/2/3
f 275/3/3 274/3/3 273/3/3
f 276/3/3 274/3/3 275/3/3
f 278/3/3 277/3/3 276/3/3
f 279/3/3 277/3/3 278/3/3
f 283/3/3 281/3/3 280/3/3
f 284/3/3 281/3/3 283/3/3
f 286/3/3 283/3/3 282/3/3
f 287/3/3 283/3/3 286/3/3
f 289/2/3 286/2/3 285/2/3
f 290/2/3 286/2/3 289/2/3
f 291/2/3 289/2/3 288/2/3
f 292/2/3 289/2/3 291/2/3
f 295/3/3 294/3/3 293/3/3
f 297/3/3 295/3/3 293/3/3
f 297/3/3 296/3/3 295/3/3
f 298/3/3 296/3/3 297/3/3
f 299/3/3 297/3/3 293/3/3
f 300/3/3 297/3/3 299/3/3
f 303/2/3 302/2/3 301/2/3
f 304/2/3 302/2/3 303/2/3
f 307/3/3 306/3/3 305/3/3
f 308/3/3 306/3/3 307/3/3
f 311/3/3 310/3/3 309/3/3
f 312/3/3 310/3/3 311/3/3
f 315/4/3 313/4/3 312/4/3
f 316/4/3 313/4/3 315/4/3
f 317/4/3 313/4/3 316/4/3
f 318/4/3 313/4/3 317/4/3
f 319/3/3 315/3/3 314/3/3
f 320/3/3 315/3/3 319/3/3
f 323/3/3 322/3/3 321/3/3
f 324/3/3 322/3/3 323/3/3
f 327/2/3 326/2/3 325/2/3
f 328/2/3 326/2/3 327/2/3
f 329/1/3 317/1/3 316/1/3
f 330/1/3 317/1/3 329/1/3
f 331/2/4 332/2/4 333/2/4
f 333/2/4 332/2/4 334/2/4
f 335/3/4 336/3/4 337/3/4
f 337/3/4 336/3/4 338/3/4
f 339/3/4 340/3/4 341/3/4
f 341/3/4 340/3/4 342/3/4
f 342/4/4 343/4/4 345/4/4
f 345/4/4 343/4/4 346/4/4
f 346/4/4 343/4/4 347/4/4
f 347/4/4 343/4/4 348/4/4
f 344/3/4 345/3/4 349/3/4
f 349/3/4 345/3/4 350/3/4
f 351/3/4 352/3/4 353/3/4
f 353/3/4 352/3/4 354/3/4
f 355/2/4 356/2/4 357/2/4
f 357/2/4 356/2/4 358/2/4
f 346/1/4 347/1/4 359/1/4
f 359/1/4 347/1/4 360/1/4
f 361/3/4 362/3/4 363/3/4
f 361/3/4 363/3/4 365/3/4
f 363/3/4 364/3/4 365/3/4
f 365/3/4 364/3/4 366/3/4
f 361/3/4 365/3/4 367/3/4
f 367/3/4 365/3/4 368/3/4
f 369/2/4 370/2/4 371/2/4
f 371/2/4 370/2/4 372/2/4
f 372/2/4 373/2/4 374/2/4
f 374/2/4 373/2/4 375/2/4
f 375/3/4 376/3/4 377/3/4
f 377/3/4 376/3/4 378/3/4
f 378/3/4 379/3/4 380/3/4
f 380/3/4 379/3/4 381/3/4
f 382/3/4 383/3/4 385/3/4
f 385/3/4 383/3/4 386/3/4
f 384/3/4 385/3/4 388/3/4
f 388/3/4 385/3/4 389/3/4
f 387/2/4 388/2/4 391/2/4
f 391/2/4 388/2/4 392/2/4
f 390/2/4 391/2/4 393/2/4
f 393/2/4 391/2/4 394/2/4
f 395/2/4 396/2/4 397/2/4
f 397/2/4 396/2/4 398/2/4
f 398/2/4 399/2/4 400/2/4
f 400/2/4 399/2/4 401/2/4
f 401/3/4 402/3/4 403/3/4
f 401/3/4 403/3/4 405/3/4
f 403/3/4 404/3/4 405/3/4
f 405/3/4 404/3/4 406/3/4
f 401/3/4 405/3/4 408/3/4
f 408/3/4 405/3/4 409/3/4
f 407/2/4 408/2/4 411/2/4
f 411/2/4 408/2/4 412/2/4
f 410/2/4 411/2/4 413/2/4
f 413/2/4 411/2/4 414/2/4
f 415/2/4 416/2/4 417/2/4
f 415/2/4 417/2/4 419/2/4
f 417/2/4 418/2/4 419/2/4
f 419/2/4 418/2/4 420/2/4
f 420/2/4 421/2/4 422/2/4
f 422/2/4 421/2/4 423/2/4
f 424/2/4 425/2/4 427/2/4
f 427/2/4 425/2/4 428/2/4
f 426/2/4 427/2/4 429/2/4
f 429/2/4 427/2/4 430/2/4
f 426/2/4 429/2/4 431/2/4
f 431/2/4 429/2/4 432/2/4
f 433/2/4 434/2/4 435/2/4
f 433/2/4 435/2/4 437/2/4
f 435/2/4 436/2/4 437/2/4
f 437/2/4 436/2/4 438/2/4
f 433/2/4 437/2/4 439/2/4
f 439/2/4 437/2/4 440/2/4
f 444/2/5 442/2/5 441/2/5
f 445/2/5 442/2/5 444/2/5
f 448/2/5 444/2/5 443/2/5
f 448/2/5 446/2/5 445/2/5
f 448/2/5 445/2/5 444/2/5
f 449/2/5 446/2/5 448/2/5
f 451/2/5 448/2/5 447/2/5
f 451/2/5 450/2/5 449/2/5
f 451/2/5 449/2/5 448/2/5
f 452/2/5 450/2/5 451/2/5
f 453/2/5 450/2/5 452/2/5
f 454/2/5 450/2/5 453/2/5
f 455/2/5 453/2/5 452/2/5
f 456/2/5 453/2/5 455/2/5
f 457/2/5 453/2/5 456/2/5
f 458/2/5 453/2/5 457/2/5
f 459/2/5 457/2/5 456/2/5
f 460/2/5 457/2/5 459/2/5
f 463/1/5 462/1/5 461/1/5
f 464/1/5 462/1/5 463/1/5
f 465/2/6 466/2/6 469/2/6
f 469/2/6 466/2/6 470/2/6
f 467/2/6 468/2/6 471/2/6
f 471/2/6 468/2/6 472/2/6
f 473/2/6 474/2/6 477/2/6
f 477/2/6 474/2/6 478/2/6
f 475/2/6 476/2/6 479/2/6
f 479/2/6 476/2/6 480/2/6
f 481/2/6 482/2/6 486/2/6
f 486/2/6 482/2/6 487/2/6
f 483/2/6 484/2/6 488/2/6
f 488/2/6 484/2/6 489/2/6
f 485/2/6 486/2/6 492/2/6
f 492/2/6 486/2/6 493/2/6
f 489/2/6 490/2/6 494/2/6
f 494/2/6 490/2/6 495/2/6
f 491/2/6 492/2/6 498/2/6
f 498/2/6 492/2/6 499/2/6
f 495/2/6 496/2/6 500/2/6
f 500/2/6 496/2/6 501/2/6
f 497/2/6 498/2/6 503/2/6
f 503/2/6 498/2/6 504/2/6
f 501/2/6 502/2/6 505/2/6
f 505/2/6 502/2/6 506/2/6
f 507/2/6 508/2/6 511/2/6
f 511/2/6 508/2/6 512/2/6
f 509/2/6 510/2/6 515/2/6
f 515/2/6 510/2/6 516/2/6
f 512/2/6 513/2/6 517/2/6
f 517/2/6 513/2/6 518/2/6
f 514/2/6 515/2/6 521/2/6
f 521/2/6 515/2/6 522/2/6
f 518/2/6 519/2/6 523/2/6
f 523/2/6 519/2/6 524/2/6
f 520/2/6 521/2/6 527/2/6
f 527/2/6 521/2/6 528/2/6
f 524/2/6 525/2/6 529/2/6
f 529/2/6 525/2/6 530/2/6
f 526/2/6 527/2/6 531/2/6
f 531/2/6 527/2/6 532/2/6
f 533/2/6 534/2/6 536/2/6
f 536/2/6 534/2/6 537/2/6
f 535/2/6 536/2/6 540/2/6
f 537/2/6 538/2/6 540/2/6
f 536/2/6 537/2/6 540/2/6
f 540/2/6 538/2/6 541/2/6
f 539/2/6 540/2/6 544/2/6
f 544/2/6 540/2/6 545/2/6
f 541/2/6 542/2/6 546/2/6
f 546/2/6 542/2/6 547/2/6
f 543/2/6 544/2/6 550/2/6
f 547/2/6 548/2/6 551/2/6
f 549/2/6 550/2/6 553/2/6
f 550/2/6 544/2/6 554/2/6
f 553/2/6 550/2/6 554/2/6
f 551/2/6 552/2/6 555/2/6
f 547/2/6 551/2/6 555/2/6
f 555/2/6 552/2/6 556/2/6
f 554/2/6 544/2/6 557/2/6
f 557/2/6 544/2/6 558/2/6
f 547/2/6 555/2/6 561/2/6
f 561/2/6 555/2/6 562/2/6
f 558/2/6 559/2/6 563/2/6
f 563/2/6 559/2/6 564/2/6
f 560/2/6 561/2/6 565/2/6
f 565/2/6 561/2/6 566/2/6
f 564/2/6 565/2/6 567/2/6
f 567/2/6 565/2/6 568/2/6
f 568/2/6 565/2/6 569/2/6
f 569/2/6 565/2/6 570/2/6
f 568/2/6 569/2/6 571/2/6
f 571/2/6 569/2/6 572/2/6
f 573/3/6 574/3/6 578/3/6
f 578/3/6 574/3/6 579/3/6
f 575/3/6 576/3/6 580/3/6
f 580/3/6 576/3/6 581/3/6
f 577/3/6 578/3/6 583/3/6
f 583/3/6 578/3/6 584/3/6
f 581/3/6 582/3/6 585/3/6
f 585/3/6 582/3/6 586/3/6
f 587/3/6 588/3/6 591/3/6
f 591/3/6 588/3/6 592/3/6
f 589/3/6 590/3/6 595/3/6
f 595/3/6 590/3/6 596/3/6
f 592/3/6 593/3/6 597/3/6
f 597/3/6 593/3/6 598/3/6
f 594/3/6 595/3/6 599/3/6
f 599/3/6 595/3/6 600/3/6
f 601/3/6 602/3/6 604/3/6
f 604/3/6 602/3/6 605/3/6
f 603/3/6 604/3/6 607/3/6
f 605/3/6 606/3/6 607/3/6
f 604/3/6 605/3/6 607/3/6
f 607/3/6 606/3/6 608/3/6
f 603/3/6 607/3/6 610/3/6
f 608/3/6 606/3/6 611/3/6
f 609/3/6 610/3/6 613/3/6
f 610/3/6 607/3/6 614/3/6
f 613/3/6 610/3/6 614/3/6
f 611/3/6 612/3/6 615/3/6
f 608/3/6 611/3/6 615/3/6
f 615/3/6 612/3/6 616/3/6
f 614/3/6 607/3/6 617/3/6
f 608/3/6 615/3/6 618/3/6
f 614/3/6 617/3/6 619/3/6
f 617/3/6 618/3/6 619/3/6
f 619/3/6 618/3/6 620/3/6
f 620/3/6 618/3/6 621/3/6
f 618/3/6 615/3/6 622/3/6
f 621/3/6 618/3/6 622/3/6
f 620/3/6 621/3/6 623/3/6
f 623/3/6 621/3/6 624/3/6
f 625/3/6 626/3/6 629/3/6
f 629/3/6 626/3/6 630/3/6
f 627/3/6 628/3/6 631/3/6
f 631/3/6 628/3/6 632/3/6
f 633/3/6 634/3/6 637/3/6
f 637/3/6 634/3/6 638/3/6
f 635/3/6 636/3/6 639/3/6
f 639/3/6 636/3/6 640/3/6
f 641/3/6 642/3/6 644/3/6
f 644/3/6 642/3/6 645/3/6
f 643/3/6 644/3/6 647/3/6
f 647/3/6 644/3/6 648/3/6
f 645/3/6 646/3/6 649/3/6
f 649/3/6 646/3/6 650/3/6
f 648/3/6 649/3/6 651/3/6
f 651/3/6 649/3/6 652/3/6
f 653/1/6 654/1/6 655/1/6
f 655/1/6 654/1/6 656/1/6
f 657/4/6 658/4/6 659/4/6
f 659/4/6 658/4/6 660/4/6
