# MagicaVoxel @ Ephtracy

# group
o 

# material
mtllib weaponkit.mtl
usemtl palette

# normals
vn -1 0 0
vn 1 0 0
vn 0 0 1
vn 0 0 -1
vn 0 -1 0
vn 0 1 0

# texcoords
vt 0.880859 0.5
vt 0.888672 0.5
vt 0.962891 0.5

# verts
v -1.5 1 1
v -1.5 1 -1
v -1.5 1.7 1
v -1.5 1.7 0.9
v -1.5 1.7 -0.9
v -1.5 1.7 -1
v -1.5 1.9 0.9
v -1.5 1.9 0.8
v -1.5 1.9 -0.8
v -1.5 1.9 -0.9
v -1.5 2 0.8
v -1.5 2 0.7
v -1.5 2 -0.7
v -1.5 2 -0.8
v -1.5 2.1 0.7
v -1.5 2.1 0.5
v -1.5 2.1 -0.5
v -1.5 2.1 -0.7
v -1.5 2.2 0.5
v -1.5 2.2 -0.5
v -1.4 0 0.9
v -1.4 0 -0.9
v -1.4 1 0.9
v -1.4 1 -0.9
v -0.5 2.2 0.1
v -0.5 2.2 -0.1
v -0.5 2.5 0.1
v -0.5 2.5 -0.1
v -0.4 2.5 0.1
v -0.4 2.5 -0.1
v -0.4 2.6 0.1
v -0.4 2.6 -0.1
v -0.2 0.6 1.1
v -0.2 0.6 0.9
v -0.2 1 1
v -0.2 1 0.9
v -0.2 1.2 1.1
v -0.2 1.2 1
v -0.2 2.6 0.1
v -0.2 2.6 -0.1
v -0.2 2.7 0.1
v -0.2 2.7 -0.1
v 0.2 2.5 0.1
v 0.2 2.5 -0.1
v 0.2 2.6 0.1
v 0.2 2.6 -0.1
v 0.4 2.2 0.1
v 0.4 2.2 -0.1
v 0.4 2.5 0.1
v 0.4 2.5 -0.1
v -0.4 2.2 0.1
v -0.4 2.2 -0.1
v -0.4 2.5 0.1
v -0.4 2.5 -0.1
v -0.2 2.5 0.1
v -0.2 2.5 -0.1
v -0.2 2.6 0.1
v -0.2 2.6 -0.1
v 0.2 0.6 1.1
v 0.2 0.6 0.9
v 0.2 1 1
v 0.2 1 0.9
v 0.2 1.2 1.1
v 0.2 1.2 1
v 0.2 2.6 0.1
v 0.2 2.6 -0.1
v 0.2 2.7 0.1
v 0.2 2.7 -0.1
v 0.4 2.5 0.1
v 0.4 2.5 -0.1
v 0.4 2.6 0.1
v 0.4 2.6 -0.1
v 0.5 2.2 0.1
v 0.5 2.2 -0.1
v 0.5 2.5 0.1
v 0.5 2.5 -0.1
v 1.4 0 0.9
v 1.4 0 -0.9
v 1.4 1 0.9
v 1.4 1 -0.9
v 1.5 1 1
v 1.5 1 -1
v 1.5 1.7 1
v 1.5 1.7 0.9
v 1.5 1.7 -0.9
v 1.5 1.7 -1
v 1.5 1.9 0.9
v 1.5 1.9 0.8
v 1.5 1.9 -0.8
v 1.5 1.9 -0.9
v 1.5 2 0.8
v 1.5 2 0.7
v 1.5 2 -0.7
v 1.5 2 -0.8
v 1.5 2.1 0.7
v 1.5 2.1 0.5
v 1.5 2.1 -0.5
v 1.5 2.1 -0.7
v 1.5 2.2 0.5
v 1.5 2.2 -0.5
v -0.2 0.6 1.1
v -0.2 1.2 1.1
v 0.2 0.6 1.1
v 0.2 1.2 1.1
v -1.5 1 1
v -1.5 1.7 1
v -0.2 1 1
v -0.2 1.2 1
v 0.2 1 1
v 0.2 1.2 1
v 1.5 1 1
v 1.5 1.7 1
v -1.5 1.7 0.9
v -1.5 1.9 0.9
v -1.4 0 0.9
v -1.4 1 0.9
v -1.3 0.1 0.9
v -1.3 0.3 0.9
v -1.2 0.3 0.9
v -1.2 0.4 0.9
v -1.1 0.1 0.9
v -1.1 0.2 0.9
v -1.1 0.4 0.9
v -1.1 0.5 0.9
v -1 0.2 0.9
v -1 0.3 0.9
v -1 0.5 0.9
v -1 0.8 0.9
v -0.9 0.3 0.9
v -0.9 0.4 0.9
v -0.9 0.6 0.9
v -0.9 0.7 0.9
v -0.9 0.8 0.9
v -0.9 0.9 0.9
v -0.8 0.5 0.9
v -0.8 0.6 0.9
v -0.8 0.7 0.9
v -0.8 0.8 0.9
v -0.7 0.5 0.9
v -0.7 0.6 0.9
v -0.7 0.8 0.9
v -0.7 0.9 0.9
v -0.6 0.4 0.9
v -0.6 0.5 0.9
v -0.6 0.6 0.9
v -0.6 0.7 0.9
v -0.5 0.5 0.9
v -0.5 0.7 0.9
v -0.2 0.6 0.9
v -0.2 1 0.9
v 0.2 0.6 0.9
v 0.2 1 0.9
v 0.3 0.5 0.9
v 0.3 0.6 0.9
v 0.5 0.4 0.9
v 0.5 0.5 0.9
v 0.5 0.6 0.9
v 0.5 0.7 0.9
v 0.6 0.6 0.9
v 0.6 0.7 0.9
v 0.7 0.3 0.9
v 0.7 0.4 0.9
v 0.8 0.2 0.9
v 0.8 0.3 0.9
v 0.8 0.4 0.9
v 1 0.1 0.9
v 1 0.2 0.9
v 1 0.3 0.9
v 1 0.4 0.9
v 1.1 0.5 0.9
v 1.1 0.6 0.9
v 1.1 0.7 0.9
v 1.2 0.1 0.9
v 1.2 0.5 0.9
v 1.2 0.6 0.9
v 1.2 0.7 0.9
v 1.4 0 0.9
v 1.4 1 0.9
v 1.5 1.7 0.9
v 1.5 1.9 0.9
v -1.5 1.9 0.8
v -1.5 2 0.8
v 1.5 1.9 0.8
v 1.5 2 0.8
v -1.5 2 0.7
v -1.5 2.1 0.7
v 1.5 2 0.7
v 1.5 2.1 0.7
v -1.5 2.1 0.5
v -1.5 2.2 0.5
v 1.5 2.1 0.5
v 1.5 2.2 0.5
v -0.5 2.2 0.1
v -0.5 2.5 0.1
v -0.4 2.2 0.1
v -0.4 2.5 0.1
v -0.4 2.6 0.1
v -0.2 2.5 0.1
v -0.2 2.6 0.1
v -0.2 2.7 0.1
v 0.2 2.5 0.1
v 0.2 2.6 0.1
v 0.2 2.7 0.1
v 0.4 2.2 0.1
v 0.4 2.5 0.1
v 0.4 2.6 0.1
v 0.5 2.2 0.1
v 0.5 2.5 0.1
v -0.5 2.2 -0.1
v -0.5 2.5 -0.1
v -0.4 2.2 -0.1
v -0.4 2.5 -0.1
v -0.4 2.6 -0.1
v -0.2 2.5 -0.1
v -0.2 2.6 -0.1
v -0.2 2.7 -0.1
v 0.2 2.5 -0.1
v 0.2 2.6 -0.1
v 0.2 2.7 -0.1
v 0.4 2.2 -0.1
v 0.4 2.5 -0.1
v 0.4 2.6 -0.1
v 0.5 2.2 -0.1
v 0.5 2.5 -0.1
v -1.5 2.1 -0.5
v -1.5 2.2 -0.5
v 1.5 2.1 -0.5
v 1.5 2.2 -0.5
v -1.5 2 -0.7
v -1.5 2.1 -0.7
v 1.5 2 -0.7
v 1.5 2.1 -0.7
v -1.5 1.9 -0.8
v -1.5 2 -0.8
v 1.5 1.9 -0.8
v 1.5 2 -0.8
v -1.5 1.7 -0.9
v -1.5 1.9 -0.9
v -1.4 0 -0.9
v -1.4 1 -0.9
v 1.4 0 -0.9
v 1.4 1 -0.9
v 1.5 1.7 -0.9
v 1.5 1.9 -0.9
v -1.5 1 -1
v -1.5 1.7 -1
v 1.5 1 -1
v 1.5 1.7 -1
v -1.4 0 0.9
v 1.4 0 0.9
v -1.4 0 -0.9
v 1.4 0 -0.9
v -0.2 0.6 1.1
v 0.2 0.6 1.1
v -0.2 0.6 0.9
v 0.2 0.6 0.9
v -1.5 1 1
v -0.2 1 1
v 0.2 1 1
v 1.5 1 1
v -1.4 1 0.9
v -0.2 1 0.9
v 0.2 1 0.9
v 1.4 1 0.9
v -1.4 1 -0.9
v 1.4 1 -0.9
v -1.5 1 -1
v 1.5 1 -1
v -0.4 2.5 0.1
v -0.2 2.5 0.1
v 0.2 2.5 0.1
v 0.4 2.5 0.1
v -0.4 2.5 -0.1
v -0.2 2.5 -0.1
v 0.2 2.5 -0.1
v 0.4 2.5 -0.1
v -0.2 2.6 0.1
v 0.2 2.6 0.1
v -0.2 2.6 -0.1
v 0.2 2.6 -0.1
v -0.2 1.2 1.1
v 0.2 1.2 1.1
v -0.2 1.2 1
v 0.2 1.2 1
v -1.5 1.7 1
v 1.5 1.7 1
v -1.5 1.7 0.9
v 1.5 1.7 0.9
v -1.5 1.7 -0.9
v 1.5 1.7 -0.9
v -1.5 1.7 -1
v 1.5 1.7 -1
v -1.5 1.9 0.9
v 1.5 1.9 0.9
v -1.5 1.9 0.8
v 1.5 1.9 0.8
v -1.5 1.9 -0.8
v 1.5 1.9 -0.8
v -1.5 1.9 -0.9
v 1.5 1.9 -0.9
v -1.5 2 0.8
v 1.5 2 0.8
v -1.5 2 0.7
v 1.5 2 0.7
v -1.5 2 -0.7
v 1.5 2 -0.7
v -1.5 2 -0.8
v 1.5 2 -0.8
v -1.5 2.1 0.7
v 1.5 2.1 0.7
v -1.5 2.1 0.5
v 1.5 2.1 0.5
v -1.5 2.1 -0.5
v 1.5 2.1 -0.5
v -1.5 2.1 -0.7
v 1.5 2.1 -0.7
v -1.5 2.2 0.5
v 1.5 2.2 0.5
v -0.5 2.2 0.1
v -0.4 2.2 0.1
v 0.4 2.2 0.1
v 0.5 2.2 0.1
v -0.5 2.2 -0.1
v -0.4 2.2 -0.1
v 0.4 2.2 -0.1
v 0.5 2.2 -0.1
v -1.5 2.2 -0.5
v 1.5 2.2 -0.5
v -0.5 2.5 0.1
v -0.4 2.5 0.1
v 0.4 2.5 0.1
v 0.5 2.5 0.1
v -0.5 2.5 -0.1
v -0.4 2.5 -0.1
v 0.4 2.5 -0.1
v 0.5 2.5 -0.1
v -0.4 2.6 0.1
v -0.2 2.6 0.1
v 0.2 2.6 0.1
v 0.4 2.6 0.1
v -0.4 2.6 -0.1
v -0.2 2.6 -0.1
v 0.2 2.6 -0.1
v 0.4 2.6 -0.1
v -0.2 2.7 0.1
v 0.2 2.7 0.1
v -0.2 2.7 -0.1
v 0.2 2.7 -0.1

# faces
f 3/2/1 2/2/1 1/2/1
f 4/2/1 2/2/1 3/2/1
f 5/2/1 2/2/1 4/2/1
f 6/2/1 2/2/1 5/2/1
f 7/2/1 5/2/1 4/2/1
f 8/2/1 5/2/1 7/2/1
f 9/2/1 5/2/1 8/2/1
f 10/2/1 5/2/1 9/2/1
f 11/2/1 9/2/1 8/2/1
f 12/2/1 9/2/1 11/2/1
f 13/2/1 9/2/1 12/2/1
f 14/2/1 9/2/1 13/2/1
f 15/2/1 13/2/1 12/2/1
f 16/2/1 13/2/1 15/2/1
f 17/2/1 13/2/1 16/2/1
f 18/2/1 13/2/1 17/2/1
f 19/2/1 17/2/1 16/2/1
f 20/2/1 17/2/1 19/2/1
f 23/2/1 22/2/1 21/2/1
f 24/2/1 22/2/1 23/2/1
f 27/3/1 26/3/1 25/3/1
f 28/3/1 26/3/1 27/3/1
f 31/3/1 30/3/1 29/3/1
f 32/3/1 30/3/1 31/3/1
f 35/3/1 34/3/1 33/3/1
f 36/3/1 34/3/1 35/3/1
f 37/3/1 35/3/1 33/3/1
f 38/3/1 35/3/1 37/3/1
f 41/3/1 40/3/1 39/3/1
f 42/3/1 40/3/1 41/3/1
f 45/3/1 44/3/1 43/3/1
f 46/3/1 44/3/1 45/3/1
f 49/3/1 48/3/1 47/3/1
f 50/3/1 48/3/1 49/3/1
f 51/3/2 52/3/2 53/3/2
f 53/3/2 52/3/2 54/3/2
f 55/3/2 56/3/2 57/3/2
f 57/3/2 56/3/2 58/3/2
f 59/3/2 60/3/2 61/3/2
f 61/3/2 60/3/2 62/3/2
f 59/3/2 61/3/2 63/3/2
f 63/3/2 61/3/2 64/3/2
f 65/3/2 66/3/2 67/3/2
f 67/3/2 66/3/2 68/3/2
f 69/3/2 70/3/2 71/3/2
f 71/3/2 70/3/2 72/3/2
f 73/3/2 74/3/2 75/3/2
f 75/3/2 74/3/2 76/3/2
f 77/2/2 78/2/2 79/2/2
f 79/2/2 78/2/2 80/2/2
f 81/2/2 82/2/2 83/2/2
f 83/2/2 82/2/2 84/2/2
f 84/2/2 82/2/2 85/2/2
f 85/2/2 82/2/2 86/2/2
f 84/2/2 85/2/2 87/2/2
f 87/2/2 85/2/2 88/2/2
f 88/2/2 85/2/2 89/2/2
f 89/2/2 85/2/2 90/2/2
f 88/2/2 89/2/2 91/2/2
f 91/2/2 89/2/2 92/2/2
f 92/2/2 89/2/2 93/2/2
f 93/2/2 89/2/2 94/2/2
f 92/2/2 93/2/2 95/2/2
f 95/2/2 93/2/2 96/2/2
f 96/2/2 93/2/2 97/2/2
f 97/2/2 93/2/2 98/2/2
f 96/2/2 97/2/2 99/2/2
f 99/2/2 97/2/2 100/2/2
f 103/3/3 102/3/3 101/3/3
f 104/3/3 102/3/3 103/3/3
f 107/2/3 106/2/3 105/2/3
f 108/2/3 106/2/3 107/2/3
f 110/2/3 106/2/3 108/2/3
f 111/2/3 110/2/3 109/2/3
f 112/2/3 106/2/3 110/2/3
f 112/2/3 110/2/3 111/2/3
f 117/2/3 116/2/3 115/2/3
f 118/2/3 116/2/3 117/2/3
f 119/1/3 118/1/3 117/1/3
f 119/2/3 116/2/3 118/2/3
f 120/2/3 116/2/3 119/2/3
f 121/2/3 117/2/3 115/2/3
f 121/1/3 119/1/3 117/1/3
f 121/1/3 120/1/3 119/1/3
f 122/1/3 120/1/3 121/1/3
f 123/2/3 116/2/3 120/2/3
f 123/1/3 120/1/3 122/1/3
f 124/2/3 116/2/3 123/2/3
f 125/2/3 122/2/3 121/2/3
f 125/1/3 123/1/3 122/1/3
f 125/1/3 124/1/3 123/1/3
f 126/1/3 124/1/3 125/1/3
f 127/2/3 116/2/3 124/2/3
f 127/1/3 124/1/3 126/1/3
f 128/2/3 116/2/3 127/2/3
f 129/2/3 126/2/3 125/2/3
f 129/1/3 127/1/3 126/1/3
f 129/1/3 128/1/3 127/1/3
f 130/1/3 128/1/3 129/1/3
f 131/1/3 128/1/3 130/1/3
f 132/1/3 128/1/3 131/1/3
f 133/2/3 116/2/3 128/2/3
f 133/1/3 128/1/3 132/1/3
f 134/2/3 116/2/3 133/2/3
f 135/1/3 131/1/3 130/1/3
f 136/2/3 132/2/3 131/2/3
f 136/1/3 131/1/3 135/1/3
f 137/1/3 133/1/3 132/1/3
f 137/2/3 132/2/3 136/2/3
f 137/1/3 134/1/3 133/1/3
f 138/1/3 134/1/3 137/1/3
f 139/1/3 135/1/3 130/1/3
f 139/2/3 136/2/3 135/2/3
f 139/2/3 138/2/3 137/2/3
f 139/2/3 137/2/3 136/2/3
f 140/2/3 138/2/3 139/2/3
f 141/1/3 134/1/3 138/1/3
f 141/2/3 138/2/3 140/2/3
f 142/2/3 116/2/3 134/2/3
f 142/1/3 134/1/3 141/1/3
f 143/1/3 140/1/3 139/1/3
f 143/2/3 130/2/3 129/2/3
f 143/1/3 139/1/3 130/1/3
f 144/1/3 140/1/3 143/1/3
f 145/2/3 142/2/3 141/2/3
f 145/1/3 140/1/3 144/1/3
f 145/2/3 141/2/3 140/2/3
f 146/2/3 142/2/3 145/2/3
f 147/2/3 144/2/3 143/2/3
f 147/1/3 145/1/3 144/1/3
f 147/1/3 146/1/3 145/1/3
f 148/2/3 142/2/3 146/2/3
f 148/1/3 146/1/3 147/1/3
f 149/2/3 148/2/3 147/2/3
f 150/2/3 116/2/3 142/2/3
f 150/2/3 148/2/3 149/2/3
f 150/2/3 142/2/3 148/2/3
f 151/2/3 149/2/3 147/2/3
f 153/2/3 147/2/3 143/2/3
f 153/2/3 152/2/3 151/2/3
f 153/2/3 151/2/3 147/2/3
f 154/2/3 152/2/3 153/2/3
f 155/2/3 143/2/3 129/2/3
f 155/2/3 153/2/3 143/2/3
f 156/1/3 154/1/3 153/1/3
f 156/2/3 153/2/3 155/2/3
f 157/2/3 152/2/3 154/2/3
f 157/1/3 154/1/3 156/1/3
f 158/2/3 152/2/3 157/2/3
f 159/1/3 156/1/3 155/1/3
f 159/1/3 157/1/3 156/1/3
f 159/1/3 158/1/3 157/1/3
f 160/2/3 152/2/3 158/2/3
f 160/1/3 158/1/3 159/1/3
f 161/2/3 129/2/3 125/2/3
f 161/2/3 155/2/3 129/2/3
f 162/1/3 159/1/3 155/1/3
f 162/2/3 155/2/3 161/2/3
f 163/2/3 125/2/3 121/2/3
f 163/2/3 161/2/3 125/2/3
f 164/1/3 162/1/3 161/1/3
f 164/2/3 161/2/3 163/2/3
f 165/1/3 159/1/3 162/1/3
f 165/1/3 162/1/3 164/1/3
f 166/2/3 121/2/3 115/2/3
f 166/2/3 163/2/3 121/2/3
f 167/1/3 164/1/3 163/1/3
f 167/2/3 163/2/3 166/2/3
f 168/2/3 165/2/3 164/2/3
f 168/1/3 164/1/3 167/1/3
f 169/1/3 159/1/3 165/1/3
f 169/2/3 165/2/3 168/2/3
f 170/1/3 168/1/3 167/1/3
f 170/1/3 159/1/3 169/1/3
f 170/1/3 169/1/3 168/1/3
f 170/1/3 167/1/3 166/1/3
f 171/2/3 160/2/3 159/2/3
f 171/1/3 159/1/3 170/1/3
f 172/2/3 152/2/3 160/2/3
f 172/2/3 160/2/3 171/2/3
f 173/1/3 170/1/3 166/1/3
f 173/2/3 166/2/3 115/2/3
f 174/2/3 171/2/3 170/2/3
f 174/1/3 170/1/3 173/1/3
f 175/1/3 172/1/3 171/1/3
f 175/2/3 171/2/3 174/2/3
f 176/2/3 152/2/3 172/2/3
f 176/1/3 172/1/3 175/1/3
f 177/2/3 175/2/3 174/2/3
f 177/2/3 174/2/3 173/2/3
f 177/2/3 176/2/3 175/2/3
f 177/2/3 173/2/3 115/2/3
f 178/2/3 152/2/3 176/2/3
f 178/2/3 176/2/3 177/2/3
f 179/2/3 114/2/3 113/2/3
f 180/2/3 114/2/3 179/2/3
f 183/2/3 182/2/3 181/2/3
f 184/2/3 182/2/3 183/2/3
f 187/2/3 186/2/3 185/2/3
f 188/2/3 186/2/3 187/2/3
f 191/2/3 190/2/3 189/2/3
f 192/2/3 190/2/3 191/2/3
f 195/3/3 194/3/3 193/3/3
f 196/3/3 194/3/3 195/3/3
f 198/3/3 197/3/3 196/3/3
f 199/3/3 197/3/3 198/3/3
f 202/3/3 200/3/3 199/3/3
f 203/3/3 200/3/3 202/3/3
f 205/3/3 202/3/3 201/3/3
f 206/3/3 202/3/3 205/3/3
f 207/3/3 205/3/3 204/3/3
f 208/3/3 205/3/3 207/3/3
f 209/3/4 210/3/4 211/3/4
f 211/3/4 210/3/4 212/3/4
f 212/3/4 213/3/4 214/3/4
f 214/3/4 213/3/4 215/3/4
f 215/3/4 216/3/4 218/3/4
f 218/3/4 216/3/4 219/3/4
f 217/3/4 218/3/4 221/3/4
f 221/3/4 218/3/4 222/3/4
f 220/3/4 221/3/4 223/3/4
f 223/3/4 221/3/4 224/3/4
f 225/2/4 226/2/4 227/2/4
f 227/2/4 226/2/4 228/2/4
f 229/2/4 230/2/4 231/2/4
f 231/2/4 230/2/4 232/2/4
f 233/2/4 234/2/4 235/2/4
f 235/2/4 234/2/4 236/2/4
f 239/2/4 240/2/4 241/2/4
f 241/2/4 240/2/4 242/2/4
f 237/2/4 238/2/4 243/2/4
f 243/2/4 238/2/4 244/2/4
f 245/2/4 246/2/4 247/2/4
f 247/2/4 246/2/4 248/2/4
f 251/2/5 250/2/5 249/2/5
f 252/2/5 250/2/5 251/2/5
f 255/3/5 254/3/5 253/3/5
f 256/3/5 254/3/5 255/3/5
f 261/2/5 258/2/5 257/2/5
f 262/2/5 258/2/5 261/2/5
f 263/2/5 260/2/5 259/2/5
f 264/2/5 260/2/5 263/2/5
f 265/2/5 261/2/5 257/2/5
f 266/2/5 260/2/5 264/2/5
f 267/2/5 265/2/5 257/2/5
f 267/2/5 266/2/5 265/2/5
f 268/2/5 260/2/5 266/2/5
f 268/2/5 266/2/5 267/2/5
f 273/3/5 270/3/5 269/3/5
f 274/3/5 270/3/5 273/3/5
f 275/3/5 272/3/5 271/3/5
f 276/3/5 272/3/5 275/3/5
f 279/3/5 278/3/5 277/3/5
f 280/3/5 278/3/5 279/3/5
f 281/3/6 282/3/6 283/3/6
f 283/3/6 282/3/6 284/3/6
f 285/2/6 286/2/6 287/2/6
f 287/2/6 286/2/6 288/2/6
f 289/2/6 290/2/6 291/2/6
f 291/2/6 290/2/6 292/2/6
f 293/2/6 294/2/6 295/2/6
f 295/2/6 294/2/6 296/2/6
f 297/2/6 298/2/6 299/2/6
f 299/2/6 298/2/6 300/2/6
f 301/2/6 302/2/6 303/2/6
f 303/2/6 302/2/6 304/2/6
f 305/2/6 306/2/6 307/2/6
f 307/2/6 306/2/6 308/2/6
f 309/2/6 310/2/6 311/2/6
f 311/2/6 310/2/6 312/2/6
f 313/2/6 314/2/6 315/2/6
f 315/2/6 314/2/6 316/2/6
f 317/2/6 318/2/6 319/2/6
f 319/2/6 318/2/6 320/2/6
f 320/2/6 318/2/6 321/2/6
f 321/2/6 318/2/6 322/2/6
f 317/2/6 319/2/6 323/2/6
f 320/2/6 321/2/6 324/2/6
f 324/2/6 321/2/6 325/2/6
f 322/2/6 318/2/6 326/2/6
f 324/2/6 325/2/6 327/2/6
f 325/2/6 326/2/6 327/2/6
f 317/2/6 323/2/6 327/2/6
f 323/2/6 324/2/6 327/2/6
f 326/2/6 318/2/6 328/2/6
f 327/2/6 326/2/6 328/2/6
f 329/3/6 330/3/6 333/3/6
f 333/3/6 330/3/6 334/3/6
f 331/3/6 332/3/6 335/3/6
f 335/3/6 332/3/6 336/3/6
f 337/3/6 338/3/6 341/3/6
f 341/3/6 338/3/6 342/3/6
f 339/3/6 340/3/6 343/3/6
f 343/3/6 340/3/6 344/3/6
f 345/3/6 346/3/6 347/3/6
f 347/3/6 346/3/6 348/3/6
