# MagicaVoxel @ Ephtracy

# group
o 

# material
mtllib yasiki_wall2.mtl
usemtl palette

# normals
vn -1 0 0
vn 1 0 0
vn 0 0 1
vn 0 0 -1
vn 0 -1 0
vn 0 1 0

# texcoords
vt 0.205078 0.5
vt 0.958984 0.5

# verts
v -2 0 1.49012e-008
v -2 0 -0.2
v -2 1.9 0.1
v -2 1.9 1.49012e-008
v -2 2.1 0.1
v -2 2.1 1.49012e-008
v -2 2.2 0.1
v -2 2.2 1.49012e-008
v -2 2.6 0.1
v -2 2.6 -0.1
v -2 2.6 -0.2
v -2 7.2 1.49012e-008
v -2 7.2 -0.1
v -2 8 1.49012e-008
v -2 8 -0.2
v -1.4 0 1.49012e-008
v -1.4 0 -0.1
v -1.4 1.9 1.49012e-008
v -1.4 1.9 -0.1
v -0.8 0 1.49012e-008
v -0.8 0 -0.1
v -0.8 1.9 1.49012e-008
v -0.8 1.9 -0.1
v -0.2 0 1.49012e-008
v -0.2 0 -0.1
v -0.2 1.9 1.49012e-008
v -0.2 1.9 -0.1
v 0.4 0 1.49012e-008
v 0.4 0 -0.1
v 0.4 1.9 1.49012e-008
v 0.4 1.9 -0.1
v 1 0 1.49012e-008
v 1 0 -0.1
v 1 1.9 1.49012e-008
v 1 1.9 -0.1
v 1.6 0 1.49012e-008
v 1.6 0 -0.1
v 1.6 1.9 1.49012e-008
v 1.6 1.9 -0.1
v -1.6 0 1.49012e-008
v -1.6 0 -0.1
v -1.6 1.9 1.49012e-008
v -1.6 1.9 -0.1
v -1 0 1.49012e-008
v -1 0 -0.1
v -1 1.9 1.49012e-008
v -1 1.9 -0.1
v -0.4 0 1.49012e-008
v -0.4 0 -0.1
v -0.4 1.9 1.49012e-008
v -0.4 1.9 -0.1
v 0.2 0 1.49012e-008
v 0.2 0 -0.1
v 0.2 1.9 1.49012e-008
v 0.2 1.9 -0.1
v 0.8 0 1.49012e-008
v 0.8 0 -0.1
v 0.8 1.9 1.49012e-008
v 0.8 1.9 -0.1
v 1.4 0 1.49012e-008
v 1.4 0 -0.1
v 1.4 1.9 1.49012e-008
v 1.4 1.9 -0.1
v 2 0 1.49012e-008
v 2 0 -0.2
v 2 1.9 0.1
v 2 1.9 1.49012e-008
v 2 2.1 0.1
v 2 2.1 1.49012e-008
v 2 2.2 0.1
v 2 2.2 1.49012e-008
v 2 2.6 0.1
v 2 2.6 -0.1
v 2 2.6 -0.2
v 2 7.2 1.49012e-008
v 2 7.2 -0.1
v 2 8 1.49012e-008
v 2 8 -0.2
v -2 1.9 0.1
v -2 2.1 0.1
v -2 2.2 0.1
v -2 2.6 0.1
v 2 1.9 0.1
v 2 2.1 0.1
v 2 2.2 0.1
v 2 2.6 0.1
v -2 0 1.49012e-008
v -2 1.9 1.49012e-008
v -2 2.1 1.49012e-008
v -2 2.2 1.49012e-008
v -2 7.2 1.49012e-008
v -2 8 1.49012e-008
v -1.6 0 1.49012e-008
v -1.6 1.9 1.49012e-008
v -1.4 0 1.49012e-008
v -1.4 1.9 1.49012e-008
v -1 0 1.49012e-008
v -1 1.9 1.49012e-008
v -0.8 0 1.49012e-008
v -0.8 1.9 1.49012e-008
v -0.4 0 1.49012e-008
v -0.4 1.9 1.49012e-008
v -0.2 0 1.49012e-008
v -0.2 1.9 1.49012e-008
v 0.2 0 1.49012e-008
v 0.2 1.9 1.49012e-008
v 0.4 0 1.49012e-008
v 0.4 1.9 1.49012e-008
v 0.8 0 1.49012e-008
v 0.8 1.9 1.49012e-008
v 1 0 1.49012e-008
v 1 1.9 1.49012e-008
v 1.4 0 1.49012e-008
v 1.4 1.9 1.49012e-008
v 1.6 0 1.49012e-008
v 1.6 1.9 1.49012e-008
v 2 0 1.49012e-008
v 2 1.9 1.49012e-008
v 2 2.1 1.49012e-008
v 2 2.2 1.49012e-008
v 2 7.2 1.49012e-008
v 2 8 1.49012e-008
v -2 2.6 -0.1
v -2 7.2 -0.1
v -1.6 0 -0.1
v -1.6 1.9 -0.1
v -1.4 0 -0.1
v -1.4 1.9 -0.1
v -1 0 -0.1
v -1 1.9 -0.1
v -0.8 0 -0.1
v -0.8 1.9 -0.1
v -0.4 0 -0.1
v -0.4 1.9 -0.1
v -0.2 0 -0.1
v -0.2 1.9 -0.1
v 0.2 0 -0.1
v 0.2 1.9 -0.1
v 0.4 0 -0.1
v 0.4 1.9 -0.1
v 0.8 0 -0.1
v 0.8 1.9 -0.1
v 1 0 -0.1
v 1 1.9 -0.1
v 1.4 0 -0.1
v 1.4 1.9 -0.1
v 1.6 0 -0.1
v 1.6 1.9 -0.1
v 2 2.6 -0.1
v 2 7.2 -0.1
v -2 0 -0.2
v -2 2.6 -0.2
v -2 8 -0.2
v 2 0 -0.2
v 2 2.6 -0.2
v 2 8 -0.2
v -2 0 1.49012e-008
v -1.6 0 1.49012e-008
v -1.4 0 1.49012e-008
v -1 0 1.49012e-008
v -0.8 0 1.49012e-008
v -0.4 0 1.49012e-008
v -0.2 0 1.49012e-008
v 0.2 0 1.49012e-008
v 0.4 0 1.49012e-008
v 0.8 0 1.49012e-008
v 1 0 1.49012e-008
v 1.4 0 1.49012e-008
v 1.6 0 1.49012e-008
v 2 0 1.49012e-008
v -1.6 0 -0.1
v -1.4 0 -0.1
v -1 0 -0.1
v -0.8 0 -0.1
v -0.4 0 -0.1
v -0.2 0 -0.1
v 0.2 0 -0.1
v 0.4 0 -0.1
v 0.8 0 -0.1
v 1 0 -0.1
v 1.4 0 -0.1
v 1.6 0 -0.1
v -2 0 -0.2
v 2 0 -0.2
v -2 1.9 0.1
v 2 1.9 0.1
v -2 1.9 1.49012e-008
v -1.6 1.9 1.49012e-008
v -1.4 1.9 1.49012e-008
v -1 1.9 1.49012e-008
v -0.8 1.9 1.49012e-008
v -0.4 1.9 1.49012e-008
v -0.2 1.9 1.49012e-008
v 0.2 1.9 1.49012e-008
v 0.4 1.9 1.49012e-008
v 0.8 1.9 1.49012e-008
v 1 1.9 1.49012e-008
v 1.4 1.9 1.49012e-008
v 1.6 1.9 1.49012e-008
v 2 1.9 1.49012e-008
v -1.6 1.9 -0.1
v -1.4 1.9 -0.1
v -1 1.9 -0.1
v -0.8 1.9 -0.1
v -0.4 1.9 -0.1
v -0.2 1.9 -0.1
v 0.2 1.9 -0.1
v 0.4 1.9 -0.1
v 0.8 1.9 -0.1
v 1 1.9 -0.1
v 1.4 1.9 -0.1
v 1.6 1.9 -0.1
v -2 2.2 0.1
v 2 2.2 0.1
v -2 2.2 1.49012e-008
v 2 2.2 1.49012e-008
v -2 7.2 1.49012e-008
v 2 7.2 1.49012e-008
v -2 7.2 -0.1
v 2 7.2 -0.1
v -2 2.1 0.1
v 2 2.1 0.1
v -2 2.1 1.49012e-008
v 2 2.1 1.49012e-008
v -2 2.6 0.1
v 2 2.6 0.1
v -2 2.6 -0.1
v 2 2.6 -0.1
v -2 8 1.49012e-008
v 2 8 1.49012e-008
v -2 8 -0.2
v 2 8 -0.2

# faces
f 4/1/1 2/1/1 1/1/1
f 5/1/1 4/1/1 3/1/1
f 6/1/1 2/1/1 4/1/1
f 6/1/1 4/1/1 5/1/1
f 8/1/1 2/1/1 6/1/1
f 9/1/1 8/1/1 7/1/1
f 10/1/1 2/1/1 8/1/1
f 10/1/1 8/1/1 9/1/1
f 11/1/1 2/1/1 10/1/1
f 13/2/1 11/2/1 10/2/1
f 14/2/1 13/2/1 12/2/1
f 15/2/1 11/2/1 13/2/1
f 15/2/1 13/2/1 14/2/1
f 18/1/1 17/1/1 16/1/1
f 19/1/1 17/1/1 18/1/1
f 22/1/1 21/1/1 20/1/1
f 23/1/1 21/1/1 22/1/1
f 26/1/1 25/1/1 24/1/1
f 27/1/1 25/1/1 26/1/1
f 30/1/1 29/1/1 28/1/1
f 31/1/1 29/1/1 30/1/1
f 34/1/1 33/1/1 32/1/1
f 35/1/1 33/1/1 34/1/1
f 38/1/1 37/1/1 36/1/1
f 39/1/1 37/1/1 38/1/1
f 40/1/2 41/1/2 42/1/2
f 42/1/2 41/1/2 43/1/2
f 44/1/2 45/1/2 46/1/2
f 46/1/2 45/1/2 47/1/2
f 48/1/2 49/1/2 50/1/2
f 50/1/2 49/1/2 51/1/2
f 52/1/2 53/1/2 54/1/2
f 54/1/2 53/1/2 55/1/2
f 56/1/2 57/1/2 58/1/2
f 58/1/2 57/1/2 59/1/2
f 60/1/2 61/1/2 62/1/2
f 62/1/2 61/1/2 63/1/2
f 64/1/2 65/1/2 67/1/2
f 66/1/2 67/1/2 68/1/2
f 67/1/2 65/1/2 69/1/2
f 68/1/2 67/1/2 69/1/2
f 69/1/2 65/1/2 71/1/2
f 70/1/2 71/1/2 72/1/2
f 71/1/2 65/1/2 73/1/2
f 72/1/2 71/1/2 73/1/2
f 73/1/2 65/1/2 74/1/2
f 73/2/2 74/2/2 76/2/2
f 75/2/2 76/2/2 77/2/2
f 76/2/2 74/2/2 78/2/2
f 77/2/2 76/2/2 78/2/2
f 83/1/3 80/1/3 79/1/3
f 84/1/3 80/1/3 83/1/3
f 85/1/3 82/1/3 81/1/3
f 86/1/3 82/1/3 85/1/3
f 93/1/3 88/1/3 87/1/3
f 94/1/3 88/1/3 93/1/3
f 97/1/3 96/1/3 95/1/3
f 98/1/3 96/1/3 97/1/3
f 101/1/3 100/1/3 99/1/3
f 102/1/3 100/1/3 101/1/3
f 105/1/3 104/1/3 103/1/3
f 106/1/3 104/1/3 105/1/3
f 109/1/3 108/1/3 107/1/3
f 110/1/3 108/1/3 109/1/3
f 113/1/3 112/1/3 111/1/3
f 114/1/3 112/1/3 113/1/3
f 117/1/3 116/1/3 115/1/3
f 118/1/3 116/1/3 117/1/3
f 119/1/3 90/1/3 89/1/3
f 120/1/3 90/1/3 119/1/3
f 121/2/3 92/2/3 91/2/3
f 122/2/3 92/2/3 121/2/3
f 127/1/3 126/1/3 125/1/3
f 128/1/3 126/1/3 127/1/3
f 131/1/3 130/1/3 129/1/3
f 132/1/3 130/1/3 131/1/3
f 135/1/3 134/1/3 133/1/3
f 136/1/3 134/1/3 135/1/3
f 139/1/3 138/1/3 137/1/3
f 140/1/3 138/1/3 139/1/3
f 143/1/3 142/1/3 141/1/3
f 144/1/3 142/1/3 143/1/3
f 147/1/3 146/1/3 145/1/3
f 148/1/3 146/1/3 147/1/3
f 149/2/3 124/2/3 123/2/3
f 150/2/3 124/2/3 149/2/3
f 151/1/4 152/1/4 154/1/4
f 152/2/4 153/2/4 155/2/4
f 154/1/4 152/1/4 155/1/4
f 155/2/4 153/2/4 156/2/4
f 171/1/5 158/1/5 157/1/5
f 172/1/5 160/1/5 159/1/5
f 173/1/5 160/1/5 172/1/5
f 174/1/5 162/1/5 161/1/5
f 175/1/5 162/1/5 174/1/5
f 176/1/5 164/1/5 163/1/5
f 177/1/5 164/1/5 176/1/5
f 178/1/5 166/1/5 165/1/5
f 179/1/5 166/1/5 178/1/5
f 180/1/5 168/1/5 167/1/5
f 181/1/5 168/1/5 180/1/5
f 182/1/5 170/1/5 169/1/5
f 183/1/5 181/1/5 180/1/5
f 183/1/5 182/1/5 181/1/5
f 183/1/5 171/1/5 157/1/5
f 183/1/5 173/1/5 172/1/5
f 183/1/5 180/1/5 179/1/5
f 183/1/5 175/1/5 174/1/5
f 183/1/5 178/1/5 177/1/5
f 183/1/5 177/1/5 176/1/5
f 183/1/5 176/1/5 175/1/5
f 183/1/5 179/1/5 178/1/5
f 183/1/5 174/1/5 173/1/5
f 183/1/5 172/1/5 171/1/5
f 184/1/5 170/1/5 182/1/5
f 184/1/5 182/1/5 183/1/5
f 187/1/5 186/1/5 185/1/5
f 188/1/5 186/1/5 187/1/5
f 189/1/5 186/1/5 188/1/5
f 190/1/5 186/1/5 189/1/5
f 191/1/5 186/1/5 190/1/5
f 192/1/5 186/1/5 191/1/5
f 193/1/5 186/1/5 192/1/5
f 194/1/5 186/1/5 193/1/5
f 195/1/5 186/1/5 194/1/5
f 196/1/5 186/1/5 195/1/5
f 197/1/5 186/1/5 196/1/5
f 198/1/5 186/1/5 197/1/5
f 199/1/5 186/1/5 198/1/5
f 200/1/5 186/1/5 199/1/5
f 201/1/5 189/1/5 188/1/5
f 202/1/5 189/1/5 201/1/5
f 203/1/5 191/1/5 190/1/5
f 204/1/5 191/1/5 203/1/5
f 205/1/5 193/1/5 192/1/5
f 206/1/5 193/1/5 205/1/5
f 207/1/5 195/1/5 194/1/5
f 208/1/5 195/1/5 207/1/5
f 209/1/5 197/1/5 196/1/5
f 210/1/5 197/1/5 209/1/5
f 211/1/5 199/1/5 198/1/5
f 212/1/5 199/1/5 211/1/5
f 215/1/5 214/1/5 213/1/5
f 216/1/5 214/1/5 215/1/5
f 219/2/5 218/2/5 217/2/5
f 220/2/5 218/2/5 219/2/5
f 221/1/6 222/1/6 223/1/6
f 223/1/6 222/1/6 224/1/6
f 225/1/6 226/1/6 227/1/6
f 227/1/6 226/1/6 228/1/6
f 229/2/6 230/2/6 231/2/6
f 231/2/6 230/2/6 232/2/6
