# MagicaVoxel @ Ephtracy

# group
o 

# material
mtllib gun10.mtl
usemtl palette

# normals
vn -1 0 0
vn 1 0 0
vn 0 0 1
vn 0 0 -1
vn 0 -1 0
vn 0 1 0

# texcoords
vt 0.814453 0.5
vt 0.841797 0.5
vt 0.904297 0.5
vt 0.986328 0.5
vt 0.990234 0.5
vt 0.994141 0.5

# verts
v -3.6 0.3 0.5
v -3.6 0.3 -1
v -3.6 0.6 0.2
v -3.6 0.6 -0.7
v -3.6 1.5 0.2
v -3.6 1.5 -0.7
v -3.6 1.8 0.5
v -3.6 1.8 -1
v -1.7 0.6 0.2
v -1.7 0.6 -0.7
v -1.7 1.5 0.2
v -1.7 1.5 -0.7
v 0.7 0.8 1.4
v 0.7 0.8 0.8
v 0.7 1.3 1.4
v 0.7 1.3 0.8
v 0.8 0.8 0.8
v 0.8 0.8 0.3
v 0.8 1.3 0.8
v 0.8 1.3 0.3
v 1.1 1 -1.1
v 1.1 1 -1.3
v 1.1 1.1 -1.1
v 1.1 1.1 -1.3
v 1.2 0.4 0.4
v 1.2 0.4 -0.5
v 1.2 0.5 0.3
v 1.2 0.5 0
v 1.2 0.5 -0.2
v 1.2 0.5 -0.5
v 1.2 0.5 -0.8
v 1.2 0.6 0
v 1.2 0.6 -0.2
v 1.2 0.6 -0.5
v 1.2 0.6 -0.7
v 1.2 0.8 0.4
v 1.2 0.8 0.3
v 1.2 1.3 0.4
v 1.2 1.3 0.3
v 1.2 1.5 0
v 1.2 1.5 -0.2
v 1.2 1.5 -0.5
v 1.2 1.5 -0.7
v 1.2 1.6 0.3
v 1.2 1.6 0
v 1.2 1.6 -0.2
v 1.2 1.6 -0.5
v 1.2 1.6 -0.8
v 1.2 1.7 0.4
v 1.2 1.7 -0.5
v 1.3 0.9 -0.8
v 1.3 0.9 -1.4
v 1.3 1 -1.1
v 1.3 1 -1.3
v 1.3 1.1 -1.1
v 1.3 1.1 -1.3
v 1.3 1.2 -0.8
v 1.3 1.2 -1.4
v 1.4 1 0.6
v 1.4 1 0.5
v 1.4 1.1 0.6
v 1.4 1.1 0.5
v 1.5 1 0.5
v 1.5 1 0.2
v 1.5 1.1 0.5
v 1.5 1.1 0.2
v 1.6 1 0.7
v 1.6 1 0.6
v 1.6 1.1 0.7
v 1.6 1.1 0.6
v 1.7 0.9 0.7
v 1.7 0.9 0.6
v 1.7 1 0.7
v 1.7 1 0.6
v 1.7 1.1 0.7
v 1.7 1.1 0.6
v 1.7 1.2 0.7
v 1.7 1.2 0.6
v 1.8 0.9 0.6
v 1.8 0.9 0.2
v 1.8 1.2 0.6
v 1.8 1.2 0.2
v 2.8 0.9 1.4
v 2.8 0.9 0.2
v 2.8 1.2 1.4
v 2.8 1.2 0.2
v 3 0.5 0.3
v 3 0.5 -0.8
v 3 0.6 0.2
v 3 0.6 -0.7
v 3 0.9 0.3
v 3 0.9 0.2
v 3 1.2 0.3
v 3 1.2 0.2
v 3 1.5 0.2
v 3 1.5 -0.7
v 3 1.6 0.3
v 3 1.6 -0.8
v 3.1 0.9 -0.8
v 3.1 0.9 -1.1
v 3.1 1.2 -0.8
v 3.1 1.2 -1.1
v -3.4 0.3 0.5
v -3.4 0.3 -1
v -3.4 0.4 0.4
v -3.4 0.4 -0.9
v -3.4 1.7 0.4
v -3.4 1.7 -0.9
v -3.4 1.8 0.5
v -3.4 1.8 -1
v -1.6 0.4 0.4
v -1.6 0.4 -0.9
v -1.6 0.5 0.3
v -1.6 0.5 0
v -1.6 0.5 -0.2
v -1.6 0.5 -0.8
v -1.6 0.6 0
v -1.6 0.6 -0.2
v -1.6 1.5 0
v -1.6 1.5 -0.2
v -1.6 1.6 0.3
v -1.6 1.6 0
v -1.6 1.6 -0.2
v -1.6 1.6 -0.8
v -1.6 1.7 0.4
v -1.6 1.7 -0.9
v 1 0.5 -0.5
v 1 0.5 -0.8
v 1 0.6 -0.5
v 1 0.6 -0.7
v 1 1.5 -0.5
v 1 1.5 -0.7
v 1 1.6 -0.5
v 1 1.6 -0.8
v 1.1 0.8 1.4
v 1.1 0.8 1
v 1.1 1.3 1.4
v 1.1 1.3 1
v 1.2 0.8 1
v 1.2 0.8 0.4
v 1.2 1 0.8
v 1.2 1 0.7
v 1.2 1.1 0.8
v 1.2 1.1 0.7
v 1.2 1.3 1
v 1.2 1.3 0.4
v 1.4 0.4 0.4
v 1.4 0.4 -0.5
v 1.4 0.5 -0.5
v 1.4 0.5 -0.8
v 1.4 0.6 0.2
v 1.4 0.6 -0.5
v 1.4 0.6 -0.7
v 1.4 0.9 -0.8
v 1.4 0.9 -1.4
v 1.4 1.2 -0.8
v 1.4 1.2 -1.4
v 1.4 1.5 0.2
v 1.4 1.5 -0.5
v 1.4 1.5 -0.7
v 1.4 1.6 -0.5
v 1.4 1.6 -0.8
v 1.4 1.7 0.4
v 1.4 1.7 -0.5
v 1.5 1 0.6
v 1.5 1 0.5
v 1.5 1.1 0.6
v 1.5 1.1 0.5
v 1.6 1 0.8
v 1.6 1 0.7
v 1.6 1 0.5
v 1.6 1 0.2
v 1.6 1.1 0.8
v 1.6 1.1 0.7
v 1.6 1.1 0.5
v 1.6 1.1 0.2
v 1.8 0.9 0.7
v 1.8 0.9 0.6
v 1.8 1.2 0.7
v 1.8 1.2 0.6
v 1.9 0.9 0.6
v 1.9 0.9 0.2
v 1.9 1.2 0.6
v 1.9 1.2 0.2
v 3.1 0.9 1.4
v 3.1 0.9 0.3
v 3.1 1.2 1.4
v 3.1 1.2 0.3
v 3.2 0.5 0.3
v 3.2 0.5 -0.8
v 3.2 0.6 0.1
v 3.2 0.6 -0.7
v 3.2 0.9 -0.8
v 3.2 0.9 -0.9
v 3.2 1 -0.7
v 3.2 1 -0.9
v 3.2 1.1 -0.7
v 3.2 1.1 -0.9
v 3.2 1.2 -0.8
v 3.2 1.2 -0.9
v 3.2 1.5 0.1
v 3.2 1.5 -0.7
v 3.2 1.6 0.3
v 3.2 1.6 -0.8
v 3.3 0.9 -0.9
v 3.3 0.9 -1.1
v 3.3 1 -0.7
v 3.3 1 -0.9
v 3.3 1.1 -0.7
v 3.3 1.1 -0.9
v 3.3 1.2 -0.9
v 3.3 1.2 -1.1
v 3.6 0.6 0.1
v 3.6 0.6 -0.7
v 3.6 1.5 0.1
v 3.6 1.5 -0.7
v 0.7 0.8 1.4
v 0.7 1.3 1.4
v 1.1 0.8 1.4
v 1.1 1.3 1.4
v 2.8 0.9 1.4
v 2.8 1.2 1.4
v 3.1 0.9 1.4
v 3.1 1.2 1.4
v 1.1 0.8 1
v 1.1 1.3 1
v 1.2 0.8 1
v 1.2 1.3 1
v 1.2 1 0.8
v 1.2 1.1 0.8
v 1.6 1 0.8
v 1.6 1.1 0.8
v 1.6 1 0.7
v 1.6 1.1 0.7
v 1.7 0.9 0.7
v 1.7 1 0.7
v 1.7 1.1 0.7
v 1.7 1.2 0.7
v 1.8 0.9 0.7
v 1.8 1.2 0.7
v 1.4 1 0.6
v 1.4 1.1 0.6
v 1.5 1 0.6
v 1.5 1.1 0.6
v 1.8 0.9 0.6
v 1.8 1.2 0.6
v 1.9 0.9 0.6
v 1.9 1.2 0.6
v -3.6 0.3 0.5
v -3.6 1.8 0.5
v -3.4 0.3 0.5
v -3.4 1.8 0.5
v 1.5 1 0.5
v 1.5 1.1 0.5
v 1.6 1 0.5
v 1.6 1.1 0.5
v -3.4 0.4 0.4
v -3.4 1.7 0.4
v -1.6 0.4 0.4
v -1.6 1.7 0.4
v 1.2 0.4 0.4
v 1.2 0.8 0.4
v 1.2 1.3 0.4
v 1.2 1.7 0.4
v 1.4 0.4 0.4
v 1.4 1.7 0.4
v -1.6 0.5 0.3
v -1.6 1.6 0.3
v 0.8 0.8 0.3
v 0.8 1.3 0.3
v 1.2 0.5 0.3
v 1.2 0.8 0.3
v 1.2 1.3 0.3
v 1.2 1.6 0.3
v 3 0.5 0.3
v 3 0.9 0.3
v 3 1.2 0.3
v 3 1.6 0.3
v 3.1 0.9 0.3
v 3.1 1.2 0.3
v 3.2 0.5 0.3
v 3.2 1.6 0.3
v 1.4 0.6 0.2
v 1.4 1.5 0.2
v 1.5 1 0.2
v 1.5 1.1 0.2
v 1.6 1 0.2
v 1.6 1.1 0.2
v 1.8 0.9 0.2
v 1.8 1.2 0.2
v 1.9 0.9 0.2
v 1.9 1.2 0.2
v 2.8 0.9 0.2
v 2.8 1.2 0.2
v 3 0.6 0.2
v 3 0.9 0.2
v 3 1.2 0.2
v 3 1.5 0.2
v 3.2 0.6 0.1
v 3.2 1.5 0.1
v 3.6 0.6 0.1
v 3.6 1.5 0.1
v -1.6 0.5 -0.2
v -1.6 0.6 -0.2
v -1.6 1.5 -0.2
v -1.6 1.6 -0.2
v 1.2 0.5 -0.2
v 1.2 0.6 -0.2
v 1.2 1.5 -0.2
v 1.2 1.6 -0.2
v -3.6 0.6 -0.7
v -3.6 1.5 -0.7
v -3.4 0.6 -0.7
v -3.4 1.5 -0.7
v -1.7 0.6 -0.7
v -1.7 1.5 -0.7
v 3.2 0.9 -0.9
v 3.2 1 -0.9
v 3.2 1.1 -0.9
v 3.2 1.2 -0.9
v 3.3 0.9 -0.9
v 3.3 1 -0.9
v 3.3 1.1 -0.9
v 3.3 1.2 -0.9
v 1.1 1 -1.1
v 1.1 1.1 -1.1
v 1.3 1 -1.1
v 1.3 1.1 -1.1
v 0.7 0.8 0.8
v 0.7 1.3 0.8
v 0.8 0.8 0.8
v 0.8 1.3 0.8
v 1.2 1 0.7
v 1.2 1.1 0.7
v 1.6 1 0.7
v 1.6 1.1 0.7
v 1.6 1 0.6
v 1.6 1.1 0.6
v 1.7 0.9 0.6
v 1.7 1 0.6
v 1.7 1.1 0.6
v 1.7 1.2 0.6
v 1.8 0.9 0.6
v 1.8 1.2 0.6
v 1.4 1 0.5
v 1.4 1.1 0.5
v 1.5 1 0.5
v 1.5 1.1 0.5
v -3.6 0.6 0.2
v -3.6 1.5 0.2
v -3.4 0.6 0.2
v -3.4 1.5 0.2
v -1.7 0.6 0.2
v -1.7 1.5 0.2
v -1.6 0.5 0
v -1.6 0.6 0
v -1.6 1.5 0
v -1.6 1.6 0
v 1.2 0.5 0
v 1.2 0.6 0
v 1.2 1.5 0
v 1.2 1.6 0
v 1 0.5 -0.5
v 1 0.6 -0.5
v 1 1.5 -0.5
v 1 1.6 -0.5
v 1.2 0.4 -0.5
v 1.2 0.5 -0.5
v 1.2 0.6 -0.5
v 1.2 1.5 -0.5
v 1.2 1.6 -0.5
v 1.2 1.7 -0.5
v 1.4 0.4 -0.5
v 1.4 0.5 -0.5
v 1.4 1.6 -0.5
v 1.4 1.7 -0.5
v 1 0.6 -0.7
v 1 1.5 -0.7
v 1.2 0.6 -0.7
v 1.2 1.5 -0.7
v 1.4 0.6 -0.7
v 1.4 1.5 -0.7
v 3 0.6 -0.7
v 3 1.5 -0.7
v 3.2 0.6 -0.7
v 3.2 1 -0.7
v 3.2 1.1 -0.7
v 3.2 1.5 -0.7
v 3.3 1 -0.7
v 3.3 1.1 -0.7
v 3.6 0.6 -0.7
v 3.6 1.5 -0.7
v -1.6 0.5 -0.8
v -1.6 1.6 -0.8
v 1 0.5 -0.8
v 1 1.6 -0.8
v 1.2 0.5 -0.8
v 1.2 1.6 -0.8
v 1.3 0.9 -0.8
v 1.3 1.2 -0.8
v 1.4 0.5 -0.8
v 1.4 0.9 -0.8
v 1.4 1.2 -0.8
v 1.4 1.6 -0.8
v 3 0.5 -0.8
v 3 1.6 -0.8
v 3.1 0.9 -0.8
v 3.1 1.2 -0.8
v 3.2 0.5 -0.8
v 3.2 0.9 -0.8
v 3.2 1.2 -0.8
v 3.2 1.6 -0.8
v -3.4 0.4 -0.9
v -3.4 1.7 -0.9
v -1.6 0.4 -0.9
v -1.6 1.7 -0.9
v -3.6 0.3 -1
v -3.6 1.8 -1
v -3.4 0.3 -1
v -3.4 1.8 -1
v 3.1 0.9 -1.1
v 3.1 1.2 -1.1
v 3.3 0.9 -1.1
v 3.3 1.2 -1.1
v 1.1 1 -1.3
v 1.1 1.1 -1.3
v 1.3 1 -1.3
v 1.3 1.1 -1.3
v 1.3 0.9 -1.4
v 1.3 1.2 -1.4
v 1.4 0.9 -1.4
v 1.4 1.2 -1.4
v -3.6 0.3 0.5
v -3.4 0.3 0.5
v -3.6 0.3 -1
v -3.4 0.3 -1
v -3.4 0.4 0.4
v -1.6 0.4 0.4
v 1.2 0.4 0.4
v 1.4 0.4 0.4
v 1.2 0.4 -0.5
v 1.4 0.4 -0.5
v -3.4 0.4 -0.9
v -1.6 0.4 -0.9
v -1.6 0.5 0.3
v 1.2 0.5 0.3
v 3 0.5 0.3
v 3.2 0.5 0.3
v -1.6 0.5 0
v 1.2 0.5 0
v -1.6 0.5 -0.2
v 1.2 0.5 -0.2
v 1 0.5 -0.5
v 1.2 0.5 -0.5
v 1.4 0.5 -0.5
v -1.6 0.5 -0.8
v 1 0.5 -0.8
v 1.2 0.5 -0.8
v 1.4 0.5 -0.8
v 3 0.5 -0.8
v 3.2 0.5 -0.8
v 1.4 0.6 0.2
v 3 0.6 0.2
v 3.2 0.6 0.1
v 3.6 0.6 0.1
v -1.6 0.6 0
v 1.2 0.6 0
v -1.6 0.6 -0.2
v 1.2 0.6 -0.2
v 1 0.6 -0.5
v 1.2 0.6 -0.5
v 1.4 0.6 -0.5
v 1 0.6 -0.7
v 1.2 0.6 -0.7
v 1.4 0.6 -0.7
v 3 0.6 -0.7
v 3.2 0.6 -0.7
v 3.6 0.6 -0.7
v 0.7 0.8 1.4
v 1.1 0.8 1.4
v 1.1 0.8 1
v 1.2 0.8 1
v 0.7 0.8 0.8
v 0.8 0.8 0.8
v 1.2 0.8 0.4
v 0.8 0.8 0.3
v 1.2 0.8 0.3
v 2.8 0.9 1.4
v 3.1 0.9 1.4
v 1.7 0.9 0.7
v 1.8 0.9 0.7
v 1.7 0.9 0.6
v 1.8 0.9 0.6
v 1.9 0.9 0.6
v 3 0.9 0.3
v 3.1 0.9 0.3
v 1.8 0.9 0.2
v 1.9 0.9 0.2
v 2.8 0.9 0.2
v 3 0.9 0.2
v 1.3 0.9 -0.8
v 1.4 0.9 -0.8
v 3.1 0.9 -0.8
v 3.2 0.9 -0.8
v 3.2 0.9 -0.9
v 3.3 0.9 -0.9
v 3.1 0.9 -1.1
v 3.3 0.9 -1.1
v 1.3 0.9 -1.4
v 1.4 0.9 -1.4
v 1.2 1 0.8
v 1.6 1 0.8
v 1.2 1 0.7
v 1.6 1 0.7
v 1.7 1 0.7
v 1.4 1 0.6
v 1.5 1 0.6
v 1.6 1 0.6
v 1.7 1 0.6
v 1.4 1 0.5
v 1.5 1 0.5
v 1.6 1 0.5
v 1.5 1 0.2
v 1.6 1 0.2
v 3.2 1 -0.7
v 3.3 1 -0.7
v 3.2 1 -0.9
v 3.3 1 -0.9
v 1.1 1 -1.1
v 1.3 1 -1.1
v 1.1 1 -1.3
v 1.3 1 -1.3
v -3.6 1.5 0.2
v -3.4 1.5 0.2
v -1.7 1.5 0.2
v -3.6 1.5 -0.7
v -3.4 1.5 -0.7
v -1.7 1.5 -0.7
v -3.6 0.6 0.2
v -3.4 0.6 0.2
v -1.7 0.6 0.2
v -3.6 0.6 -0.7
v -3.4 0.6 -0.7
v -1.7 0.6 -0.7
v 1.2 1.1 0.8
v 1.6 1.1 0.8
v 1.2 1.1 0.7
v 1.6 1.1 0.7
v 1.7 1.1 0.7
v 1.4 1.1 0.6
v 1.5 1.1 0.6
v 1.6 1.1 0.6
v 1.7 1.1 0.6
v 1.4 1.1 0.5
v 1.5 1.1 0.5
v 1.6 1.1 0.5
v 1.5 1.1 0.2
v 1.6 1.1 0.2
v 3.2 1.1 -0.7
v 3.3 1.1 -0.7
v 3.2 1.1 -0.9
v 3.3 1.1 -0.9
v 1.1 1.1 -1.1
v 1.3 1.1 -1.1
v 1.1 1.1 -1.3
v 1.3 1.1 -1.3
v 2.8 1.2 1.4
v 3.1 1.2 1.4
v 1.7 1.2 0.7
v 1.8 1.2 0.7
v 1.7 1.2 0.6
v 1.8 1.2 0.6
v 1.9 1.2 0.6
v 3 1.2 0.3
v 3.1 1.2 0.3
v 1.8 1.2 0.2
v 1.9 1.2 0.2
v 2.8 1.2 0.2
v 3 1.2 0.2
v 1.3 1.2 -0.8
v 1.4 1.2 -0.8
v 3.1 1.2 -0.8
v 3.2 1.2 -0.8
v 3.2 1.2 -0.9
v 3.3 1.2 -0.9
v 3.1 1.2 -1.1
v 3.3 1.2 -1.1
v 1.3 1.2 -1.4
v 1.4 1.2 -1.4
v 0.7 1.3 1.4
v 1.1 1.3 1.4
v 1.1 1.3 1
v 1.2 1.3 1
v 0.7 1.3 0.8
v 0.8 1.3 0.8
v 1.2 1.3 0.4
v 0.8 1.3 0.3
v 1.2 1.3 0.3
v 1.4 1.5 0.2
v 3 1.5 0.2
v 3.2 1.5 0.1
v 3.6 1.5 0.1
v -1.6 1.5 0
v 1.2 1.5 0
v -1.6 1.5 -0.2
v 1.2 1.5 -0.2
v 1 1.5 -0.5
v 1.2 1.5 -0.5
v 1.4 1.5 -0.5
v 1 1.5 -0.7
v 1.2 1.5 -0.7
v 1.4 1.5 -0.7
v 3 1.5 -0.7
v 3.2 1.5 -0.7
v 3.6 1.5 -0.7
v -1.6 1.6 0.3
v 1.2 1.6 0.3
v 3 1.6 0.3
v 3.2 1.6 0.3
v -1.6 1.6 0
v 1.2 1.6 0
v -1.6 1.6 -0.2
v 1.2 1.6 -0.2
v 1 1.6 -0.5
v 1.2 1.6 -0.5
v 1.4 1.6 -0.5
v -1.6 1.6 -0.8
v 1 1.6 -0.8
v 1.2 1.6 -0.8
v 1.4 1.6 -0.8
v 3 1.6 -0.8
v 3.2 1.6 -0.8
v -3.4 1.7 0.4
v -1.6 1.7 0.4
v 1.2 1.7 0.4
v 1.4 1.7 0.4
v 1.2 1.7 -0.5
v 1.4 1.7 -0.5
v -3.4 1.7 -0.9
v -1.6 1.7 -0.9
v -3.6 1.8 0.5
v -3.4 1.8 0.5
v -3.6 1.8 -1
v -3.4 1.8 -1

# faces
f 3/1/1 2/1/1 1/1/1
f 4/1/1 2/1/1 3/1/1
f 5/1/1 3/1/1 1/1/1
f 6/1/1 2/1/1 4/1/1
f 7/1/1 5/1/1 1/1/1
f 7/1/1 6/1/1 5/1/1
f 8/1/1 2/1/1 6/1/1
f 8/1/1 6/1/1 7/1/1
f 11/6/1 10/6/1 9/6/1
f 12/6/1 10/6/1 11/6/1
f 15/5/1 14/5/1 13/5/1
f 16/5/1 14/5/1 15/5/1
f 19/5/1 18/5/1 17/5/1
f 20/5/1 18/5/1 19/5/1
f 23/5/1 22/5/1 21/5/1
f 24/5/1 22/5/1 23/5/1
f 27/4/1 26/4/1 25/4/1
f 28/4/1 26/4/1 27/4/1
f 29/4/1 26/4/1 28/4/1
f 30/4/1 26/4/1 29/4/1
f 32/4/1 29/4/1 28/4/1
f 33/4/1 29/4/1 32/4/1
f 34/5/1 31/5/1 30/5/1
f 35/5/1 31/5/1 34/5/1
f 36/4/1 27/4/1 25/4/1
f 37/4/1 27/4/1 36/4/1
f 43/5/1 31/5/1 35/5/1
f 44/4/1 39/4/1 38/4/1
f 45/4/1 41/4/1 40/4/1
f 46/4/1 41/4/1 45/4/1
f 47/5/1 43/5/1 42/5/1
f 48/5/1 31/5/1 43/5/1
f 48/5/1 43/5/1 47/5/1
f 49/4/1 44/4/1 38/4/1
f 49/4/1 46/4/1 45/4/1
f 49/4/1 47/4/1 46/4/1
f 49/4/1 45/4/1 44/4/1
f 50/4/1 47/4/1 49/4/1
f 53/5/1 52/5/1 51/5/1
f 54/5/1 52/5/1 53/5/1
f 55/5/1 53/5/1 51/5/1
f 56/5/1 52/5/1 54/5/1
f 57/5/1 55/5/1 51/5/1
f 57/5/1 56/5/1 55/5/1
f 58/5/1 52/5/1 56/5/1
f 58/5/1 56/5/1 57/5/1
f 61/5/1 60/5/1 59/5/1
f 62/5/1 60/5/1 61/5/1
f 65/5/1 64/5/1 63/5/1
f 66/5/1 64/5/1 65/5/1
f 69/5/1 68/5/1 67/5/1
f 70/5/1 68/5/1 69/5/1
f 73/5/1 72/5/1 71/5/1
f 74/5/1 72/5/1 73/5/1
f 77/5/1 76/5/1 75/5/1
f 78/5/1 76/5/1 77/5/1
f 81/5/1 80/5/1 79/5/1
f 82/5/1 80/5/1 81/5/1
f 85/4/1 84/4/1 83/4/1
f 86/4/1 84/4/1 85/4/1
f 89/4/1 88/4/1 87/4/1
f 90/4/1 88/4/1 89/4/1
f 91/4/1 89/4/1 87/4/1
f 92/4/1 89/4/1 91/4/1
f 95/4/1 94/4/1 93/4/1
f 96/4/1 88/4/1 90/4/1
f 97/4/1 95/4/1 93/4/1
f 97/4/1 96/4/1 95/4/1
f 98/4/1 88/4/1 96/4/1
f 98/4/1 96/4/1 97/4/1
f 101/4/1 100/4/1 99/4/1
f 102/4/1 100/4/1 101/4/1
f 103/1/2 104/1/2 105/1/2
f 105/1/2 104/1/2 106/1/2
f 103/1/2 105/1/2 107/1/2
f 106/1/2 104/1/2 108/1/2
f 103/1/2 107/1/2 109/1/2
f 107/1/2 108/1/2 109/1/2
f 108/1/2 104/1/2 110/1/2
f 109/1/2 108/1/2 110/1/2
f 111/3/2 112/3/2 113/3/2
f 113/3/2 112/3/2 114/3/2
f 114/3/2 112/3/2 115/3/2
f 115/3/2 112/3/2 116/3/2
f 114/3/2 115/3/2 117/3/2
f 117/3/2 115/3/2 118/3/2
f 111/3/2 113/3/2 121/3/2
f 119/3/2 120/3/2 122/3/2
f 122/3/2 120/3/2 123/3/2
f 116/3/2 112/3/2 124/3/2
f 111/3/2 121/3/2 125/3/2
f 123/3/2 124/3/2 125/3/2
f 122/3/2 123/3/2 125/3/2
f 121/3/2 122/3/2 125/3/2
f 124/3/2 112/3/2 126/3/2
f 125/3/2 124/3/2 126/3/2
f 127/5/2 128/5/2 129/5/2
f 129/5/2 128/5/2 130/5/2
f 130/5/2 128/5/2 132/5/2
f 131/5/2 132/5/2 133/5/2
f 132/5/2 128/5/2 134/5/2
f 133/5/2 132/5/2 134/5/2
f 135/5/2 136/5/2 137/5/2
f 137/5/2 136/5/2 138/5/2
f 139/5/2 140/5/2 141/5/2
f 141/5/2 140/5/2 142/5/2
f 139/5/2 141/5/2 143/5/2
f 142/5/2 140/5/2 144/5/2
f 139/5/2 143/5/2 145/5/2
f 143/5/2 144/5/2 145/5/2
f 144/5/2 140/5/2 146/5/2
f 145/5/2 144/5/2 146/5/2
f 147/4/2 148/4/2 149/4/2
f 147/4/2 149/4/2 151/4/2
f 149/5/2 150/5/2 152/5/2
f 151/4/2 149/4/2 152/4/2
f 152/5/2 150/5/2 153/5/2
f 153/5/2 150/5/2 154/5/2
f 153/5/2 154/5/2 156/5/2
f 154/5/2 155/5/2 156/5/2
f 156/5/2 155/5/2 157/5/2
f 147/4/2 151/4/2 158/4/2
f 153/5/2 156/5/2 160/5/2
f 158/4/2 159/4/2 161/4/2
f 159/5/2 160/5/2 161/5/2
f 160/5/2 156/5/2 162/5/2
f 161/5/2 160/5/2 162/5/2
f 158/4/2 161/4/2 163/4/2
f 147/4/2 158/4/2 163/4/2
f 163/4/2 161/4/2 164/4/2
f 165/5/2 166/5/2 167/5/2
f 167/5/2 166/5/2 168/5/2
f 169/5/2 170/5/2 173/5/2
f 173/5/2 170/5/2 174/5/2
f 171/5/2 172/5/2 175/5/2
f 175/5/2 172/5/2 176/5/2
f 177/5/2 178/5/2 179/5/2
f 179/5/2 178/5/2 180/5/2
f 181/5/2 182/5/2 183/5/2
f 183/5/2 182/5/2 184/5/2
f 185/4/2 186/4/2 187/4/2
f 187/4/2 186/4/2 188/4/2
f 189/4/2 190/4/2 191/4/2
f 191/4/2 190/4/2 192/4/2
f 192/4/2 190/4/2 193/4/2
f 192/4/2 193/4/2 195/4/2
f 193/4/2 194/4/2 195/4/2
f 195/4/2 194/4/2 196/4/2
f 197/4/2 198/4/2 199/4/2
f 199/4/2 198/4/2 200/4/2
f 189/4/2 191/4/2 201/4/2
f 197/4/2 199/4/2 202/4/2
f 189/4/2 201/4/2 203/4/2
f 201/4/2 202/4/2 203/4/2
f 202/4/2 199/4/2 204/4/2
f 203/4/2 202/4/2 204/4/2
f 205/4/2 206/4/2 208/4/2
f 207/4/2 208/4/2 209/4/2
f 208/4/2 206/4/2 210/4/2
f 209/4/2 208/4/2 210/4/2
f 210/4/2 206/4/2 211/4/2
f 211/4/2 206/4/2 212/4/2
f 213/5/2 214/5/2 215/5/2
f 215/5/2 214/5/2 216/5/2
f 219/5/3 218/5/3 217/5/3
f 220/5/3 218/5/3 219/5/3
f 223/4/3 222/4/3 221/4/3
f 224/4/3 222/4/3 223/4/3
f 227/5/3 226/5/3 225/5/3
f 228/5/3 226/5/3 227/5/3
f 231/5/3 230/5/3 229/5/3
f 232/5/3 230/5/3 231/5/3
f 236/5/3 234/5/3 233/5/3
f 237/5/3 234/5/3 236/5/3
f 239/5/3 236/5/3 235/5/3
f 239/5/3 238/5/3 237/5/3
f 239/5/3 237/5/3 236/5/3
f 240/5/3 238/5/3 239/5/3
f 243/5/3 242/5/3 241/5/3
f 244/5/3 242/5/3 243/5/3
f 247/5/3 246/5/3 245/5/3
f 248/5/3 246/5/3 247/5/3
f 251/1/3 250/1/3 249/1/3
f 252/1/3 250/1/3 251/1/3
f 255/5/3 254/5/3 253/5/3
f 256/5/3 254/5/3 255/5/3
f 259/3/3 258/3/3 257/3/3
f 260/3/3 258/3/3 259/3/3
f 265/4/3 262/4/3 261/4/3
f 265/4/3 264/4/3 263/4/3
f 265/4/3 263/4/3 262/4/3
f 266/4/3 264/4/3 265/4/3
f 269/5/3 268/5/3 267/5/3
f 270/5/3 268/5/3 269/5/3
f 271/5/3 269/5/3 267/5/3
f 272/5/3 269/5/3 271/5/3
f 273/5/3 268/5/3 270/5/3
f 274/5/3 268/5/3 273/5/3
f 279/4/3 276/4/3 275/4/3
f 280/4/3 278/4/3 277/4/3
f 281/4/3 279/4/3 275/4/3
f 281/4/3 280/4/3 279/4/3
f 282/4/3 278/4/3 280/4/3
f 282/4/3 280/4/3 281/4/3
f 285/3/3 284/3/3 283/3/3
f 286/3/3 284/3/3 285/3/3
f 287/3/3 285/3/3 283/3/3
f 288/3/3 284/3/3 286/3/3
f 289/3/3 287/3/3 283/3/3
f 289/3/3 288/3/3 287/3/3
f 290/3/3 284/3/3 288/3/3
f 290/3/3 288/3/3 289/3/3
f 291/3/3 289/3/3 283/3/3
f 292/3/3 284/3/3 290/3/3
f 293/3/3 291/3/3 283/3/3
f 293/3/3 292/3/3 291/3/3
f 294/3/3 284/3/3 292/3/3
f 294/3/3 292/3/3 293/3/3
f 295/3/3 293/3/3 283/3/3
f 296/3/3 293/3/3 295/3/3
f 297/3/3 284/3/3 294/3/3
f 298/3/3 284/3/3 297/3/3
f 301/5/3 300/5/3 299/5/3
f 302/5/3 300/5/3 301/5/3
f 307/5/3 304/5/3 303/5/3
f 308/5/3 304/5/3 307/5/3
f 309/5/3 306/5/3 305/5/3
f 310/5/3 306/5/3 309/5/3
f 313/1/3 312/1/3 311/1/3
f 314/1/3 312/1/3 313/1/3
f 315/3/3 314/3/3 313/3/3
f 316/3/3 314/3/3 315/3/3
f 321/4/3 318/4/3 317/4/3
f 322/4/3 318/4/3 321/4/3
f 323/4/3 320/4/3 319/4/3
f 324/4/3 320/4/3 323/4/3
f 327/5/3 326/5/3 325/5/3
f 328/5/3 326/5/3 327/5/3
f 329/5/4 330/5/4 331/5/4
f 331/5/4 330/5/4 332/5/4
f 333/5/4 334/5/4 335/5/4
f 335/5/4 334/5/4 336/5/4
f 337/5/4 338/5/4 340/5/4
f 340/5/4 338/5/4 341/5/4
f 339/5/4 340/5/4 343/5/4
f 341/5/4 342/5/4 343/5/4
f 340/5/4 341/5/4 343/5/4
f 343/5/4 342/5/4 344/5/4
f 345/5/4 346/5/4 347/5/4
f 347/5/4 346/5/4 348/5/4
f 349/1/4 350/1/4 351/1/4
f 351/1/4 350/1/4 352/1/4
f 351/3/4 352/3/4 353/3/4
f 353/3/4 352/3/4 354/3/4
f 355/5/4 356/5/4 359/5/4
f 359/5/4 356/5/4 360/5/4
f 357/5/4 358/5/4 361/5/4
f 361/5/4 358/5/4 362/5/4
f 363/5/4 364/5/4 368/5/4
f 368/5/4 364/5/4 369/5/4
f 365/5/4 366/5/4 370/5/4
f 370/5/4 366/5/4 371/5/4
f 367/4/4 368/4/4 373/4/4
f 373/4/4 368/4/4 374/4/4
f 371/4/4 372/4/4 375/4/4
f 375/4/4 372/4/4 376/4/4
f 377/4/4 378/4/4 379/4/4
f 379/4/4 378/4/4 380/4/4
f 381/3/4 382/3/4 383/3/4
f 383/3/4 382/3/4 384/3/4
f 385/5/4 386/5/4 389/5/4
f 387/5/4 388/5/4 390/5/4
f 385/5/4 389/5/4 391/5/4
f 389/5/4 390/5/4 391/5/4
f 390/5/4 388/5/4 392/5/4
f 391/5/4 390/5/4 392/5/4
f 393/5/4 394/5/4 395/5/4
f 395/5/4 394/5/4 396/5/4
f 397/5/4 398/5/4 399/5/4
f 399/5/4 398/5/4 400/5/4
f 397/5/4 399/5/4 401/5/4
f 401/5/4 399/5/4 402/5/4
f 400/5/4 398/5/4 403/5/4
f 403/5/4 398/5/4 404/5/4
f 405/4/4 406/4/4 407/4/4
f 407/4/4 406/4/4 408/4/4
f 405/4/4 407/4/4 409/4/4
f 409/4/4 407/4/4 410/4/4
f 408/4/4 406/4/4 411/4/4
f 411/4/4 406/4/4 412/4/4
f 413/3/4 414/3/4 415/3/4
f 415/3/4 414/3/4 416/3/4
f 417/1/4 418/1/4 419/1/4
f 419/1/4 418/1/4 420/1/4
f 421/4/4 422/4/4 423/4/4
f 423/4/4 422/4/4 424/4/4
f 425/5/4 426/5/4 427/5/4
f 427/5/4 426/5/4 428/5/4
f 429/5/4 430/5/4 431/5/4
f 431/5/4 430/5/4 432/5/4
f 435/1/5 434/1/5 433/1/5
f 436/1/5 434/1/5 435/1/5
f 441/4/5 440/4/5 439/4/5
f 442/4/5 440/4/5 441/4/5
f 443/3/5 438/3/5 437/3/5
f 444/3/5 438/3/5 443/3/5
f 449/5/5 446/5/5 445/5/5
f 450/5/5 446/5/5 449/5/5
f 453/5/5 452/5/5 451/5/5
f 454/5/5 452/5/5 453/5/5
f 456/5/5 453/5/5 451/5/5
f 457/5/5 453/5/5 456/5/5
f 458/5/5 455/5/5 454/5/5
f 459/5/5 455/5/5 458/5/5
f 460/4/5 448/4/5 447/4/5
f 461/4/5 448/4/5 460/4/5
f 468/2/5 467/2/5 466/2/5
f 469/2/5 467/2/5 468/2/5
f 472/3/5 463/3/5 462/3/5
f 473/4/5 471/4/5 470/4/5
f 474/4/5 471/4/5 473/4/5
f 475/3/5 463/3/5 472/3/5
f 476/3/5 463/3/5 475/3/5
f 477/5/5 465/5/5 464/5/5
f 478/5/5 465/5/5 477/5/5
f 481/5/5 480/5/5 479/5/5
f 483/5/5 481/5/5 479/5/5
f 483/5/5 482/5/5 481/5/5
f 484/5/5 482/5/5 483/5/5
f 485/5/5 482/5/5 484/5/5
f 486/5/5 485/5/5 484/5/5
f 487/5/5 485/5/5 486/5/5
f 492/5/5 491/5/5 490/5/5
f 493/5/5 491/5/5 492/5/5
f 495/4/5 489/4/5 488/4/5
f 496/4/5 489/4/5 495/4/5
f 497/5/5 494/5/5 493/5/5
f 498/5/5 494/5/5 497/5/5
f 499/4/5 495/4/5 488/4/5
f 500/4/5 495/4/5 499/4/5
f 505/4/5 504/4/5 503/4/5
f 507/4/5 505/4/5 503/4/5
f 507/4/5 506/4/5 505/4/5
f 508/4/5 506/4/5 507/4/5
f 509/5/5 502/5/5 501/5/5
f 510/5/5 502/5/5 509/5/5
f 513/5/5 512/5/5 511/5/5
f 514/5/5 512/5/5 513/5/5
f 518/5/5 515/5/5 514/5/5
f 519/5/5 515/5/5 518/5/5
f 520/5/5 517/5/5 516/5/5
f 521/5/5 517/5/5 520/5/5
f 523/5/5 522/5/5 521/5/5
f 524/5/5 522/5/5 523/5/5
f 527/4/5 526/4/5 525/4/5
f 528/4/5 526/4/5 527/4/5
f 531/5/5 530/5/5 529/5/5
f 532/5/5 530/5/5 531/5/5
f 536/1/5 534/1/5 533/1/5
f 537/3/5 535/3/5 534/3/5
f 537/1/5 534/1/5 536/1/5
f 538/3/5 535/3/5 537/3/5
f 539/1/6 540/1/6 542/1/6
f 540/3/6 541/3/6 543/3/6
f 542/1/6 540/1/6 543/1/6
f 543/3/6 541/3/6 544/3/6
f 545/5/6 546/5/6 547/5/6
f 547/5/6 546/5/6 548/5/6
f 548/5/6 549/5/6 552/5/6
f 552/5/6 549/5/6 553/5/6
f 550/5/6 551/5/6 554/5/6
f 554/5/6 551/5/6 555/5/6
f 555/5/6 556/5/6 557/5/6
f 557/5/6 556/5/6 558/5/6
f 559/4/6 560/4/6 561/4/6
f 561/4/6 560/4/6 562/4/6
f 563/5/6 564/5/6 565/5/6
f 565/5/6 564/5/6 566/5/6
f 569/5/6 570/5/6 571/5/6
f 571/5/6 570/5/6 572/5/6
f 567/4/6 568/4/6 574/4/6
f 574/4/6 568/4/6 575/4/6
f 572/5/6 573/5/6 576/5/6
f 576/5/6 573/5/6 577/5/6
f 567/4/6 574/4/6 578/4/6
f 578/4/6 574/4/6 579/4/6
f 582/4/6 583/4/6 584/4/6
f 582/4/6 584/4/6 586/4/6
f 584/4/6 585/4/6 586/4/6
f 586/4/6 585/4/6 587/4/6
f 580/5/6 581/5/6 588/5/6
f 588/5/6 581/5/6 589/5/6
f 590/5/6 591/5/6 592/5/6
f 590/5/6 592/5/6 594/5/6
f 592/5/6 593/5/6 594/5/6
f 594/5/6 593/5/6 595/5/6
f 595/5/6 593/5/6 596/5/6
f 595/5/6 596/5/6 597/5/6
f 597/5/6 596/5/6 598/5/6
f 603/2/6 604/2/6 605/2/6
f 605/2/6 604/2/6 606/2/6
f 599/3/6 600/3/6 609/3/6
f 607/4/6 608/4/6 610/4/6
f 610/4/6 608/4/6 611/4/6
f 609/3/6 600/3/6 612/3/6
f 612/3/6 600/3/6 613/3/6
f 601/5/6 602/5/6 614/5/6
f 614/5/6 602/5/6 615/5/6
f 616/5/6 617/5/6 620/5/6
f 620/5/6 617/5/6 621/5/6
f 622/5/6 623/5/6 624/5/6
f 624/5/6 623/5/6 625/5/6
f 622/5/6 624/5/6 627/5/6
f 627/5/6 624/5/6 628/5/6
f 625/5/6 626/5/6 629/5/6
f 629/5/6 626/5/6 630/5/6
f 618/4/6 619/4/6 631/4/6
f 631/4/6 619/4/6 632/4/6
f 635/4/6 636/4/6 637/4/6
f 637/4/6 636/4/6 638/4/6
f 633/3/6 634/3/6 639/3/6
f 639/3/6 634/3/6 640/3/6
f 641/1/6 642/1/6 643/1/6
f 643/1/6 642/1/6 644/1/6
